<?xml version="1.0" encoding="utf-8"?>
<!-- Generator: Adobe Illustrator 22.0.0, SVG Export Plug-In . SVG Version: 6.00 Build 0)  -->
<svg version="1.1" id="Layer_1" xmlns="http://www.w3.org/2000/svg" xmlns:xlink="http://www.w3.org/1999/xlink" x="0px" y="0px"
	 viewBox="0 0 180 180" style="enable-background:new 0 0 180 180;" xml:space="preserve">
<style type="text/css">
	.st0{fill:#192450;}
</style>
<g>
	<path class="st0" d="M51.439,67.883l30.54,19.498V53.042h16.047V87.38l30.541-19.498v18.894l-38.564,23.812L51.439,86.775V67.883z
		 M136.5,126.958h-93v-8h93V126.958z"/>
</g>
<g>
	<path class="st0" d="M90,7c45.766,0,83,37.234,83,83s-37.234,83-83,83S7,135.766,7,90S44.234,7,90,7 M90,0C40.294,0,0,40.294,0,90
		s40.294,90,90,90s90-40.294,90-90S139.706,0,90,0L90,0z"/>
</g>
</svg>
