<?xml version="1.0" encoding="utf-8"?>
<!-- Generator: Adobe Illustrator 22.0.0, SVG Export Plug-In . SVG Version: 6.00 Build 0)  -->
<svg version="1.1" id="Layer_1" xmlns="http://www.w3.org/2000/svg" xmlns:xlink="http://www.w3.org/1999/xlink" x="0px" y="0px"
	 viewBox="0 0 300 300" style="enable-background:new 0 0 300 300;" xml:space="preserve">
<style type="text/css">
	.st0{fill:#FFFFFF;}
	.st1{fill:#F9D45D;}
	.st2{fill:#DD1936;}
	.st3{fill:#2E3B89;}
	.st4{opacity:0;}
	.st5{fill:#5D90FF;}
	.st6{fill:#F1F3F2;}
	.st7{fill:none;}
	.st8{fill:#438E55;}
	.st9{fill:#F4AA34;}
	.st10{fill:#F2E677;}
	.st11{fill:#F9B843;}
</style>
<g>
	<path class="st0" d="M299.2,148.3c-7.1-15.7-17.4-29.9-28.9-40c1.6-5.7,2.5-11.8,2.9-18.2c1-16.5-2-35.1-8.5-52.5l-0.7-1.7
		l-1.7-0.7c-17.4-6.5-36-9.5-52.5-8.5c-6.3,0.4-12.4,1.4-18.2,2.9c-10.2-11.5-24.4-21.8-40-28.9L150,0l-1.7,0.8
		c-15.7,7.1-29.9,17.4-40,28.9c-5.7-1.5-11.8-2.5-18.2-2.9c-16.5-1-35.1,2-52.5,8.5l-1.7,0.7l-0.7,1.7c-6.5,17.4-9.5,36-8.5,52.5
		c0.4,6.3,1.4,12.4,2.9,18.2c-11.5,10.2-21.8,24.4-28.9,40L0,150l0.8,1.7c7.1,15.7,17.4,29.9,28.9,40c-1.6,5.7-2.5,11.8-2.9,18.2
		c-1,16.5,2,35.1,8.5,52.5l0.7,1.7l1.7,0.7c17.4,6.5,36,9.5,52.5,8.5c6.3-0.4,12.4-1.4,18.2-2.9c10.2,11.5,24.4,21.8,40,28.9
		l1.7,0.8l1.7-0.8c15.7-7.1,29.9-17.4,40-28.9c5.7,1.6,11.8,2.5,18.2,2.9c2.1,0.1,4.3,0.2,6.5,0.2c14.8,0,30.9-3,46-8.7l1.7-0.7
		l0.7-1.7c6.5-17.4,9.5-36,8.5-52.5c-0.4-6.3-1.4-12.4-2.9-18.2c11.5-10.2,21.8-24.4,28.9-40l0.8-1.7L299.2,148.3z"/>
	<path class="st1" d="M150,230.9c1.8,5.9,5.5,11.8,10.9,17.3c27.8,27.8,70.2,24,100,12.8c11.2-29.9,15-72.3-12.8-100
		c-5.5-5.5-11.4-9.1-17.3-10.9c5.9-1.8,11.8-5.5,17.3-10.9c27.8-27.8,24-70.2,12.8-100c-29.9-11.2-72.3-15-100,12.8
		c-5.5,5.5-9.1,11.4-10.9,17.3c-1.8-5.9-5.5-11.8-10.9-17.3C111.3,24.1,68.9,27.9,39,39c-11.2,29.9-15,72.3,12.8,100
		c5.5,5.5,11.4,9.1,17.3,10.9c-5.9,1.8-11.8,5.5-17.3,10.9c-27.8,27.8-24,70.2-12.8,100c29.9,11.2,72.3,15,100-12.8
		C144.5,242.7,148.2,236.8,150,230.9z"/>
	<g>
		<g>
			<path class="st2" d="M221.1,108.9c6.3-2,13.8-6.9,15.1-15.5c0.1-0.5,0.1-1,0.2-1.5c0.4,0.3,0.8,0.5,1.3,0.8
				c7.8,4,16.2,0.9,21.5-3c0.1-6.6-2.3-15.2-10.1-19.2c-0.4-0.2-0.9-0.4-1.3-0.6c0.4-0.3,0.7-0.6,1.1-0.9c6.2-6.2,5.8-15.1,3.8-21.3
				c-6.2-2.1-15.2-2.5-21.4,3.6c-0.4,0.4-0.7,0.8-1,1.2c-0.2-0.5-0.4-1-0.6-1.4c-3.9-7.8-12.6-10.2-19.1-10.2
				c-3.9,5.3-7.1,13.7-3.1,21.4c0.2,0.4,0.5,0.8,0.7,1.2c-0.5,0-0.9,0.1-1.4,0.1c-8.6,1.3-13.6,8.8-15.6,15.1
				C194.9,83.9,215.8,105,221.1,108.9z"/>
			<path class="st2" d="M108.9,78.8c-2-6.3-6.9-13.8-15.5-15.1c-0.5-0.1-1-0.1-1.5-0.2c0.3-0.4,0.5-0.8,0.8-1.3
				c4-7.8,0.9-16.2-3-21.5c-6.6-0.1-15.2,2.3-19.2,10.1c-0.2,0.4-0.4,0.9-0.6,1.3c-0.3-0.4-0.6-0.7-0.9-1.1
				c-6.2-6.2-15.1-5.8-21.3-3.8c-2.1,6.2-2.5,15.2,3.6,21.4c0.4,0.4,0.8,0.7,1.2,1c-0.5,0.2-1,0.4-1.4,0.6
				c-7.8,3.9-10.2,12.6-10.2,19.1c5.3,3.9,13.7,7.1,21.4,3.1c0.4-0.2,0.8-0.5,1.2-0.7c0,0.5,0.1,0.9,0.1,1.4
				c1.3,8.6,8.8,13.6,15.1,15.6C84,105.1,105.1,84.1,108.9,78.8z"/>
		</g>
		<g>
			<path class="st2" d="M78.9,191.1c-6.3,2-13.8,6.9-15.1,15.5c-0.1,0.5-0.1,1-0.2,1.5c-0.4-0.3-0.8-0.5-1.3-0.8
				c-7.8-4-16.2-0.9-21.5,3c-0.1,6.6,2.3,15.2,10.1,19.2c0.4,0.2,0.9,0.4,1.3,0.6c-0.4,0.3-0.7,0.6-1.1,0.9
				c-6.2,6.2-5.8,15.1-3.8,21.3c6.2,2.1,15.2,2.5,21.4-3.6c0.4-0.4,0.7-0.8,1-1.2c0.2,0.5,0.4,1,0.6,1.4
				c3.9,7.8,12.6,10.2,19.1,10.2c3.9-5.3,7.1-13.7,3.1-21.4c-0.2-0.4-0.5-0.8-0.7-1.2c0.5,0,0.9-0.1,1.4-0.1
				c8.6-1.3,13.6-8.8,15.6-15.1C105.1,216.1,84.2,195,78.9,191.1z"/>
			<path class="st2" d="M191.1,221.2c2,6.3,6.9,13.8,15.5,15.1c0.5,0.1,1,0.1,1.5,0.2c-0.3,0.4-0.5,0.8-0.8,1.3
				c-4,7.8-0.9,16.2,3,21.5c6.6,0.1,15.2-2.3,19.2-10.1c0.2-0.4,0.4-0.9,0.6-1.3c0.3,0.4,0.6,0.7,0.9,1.1c6.2,6.2,15.1,5.8,21.3,3.8
				c2.1-6.2,2.5-15.2-3.6-21.4c-0.4-0.4-0.8-0.7-1.2-1c0.5-0.2,1-0.4,1.4-0.6c7.8-3.9,10.2-12.6,10.2-19.1
				c-5.3-3.9-13.7-7.1-21.4-3.1c-0.4,0.2-0.8,0.5-1.2,0.7c0-0.5-0.1-0.9-0.1-1.4c-1.3-8.6-8.8-13.6-15.1-15.6
				C216,194.9,194.9,215.9,191.1,221.2z"/>
		</g>
	</g>
	<path class="st3" d="M221.5,92.8c-7.2,0-13.4,1.5-18.5,4.2c2.7-5.1,4.2-11.3,4.2-18.5c0-36.4-30.3-61.7-57.2-74
		c-26.9,12.3-57.2,37.5-57.2,74c0,7.2,1.5,13.4,4.2,18.5c-5.1-2.7-11.3-4.2-18.5-4.2c-36.4,0-61.7,30.3-74,57.2
		c12.3,26.9,37.5,57.2,74,57.2c7.2,0,13.4-1.5,18.5-4.2c-2.7,5.1-4.2,11.3-4.2,18.5c0,36.4,30.3,61.7,57.2,74
		c26.9-12.3,57.2-37.5,57.2-74c0-7.2-1.5-13.4-4.2-18.5c5.1,2.7,11.3,4.2,18.5,4.2c36.4,0,61.7-30.3,74-57.2
		C283.2,123.1,257.9,92.8,221.5,92.8z"/>
	<g class="st4">
		<path class="st0" d="M172.5,41.5c0,8.9-10.6,28.8-10.6,28.8H138c0,0-10.6-19.9-10.6-28.8c0-16.9,11.9-28.6,22.5-34.3
			C160.6,12.9,172.5,24.7,172.5,41.5z"/>
		<path class="st0" d="M256.3,172.5c-8.9,0-28.8-10.6-28.8-10.6v-23.9c0,0,19.9-10.6,28.8-10.6c16.9,0,28.6,11.9,34.3,22.5
			C284.9,160.6,273.2,172.5,256.3,172.5z"/>
		<path class="st0" d="M43.7,127.5c8.9,0,28.8,10.6,28.8,10.6v23.9c0,0-19.9,10.6-28.8,10.6c-16.9,0-28.6-11.9-34.3-22.5
			C15.1,139.4,26.8,127.5,43.7,127.5z"/>
		<path class="st0" d="M127.4,256.3c0-8.9,10.6-28.8,10.6-28.8h23.9c0,0,10.6,19.9,10.6,28.8c0,16.9-11.9,28.6-22.5,34.3
			C139.4,284.9,127.4,273.2,127.4,256.3z"/>
	</g>
	<path class="st5" d="M172.5,127.5V41c-5.5,3.8-10.3,8.1-14.5,13.1c-1.4,1.7-2.8,3.5-3.9,5.3l-4.2,6.5v61.6V150h22.5h61.6l6.5-4.2
		c1.8-1.1,3.6-2.4,5.3-3.9c5-4.2,9.3-9,13.1-14.5H172.5z"/>
	<path class="st5" d="M127.5,150H65.9l-6.5,4.2c-1.8,1.1-3.6,2.4-5.3,3.9c-5,4.2-9.3,9-13.1,14.5h86.5V259
		c5.5-3.8,10.3-8.1,14.5-13.1c1.4-1.7,2.8-3.5,3.9-5.3l4.2-6.5v-61.6V150H127.5z"/>
	<g>
		<path class="st6" d="M150,65.9L150,65.9l-4.2-6.5c-1.1-1.8-2.4-3.6-3.9-5.3c-4.2-5-9-9.3-14.5-13.1v86.5H41
			c3.8,5.5,8.1,10.3,13.1,14.5c1.7,1.4,3.5,2.8,5.3,3.9l6.5,4.2l0,0h61.6H150v-22.5V65.9z"/>
		<path class="st6" d="M245.9,158.1c-1.7-1.4-3.5-2.8-5.3-3.9l-6.5-4.2l0,0h-61.6H150v22.5v61.6l0,0l4.2,6.5
			c1.1,1.8,2.4,3.6,3.9,5.3c4.2,5,9,9.3,14.5,13.1v-86.5H259C255.3,167.1,250.9,162.2,245.9,158.1z"/>
	</g>
	<path class="st7" d="M32.8,182.5c3.7-9.3,9.2-17.5,16.2-24.5c3.2-3.2,6.7-5.9,10.2-8c-3.5-2.1-6.9-4.8-10.2-8
		c-7-7-12.4-15.2-16.2-24.5c-0.6-1.6-1.2-3.2-1.8-4.8C19.3,123.4,10.4,137.1,4.5,150c5.9,12.9,14.8,26.6,26.5,37.4
		C31.5,185.7,32.1,184.1,32.8,182.5z"/>
	<path class="st7" d="M51.7,94.2c8.6-3.6,17.6-5.5,26.8-5.5c4.1,0,7.9,0.4,11.5,1.3c-0.9-3.6-1.3-7.4-1.3-11.5
		c0-9.2,1.8-18.2,5.5-26.8c2.7-6.4,6.5-12.6,11.2-18.5c-22.4-5.5-47-1.3-66.3,5.9c-7.2,19.3-11.4,43.9-5.9,66.3
		C39,100.7,45.3,96.9,51.7,94.2z"/>
	<path class="st7" d="M94.2,89.9c0.3-0.4,0.6-0.8,1-1.3c0.6-0.8,1.2-1.5,1.8-2.2c0.3-0.4,0.6-0.7,1-1.1c0.4-0.5,0.8-0.9,1.2-1.4
		c0.4-0.4,0.7-0.8,1.1-1.2c0.2-0.2,0.4-0.4,0.6-0.6c0.2-0.2,0.4-0.4,0.6-0.6c0,0,0,0.1,0,0.1c0,0,0.1-0.1,0.1-0.1
		c-0.1,0.1-0.1,0.2-0.2,0.4c-0.2,0.8-0.5,1.5-0.7,2.3c-1.2,4.3-1.8,8.8-1.8,13.4c0,17.5,8.8,32.9,22.2,42.1c0.6,0.4,1.1,0.8,1.7,1.1
		c0.8,0.5,1.5,0.9,2.3,1.4c0.3,0.2,0.7,0.4,1,0.5c0.4,0.2,0.7,0.4,1.1,0.6c0.4,0.2,0.8,0.4,1.2,0.6c0.3,0.2,0.7,0.3,1,0.5
		c0.4,0.2,0.9,0.4,1.3,0.6c0.3,0.1,0.6,0.2,0.9,0.4c0.9,0.3,1.8,0.7,2.7,1c0.2,0.1,0.5,0.2,0.7,0.2c4.7,1.4,9.7,2.2,14.8,2.2
		c11,0,21.2-3.5,29.5-9.4c0.3-0.2,0.7-0.5,1-0.7c1.3-1,2.6-2,3.8-3.1c2.4-2.2,4.6-4.6,6.6-7.2c0.5-0.7,1-1.3,1.4-2
		c0.5-0.7,0.9-1.4,1.3-2.1c4.7-7.7,7.4-16.8,7.4-26.5c0-1.8-0.1-3.5-0.3-5.2c0-0.3-0.1-0.7-0.1-1c-0.1-0.7-0.2-1.4-0.3-2
		c-0.2-1-0.4-2-0.6-3c-0.3-1.5-0.8-3-1.2-4.5c-0.1-0.1-0.1-0.2-0.2-0.4c0,0,0.1,0.1,0.1,0.1c0,0,0-0.1,0-0.1
		c0.2,0.2,0.4,0.4,0.6,0.6c0.4,0.4,0.8,0.8,1.2,1.2c0.4,0.4,0.7,0.8,1.1,1.2c0.2,0.3,0.5,0.5,0.7,0.8c0.3,0.4,0.6,0.7,1,1.1
		c0.4,0.5,0.9,1,1.3,1.5c0.3,0.3,0.6,0.7,0.8,1c0.2,0.3,0.5,0.6,0.7,0.9c0.9-3.5,1.4-7.3,1.4-11.5c0-17.3-6.8-32.1-16.9-44.1
		c-10.7,3.3-20.7,8.8-29.4,17.5c-5.5,5.5-9.1,11.4-10.9,17.3c-1.8-5.9-5.5-11.8-10.9-17.3c-8.7-8.7-18.7-14.2-29.4-17.5
		c-10,12.1-16.9,26.9-16.9,44.1C92.8,82.6,93.3,86.5,94.2,89.9z"/>
	<path class="st7" d="M88.7,221.5c0-4.1,0.4-7.9,1.3-11.5c-3.6,0.9-7.4,1.3-11.5,1.3c-9.2,0-18.2-1.8-26.8-5.5
		c-6.4-2.7-12.6-6.5-18.5-11.2c-5.5,22.4-1.3,47,5.9,66.3c19.3,7.2,43.9,11.4,66.3,5.9c-4.7-5.9-8.4-12.1-11.2-18.5
		C90.5,239.8,88.7,230.7,88.7,221.5z"/>
	<path class="st7" d="M211.3,78.5c0,4.1-0.4,7.9-1.3,11.5c3.6-0.9,7.4-1.3,11.5-1.3c9.2,0,18.2,1.8,26.8,5.5
		c6.4,2.7,12.6,6.5,18.5,11.2c5.5-22.4,1.3-47-5.9-66.3c-19.3-7.2-43.9-11.4-66.3-5.9c4.7,5.9,8.4,12.1,11.2,18.5
		C209.5,60.2,211.3,69.3,211.3,78.5z"/>
	<path class="st7" d="M142,48.9c3.2,3.2,5.9,6.7,8,10.2c2.1-3.5,4.8-6.9,8-10.2c7-7,15.2-12.4,24.5-16.2c1.6-0.6,3.2-1.2,4.8-1.8
		C176.6,19.3,162.9,10.4,150,4.5c-12.9,5.9-26.6,14.8-37.4,26.5c1.6,0.5,3.3,1.1,4.8,1.8C126.7,36.5,135,41.9,142,48.9z"/>
	<path class="st7" d="M158,251.1c-3.2-3.2-5.9-6.7-8-10.2c-2.1,3.5-4.8,6.9-8,10.2c-7,7-15.2,12.4-24.5,16.2
		c-1.6,0.6-3.2,1.2-4.8,1.8c10.8,11.7,24.5,20.6,37.4,26.5c12.9-5.9,26.6-14.8,37.4-26.5c-1.6-0.5-3.3-1.1-4.8-1.8
		C173.3,263.5,165,258.1,158,251.1z"/>
	<path class="st7" d="M269,112.6c-0.5,1.6-1.1,3.3-1.8,4.8c-3.7,9.3-9.2,17.5-16.2,24.5c-3.2,3.2-6.7,5.9-10.2,8
		c3.5,2.1,6.9,4.8,10.2,8c7,7,12.4,15.2,16.2,24.5c0.6,1.6,1.2,3.2,1.8,4.8c11.7-10.8,20.6-24.5,26.5-37.4
		C289.6,137.1,280.7,123.4,269,112.6z"/>
	<path class="st7" d="M248.3,205.8c-8.6,3.6-17.6,5.5-26.8,5.5c-4.1,0-7.9-0.4-11.5-1.3c0.9,3.6,1.3,7.4,1.3,11.5
		c0,9.2-1.8,18.2-5.5,26.8c-2.7,6.4-6.5,12.6-11.2,18.5c22.4,5.5,47,1.3,66.3-5.9c7.2-19.3,11.4-43.9,5.9-66.3
		C261,199.3,254.7,203.1,248.3,205.8z"/>
	<path class="st7" d="M203,203c5.1,2.7,11.3,4.2,18.5,4.2c17.3,0,32.1-6.8,44.1-16.9c-3.3-10.7-8.8-20.7-17.5-29.4
		c-5.5-5.5-11.4-9.1-17.3-10.9c5.9-1.8,11.8-5.5,17.3-10.9c8.7-8.7,14.2-18.7,17.5-29.4c-12.1-10-26.9-16.9-44.1-16.9
		c-4.6,0-8.8,0.6-12.6,1.8c0.1,0.2,0.3,0.4,0.4,0.7c0.4,0.7,0.8,1.4,1.2,2.1c0.3,0.5,0.6,1,0.9,1.6c0.5,1,1,2,1.5,3.1
		c0.2,0.4,0.4,0.8,0.5,1.1c0.8,1.7,1.5,3.5,2.1,5.3c0.1,0.2,0.1,0.4,0.2,0.6c2.4,7,3.7,14.5,3.7,22.4c0,0,0,0,0,0c0,0,0,0,0,0.1
		c0,38.3-31.1,69.4-69.4,69.4c-38.3,0-69.4-31.1-69.4-69.4c0,0,0,0,0-0.1c0,0,0,0,0,0c0-6,0.8-11.9,2.2-17.4
		c0.1-0.4,0.2-0.8,0.3-1.2c0.2-0.7,0.4-1.4,0.6-2.1c0-0.2,0.1-0.3,0.1-0.5c0.1-0.4,0.2-0.7,0.4-1.1c0.2-0.5,0.3-0.9,0.5-1.4
		c0.2-0.6,0.4-1.2,0.7-1.8c0.3-0.7,0.6-1.4,0.9-2.1c0.2-0.4,0.3-0.7,0.5-1.1c0.7-1.5,1.4-3,2.2-4.5c0.1-0.2,0.2-0.4,0.4-0.7
		c0.5-1,1.1-1.9,1.7-2.8c-3.8-1.1-8-1.8-12.6-1.8c-17.3,0-32.1,6.8-44.1,16.9c3.3,10.7,8.8,20.7,17.5,29.4
		c5.5,5.5,11.4,9.1,17.3,10.9c-5.9,1.8-11.8,5.5-17.3,10.9c-8.7,8.7-14.2,18.7-17.5,29.4c12.1,10,26.9,16.9,44.1,16.9
		c7.2,0,13.4-1.5,18.5-4.2c-2.7,5.1-4.2,11.3-4.2,18.5c0,17.3,6.8,32.1,16.9,44.1c10.7-3.3,20.7-8.8,29.4-17.5
		c5.5-5.5,9.1-11.4,10.9-17.3c1.8,5.9,5.5,11.8,10.9,17.3c8.7,8.7,18.7,14.2,29.4,17.5c10-12.1,16.9-26.9,16.9-44.1
		C207.2,214.4,205.7,208.1,203,203z"/>
	<path class="st8" d="M90,105.6c-3.5,8.2-5.3,16.9-5.3,25.8c0,8.8,1.7,17.4,5.1,25.4c3.3,7.8,8,14.8,14,20.8c6,6,13,10.7,20.8,14
		c8.1,3.4,16.6,5.1,25.4,5.1c8.8,0,17.4-1.7,25.4-5.1c7.8-3.3,14.8-8,20.8-14c6-6,10.7-13,14-20.8c3.4-8.1,5.1-16.6,5.1-25.4
		c0-9-1.8-17.7-5.3-25.8c-1.4-3.2-3-6.3-4.9-9.3c0,0.5,0,1,0,1.5c0,30.4-24.7,55.1-55.1,55.1s-55.1-24.7-55.1-55.1c0-0.5,0-1,0-1.5
		C93,99.3,91.4,102.3,90,105.6z"/>
	<g>
		<g>
			<g>
				<path class="st9" d="M176.4,121.2L176.4,121.2l0-11.8c0-10.2,8.3-18.4,18.4-18.4h0v11.8C194.9,112.9,186.6,121.2,176.4,121.2z"
					/>
				<path class="st10" d="M176.4,121.1v-11.7c0-10.2,8.2-18.4,18.4-18.4C193.9,97.2,190.3,111.2,176.4,121.1z"/>
			</g>
			<g>
				<path class="st9" d="M176.4,91L176.4,91l0-11.8c0-10.2,8.3-18.4,18.4-18.4h0v11.8C194.9,82.8,186.6,91,176.4,91z"/>
				<path class="st10" d="M176.4,91V79.2c0-10.2,8.2-18.4,18.4-18.4C193.9,67,190.3,81.1,176.4,91z"/>
			</g>
		</g>
		<g>
			<g>
				<path class="st9" d="M123.6,121.2L123.6,121.2l0-11.8c0-10.2-8.3-18.4-18.4-18.4h0v11.8C105.1,112.9,113.4,121.2,123.6,121.2z"
					/>
				<path class="st10" d="M123.6,121.1v-11.7c0-10.2-8.2-18.4-18.4-18.4C106.1,97.2,109.7,111.2,123.6,121.1z"/>
			</g>
			<g>
				<path class="st9" d="M123.6,91L123.6,91l0-11.8c0-10.2-8.3-18.4-18.4-18.4h0v11.8C105.1,82.8,113.4,91,123.6,91z"/>
				<path class="st10" d="M123.6,91V79.2c0-10.2-8.2-18.4-18.4-18.4C106.1,67,109.7,81.1,123.6,91z"/>
			</g>
		</g>
	</g>
	<path class="st0" d="M299.2,148.3c-7.1-15.7-17.4-29.9-28.9-40c1.6-5.7,2.5-11.8,2.9-18.2c1-16.5-2-35.1-8.5-52.5l-0.7-1.7
		l-1.7-0.7c-17.4-6.5-36-9.5-52.5-8.5c-6.3,0.4-12.4,1.4-18.2,2.9c-10.2-11.5-24.4-21.8-40-28.9L150,0l-1.7,0.8
		c-15.7,7.1-29.9,17.4-40,28.9c-5.7-1.5-11.8-2.5-18.2-2.9c-16.5-1-35.1,2-52.5,8.5l-1.7,0.7l-0.7,1.7c-6.5,17.4-9.5,36-8.5,52.5
		c0.4,6.3,1.4,12.4,2.9,18.2c-11.5,10.2-21.8,24.4-28.9,40L0,150l0.8,1.7c7.1,15.7,17.4,29.9,28.9,40c-1.6,5.7-2.5,11.8-2.9,18.2
		c-1,16.5,2,35.1,8.5,52.5l0.7,1.7l1.7,0.7c17.4,6.5,36,9.5,52.5,8.5c6.3-0.4,12.4-1.4,18.2-2.9c10.2,11.5,24.4,21.8,40,28.9
		l1.7,0.8l1.7-0.8c15.7-7.1,29.9-17.4,40-28.9c5.7,1.6,11.8,2.5,18.2,2.9c2.1,0.1,4.3,0.2,6.5,0.2c14.8,0,30.9-3,46-8.7l1.7-0.7
		l0.7-1.7c6.5-17.4,9.5-36,8.5-52.5c-0.4-6.3-1.4-12.4-2.9-18.2c11.5-10.2,21.8-24.4,28.9-40l0.8-1.7L299.2,148.3z M261,39
		c7.2,19.3,11.4,43.9,5.9,66.3c-5.9-4.7-12.1-8.4-18.5-11.2c-8.6-3.6-17.6-5.5-26.8-5.5c-4.1,0-7.9,0.4-11.5,1.3
		c0.9-3.6,1.3-7.4,1.3-11.5c0-9.2-1.8-18.2-5.5-26.8c-2.7-6.4-6.5-12.6-11.2-18.5C217.1,27.7,241.6,31.8,261,39z M150,4.5
		c12.9,5.9,26.6,14.8,37.4,26.5c-1.6,0.5-3.3,1.1-4.8,1.8c-9.3,3.7-17.5,9.2-24.5,16.2c-3.2,3.2-5.9,6.7-8,10.2
		c-2.1-3.5-4.8-6.9-8-10.2c-7-7-15.2-12.4-24.5-16.2c-1.6-0.6-3.2-1.2-4.8-1.8C123.4,19.3,137.1,10.4,150,4.5z M109.7,34.3
		c10.7,3.3,20.7,8.8,29.4,17.5c5.5,5.5,9.1,11.4,10.9,17.3c1.8-5.9,5.5-11.8,10.9-17.3c8.7-8.7,18.7-14.2,29.4-17.5
		c10,12.1,16.9,26.9,16.9,44.1c0,4.2-0.5,8-1.4,11.5c-0.2-0.3-0.5-0.6-0.7-0.9c-0.3-0.4-0.5-0.7-0.8-1c-0.4-0.5-0.8-1-1.3-1.5
		c-0.3-0.4-0.6-0.7-1-1.1c-0.2-0.3-0.5-0.5-0.7-0.8c-0.4-0.4-0.7-0.8-1.1-1.2c-0.4-0.4-0.8-0.8-1.2-1.2c-0.2-0.2-0.4-0.4-0.6-0.6
		c0,0,0,0.1,0,0.1c0,0-0.1-0.1-0.1-0.1c0.1,0.1,0.1,0.2,0.2,0.4c0.5,1.5,0.9,3,1.2,4.5c0.2,1,0.4,2,0.6,3c0.1,0.7,0.2,1.4,0.3,2
		c0,0.3,0.1,0.7,0.1,1c0.2,1.7,0.3,3.5,0.3,5.2c0,9.7-2.7,18.7-7.4,26.5c-0.4,0.7-0.9,1.4-1.3,2.1c-0.5,0.7-0.9,1.3-1.4,2
		c-2,2.6-4.2,5-6.6,7.2c-1.2,1.1-2.5,2.1-3.8,3.1c-0.3,0.2-0.7,0.5-1,0.7c-7.1,5-15.5,8.3-24.6,9.2c-1.1-1.8-2.2-3.4-3.2-4.9
		l-1.7-2.5l-1.7,2.5c-1,1.5-2.1,3.1-3.2,4.9c-3.4-0.3-6.8-1-10-2c-0.2-0.1-0.5-0.2-0.7-0.2c-0.9-0.3-1.8-0.6-2.7-1
		c-0.3-0.1-0.6-0.2-0.9-0.4c-0.4-0.2-0.9-0.4-1.3-0.6c-0.3-0.2-0.7-0.3-1-0.5c-0.4-0.2-0.8-0.4-1.2-0.6c-0.4-0.2-0.8-0.4-1.1-0.6
		c-0.3-0.2-0.7-0.4-1-0.5c-0.8-0.4-1.6-0.9-2.3-1.4c-0.6-0.4-1.2-0.7-1.7-1.1c-13.4-9.2-22.2-24.6-22.2-42.1c0-4.7,0.6-9.2,1.8-13.4
		c0.2-0.8,0.4-1.5,0.7-2.3c0.1-0.1,0.1-0.2,0.2-0.4c0,0-0.1,0.1-0.1,0.1c0,0,0-0.1,0-0.1c-0.2,0.2-0.4,0.4-0.6,0.6
		c-0.2,0.2-0.4,0.4-0.6,0.6c-0.4,0.4-0.7,0.8-1.1,1.2c-0.4,0.5-0.8,0.9-1.2,1.4c-0.3,0.4-0.6,0.7-1,1.1c-0.6,0.7-1.2,1.5-1.8,2.2
		c-0.3,0.4-0.6,0.8-1,1.3c-0.9-3.5-1.4-7.3-1.4-11.5C92.8,61.2,99.6,46.4,109.7,34.3z M142.7,152.4c-2.3,3.9-4.8,8.3-7.1,12.9l0,0.1
		l-0.1,0c-9.5,1.6-17.8,3.4-23.9,5l-3,0.8l1.9,2.4c5.1,6.6,10.6,13,16.3,18.8c-0.7-0.3-1.5-0.6-2.2-0.9c-7.8-3.3-14.8-8-20.8-14
		c-6-6-10.7-13-14-20.8c-3.4-8.1-5.1-16.6-5.1-25.4c0-9,1.8-17.7,5.3-25.8c1.4-3.2,3-6.3,4.9-9.3c0,0.5,0,1,0,1.5
		C94.9,125.7,115.7,148.9,142.7,152.4z M189.5,173.7l1.9-2.4l-3-0.8c-6.1-1.7-14.4-3.4-23.9-5l-0.1,0l0-0.1
		c-2.4-4.6-4.8-8.9-7.1-12.9c27-3.6,47.8-26.7,47.8-54.6c0-0.5,0-1,0-1.5c1.9,2.9,3.5,6,4.9,9.3c3.5,8.2,5.3,16.9,5.3,25.8
		c0,8.8-1.7,17.4-5.1,25.4c-3.3,7.8-8,14.8-14,20.8c-6,6-13,10.7-20.8,14c-0.7,0.3-1.5,0.6-2.2,0.9
		C178.9,186.6,184.4,180.3,189.5,173.7z M39,39c19.3-7.2,43.9-11.4,66.3-5.9c-4.7,5.9-8.4,12.1-11.2,18.5
		c-3.6,8.6-5.5,17.6-5.5,26.8c0,4.1,0.4,7.9,1.3,11.5c-3.6-0.9-7.4-1.3-11.5-1.3c-9.2,0-18.2,1.8-26.8,5.5
		c-6.4,2.7-12.6,6.5-18.5,11.2C27.7,82.9,31.8,58.4,39,39z M4.5,150c5.9-12.9,14.8-26.6,26.5-37.4c0.5,1.6,1.1,3.3,1.8,4.8
		c3.7,9.3,9.2,17.5,16.2,24.5c3.2,3.2,6.7,5.9,10.2,8c-3.5,2.1-6.9,4.8-10.2,8c-7,7-12.4,15.2-16.2,24.5c-0.6,1.6-1.2,3.2-1.8,4.8
		C19.3,176.6,10.4,162.9,4.5,150z M39,261c-7.2-19.3-11.4-43.9-5.9-66.3c5.9,4.7,12.1,8.4,18.5,11.2c8.6,3.6,17.6,5.5,26.8,5.5
		c4.1,0,7.9-0.4,11.5-1.3c-0.9,3.6-1.3,7.4-1.3,11.5c0,9.2,1.8,18.2,5.5,26.8c2.7,6.4,6.5,12.6,11.2,18.5
		C82.9,272.3,58.4,268.2,39,261z M150,295.5c-12.9-5.9-26.6-14.8-37.4-26.5c1.6-0.5,3.3-1.1,4.8-1.8c9.3-3.7,17.5-9.2,24.5-16.2
		c3.2-3.2,5.9-6.7,8-10.2c2.1,3.5,4.8,6.9,8,10.2c7,7,15.2,12.4,24.5,16.2c1.6,0.6,3.2,1.2,4.8,1.8
		C176.6,280.7,162.9,289.6,150,295.5z M190.3,265.7c-10.7-3.3-20.7-8.8-29.4-17.5c-5.5-5.5-9.1-11.4-10.9-17.3
		c-1.8,5.9-5.5,11.8-10.9,17.3c-8.7,8.7-18.7,14.2-29.4,17.5c-10-12.1-16.9-26.9-16.9-44.1c0-7.2,1.5-13.4,4.2-18.5
		c-5.1,2.7-11.3,4.2-18.5,4.2c-17.3,0-32.1-6.8-44.1-16.9c3.3-10.7,8.8-20.7,17.5-29.4c5.5-5.5,11.4-9.1,17.3-10.9
		c-5.9-1.8-11.8-5.5-17.3-10.9c-8.7-8.7-14.2-18.7-17.5-29.4c12.1-10,26.9-16.9,44.1-16.9c4.6,0,8.8,0.6,12.6,1.8
		c-0.6,0.9-1.1,1.9-1.7,2.8c-0.1,0.2-0.2,0.4-0.4,0.7c-0.8,1.5-1.6,3-2.2,4.5c-0.2,0.4-0.3,0.7-0.5,1.1c-0.3,0.7-0.6,1.4-0.9,2.1
		c-0.2,0.6-0.5,1.2-0.7,1.8c-0.2,0.5-0.3,0.9-0.5,1.4c-0.1,0.4-0.2,0.7-0.4,1.1c0,0.2-0.1,0.3-0.1,0.5c-0.2,0.7-0.4,1.4-0.6,2.1
		c-0.1,0.4-0.2,0.8-0.3,1.2c-1.4,5.6-2.2,11.4-2.2,17.4c0,0,0,0,0,0c0,0,0,0,0,0.1c0,30.1,19.1,55.7,45.9,65.3
		c-0.8,6.8-1.5,13.6-1.8,19.8l-0.2,3.3l3.1-1.3c2.3-1,4.7-2,7.2-3.1l0,0c4.8-2,9.8-4.1,15.2-6.6l0.1,0l0.1,0
		c5.4,2.5,10.4,4.6,15.2,6.6l0.1,0c2.5,1,4.9,2,7.2,3l3.1,1.3l-0.2-3.3c-0.4-6.2-1-13-1.8-19.8c26.7-9.6,45.9-35.3,45.9-65.3
		c0,0,0,0,0-0.1c0,0,0,0,0,0c0-7.8-1.3-15.3-3.7-22.4c-0.1-0.2-0.1-0.4-0.2-0.6c-0.6-1.8-1.3-3.6-2.1-5.3c-0.2-0.4-0.3-0.8-0.5-1.1
		c-0.5-1-1-2.1-1.5-3.1c-0.3-0.5-0.6-1-0.9-1.6c-0.4-0.7-0.8-1.4-1.2-2.1c-0.1-0.2-0.3-0.4-0.4-0.7c3.8-1.2,8-1.8,12.6-1.8
		c17.3,0,32.1,6.8,44.1,16.9c-3.3,10.7-8.8,20.7-17.5,29.4c-5.5,5.5-11.4,9.1-17.3,10.9c5.9,1.8,11.8,5.5,17.3,10.9
		c8.7,8.7,14.2,18.7,17.5,29.4c-12.1,10-26.9,16.9-44.1,16.9c-7.2,0-13.4-1.5-18.5-4.2c2.7,5.1,4.2,11.3,4.2,18.5
		C207.2,238.8,200.4,253.6,190.3,265.7z M261,261c-19.3,7.2-43.9,11.4-66.3,5.9c4.7-5.9,8.4-12.1,11.2-18.5
		c3.6-8.6,5.5-17.6,5.5-26.8c0-4.1-0.4-7.9-1.3-11.5c3.6,0.9,7.4,1.3,11.5,1.3c9.2,0,18.2-1.8,26.8-5.5c6.4-2.7,12.6-6.5,18.5-11.2
		C272.3,217.1,268.2,241.6,261,261z M269,187.4c-0.5-1.6-1.1-3.3-1.8-4.8c-3.7-9.3-9.2-17.5-16.2-24.5c-3.2-3.2-6.7-5.9-10.2-8
		c3.5-2.1,6.9-4.8,10.2-8c7-7,12.4-15.2,16.2-24.5c0.6-1.6,1.2-3.2,1.8-4.8c11.7,10.8,20.6,24.5,26.5,37.4
		C289.6,162.9,280.7,176.6,269,187.4z"/>
	<path class="st11" d="M184.4,173.6c-5.6-1.4-12.6-2.8-20.5-4.2l-2.1-0.4l-1-1.9c-3.6-7-7.4-13.6-10.8-18.7
		c-3.4,5.2-7.1,11.7-10.8,18.7l-1,1.9l-2.1,0.4c-7.9,1.3-14.9,2.8-20.5,4.2c4.5,5.7,9.3,11.1,14.2,16.2l1.4,1.5l-0.3,2.1
		c-0.9,6.9-1.6,13.8-2.1,20.2c1.4-0.6,2.8-1.2,4.2-1.8l0,0c4.8-2,9.7-4.1,15-6.5l1.8-0.8l1.8,0.8c5.3,2.4,10.3,4.5,15.1,6.5l0.1,0
		c1.4,0.6,2.8,1.2,4.1,1.7c-0.5-6.4-1.2-13.3-2.1-20.2l-0.3-2.1l1.4-1.5C175.1,184.7,179.8,179.3,184.4,173.6z"/>
</g>
</svg>
