<svg id="Layer_1" data-name="Layer 1" xmlns="http://www.w3.org/2000/svg" xmlns:xlink="http://www.w3.org/1999/xlink" viewBox="0 0 2000 2000"><defs><style>.cls-1{fill:#f6f7f9;}.cls-2{fill:#262f78;}.cls-3{fill:url(#radial-gradient);}.cls-4{fill:url(#radial-gradient-5);}.cls-5{fill:url(#radial-gradient-9);}.cls-6{fill:url(#radial-gradient-10);}.cls-7{fill:url(#radial-gradient-14);}.cls-8{fill:url(#radial-gradient-15);}.cls-9{fill:url(#radial-gradient-16);}.cls-10{fill:url(#radial-gradient-17);}.cls-11{fill:url(#radial-gradient-21);}.cls-12{fill:url(#radial-gradient-25);}.cls-13{fill:#f4aa34;}.cls-14{fill:#f4ea76;}.cls-15{fill:url(#radial-gradient-26);}.cls-16{fill:url(#radial-gradient-27);}.cls-17{fill:url(#radial-gradient-28);}.cls-18{fill:url(#radial-gradient-29);}.cls-19{fill:url(#radial-gradient-30);}.cls-20{fill:url(#radial-gradient-31);}.cls-21{fill:url(#radial-gradient-32);}.cls-22{fill:url(#radial-gradient-33);}.cls-23{fill:url(#radial-gradient-34);}.cls-24{fill:url(#radial-gradient-35);}.cls-25{fill:url(#radial-gradient-36);}.cls-26{fill:url(#radial-gradient-37);}.cls-27{fill:url(#radial-gradient-38);}</style><radialGradient id="radial-gradient" cx="534.773" cy="474.767" r="1521.389" gradientUnits="userSpaceOnUse"><stop offset="0" stop-color="#f9d45d"/><stop offset="0.238" stop-color="#f9b843"/><stop offset="0.51" stop-color="#f4aa34"/><stop offset="0.855" stop-color="#f47d28"/><stop offset="1" stop-color="#c45b14"/></radialGradient><radialGradient id="radial-gradient-5" cx="531.001" cy="537" r="1368.985" gradientUnits="userSpaceOnUse"><stop offset="0" stop-color="#de1936"/><stop offset="0.529" stop-color="#cc1732"/><stop offset="1" stop-color="#5b070e"/></radialGradient><radialGradient id="radial-gradient-9" cx="615.962" cy="585.959" r="1321.461" gradientUnits="userSpaceOnUse"><stop offset="0" stop-color="#685ecb"/><stop offset="0.212" stop-color="#2e3b88"/><stop offset="0.475" stop-color="#1e276c"/><stop offset="0.69" stop-color="#162158"/><stop offset="0.842" stop-color="#141c4e"/><stop offset="1" stop-color="#141c44"/></radialGradient><radialGradient id="radial-gradient-10" cx="667.001" cy="549" r="1114.086" gradientUnits="userSpaceOnUse"><stop offset="0.085" stop-color="#6a92f1"/><stop offset="0.281" stop-color="#678bea"/><stop offset="0.563" stop-color="#5e79d7"/><stop offset="0.894" stop-color="#4f5bb8"/><stop offset="1" stop-color="#4950ad"/></radialGradient><radialGradient id="radial-gradient-14" cx="750" cy="821.832" r="667.878" gradientUnits="userSpaceOnUse"><stop offset="0" stop-color="#438d55"/><stop offset="0.31" stop-color="#1c7a39"/><stop offset="0.386" stop-color="#1b7738"/><stop offset="0.676" stop-color="#0a5628"/><stop offset="1" stop-color="#063f1f"/></radialGradient><radialGradient id="radial-gradient-15" cx="750" cy="821.832" r="667.878" gradientUnits="userSpaceOnUse"><stop offset="0" stop-color="#063f1f"/><stop offset="1" stop-color="#fff"/></radialGradient><radialGradient id="radial-gradient-16" cx="760.612" cy="856.941" r="622.815" gradientUnits="userSpaceOnUse"><stop offset="0" stop-color="#318b65"/><stop offset="0.272" stop-color="#1c7258"/><stop offset="0.525" stop-color="#1c7258"/><stop offset="1" stop-color="#06402c"/></radialGradient><radialGradient id="radial-gradient-17" cx="661.001" cy="597" r="1207.742" gradientUnits="userSpaceOnUse"><stop offset="0.143" stop-color="#fff"/><stop offset="0.369" stop-color="#f8f9f8"/><stop offset="0.692" stop-color="#e6e7e5"/><stop offset="1" stop-color="#cfd0cd"/></radialGradient><radialGradient id="radial-gradient-21" cx="699.79" cy="702.789" r="1147.767" gradientUnits="userSpaceOnUse"><stop offset="0" stop-color="#fb4470"/><stop offset="0.261" stop-color="#f32c52"/><stop offset="0.498" stop-color="#dc1936"/><stop offset="0.781" stop-color="#cb1732"/><stop offset="0.96" stop-color="#a4131e"/></radialGradient><radialGradient id="radial-gradient-25" cx="513.951" cy="507.951" r="1510.3" gradientUnits="userSpaceOnUse"><stop offset="0" stop-color="#f5f6f6"/><stop offset="0.181" stop-color="#f0f2f1"/><stop offset="0.4" stop-color="#e7eae9"/><stop offset="0.592" stop-color="#cfd0cd"/><stop offset="1" stop-color="#717576"/></radialGradient><radialGradient id="radial-gradient-26" cx="890.505" cy="1045.506" r="248.713" gradientUnits="userSpaceOnUse"><stop offset="0" stop-color="#55564f"/><stop offset="1" stop-color="#717576"/></radialGradient><radialGradient id="radial-gradient-27" cx="963.006" cy="1133.974" r="325.894" gradientTransform="translate(1122.445 -591.949) rotate(39.03) scale(1 1.271)" gradientUnits="userSpaceOnUse"><stop offset="0" stop-color="#f9d45d"/><stop offset="0.208" stop-color="#f9b843"/><stop offset="0.475" stop-color="#f4aa34"/><stop offset="0.763" stop-color="#f87c28"/></radialGradient><radialGradient id="radial-gradient-28" cx="1047.037" cy="513.426" r="349.541" gradientUnits="userSpaceOnUse"><stop offset="0" stop-color="#fff"/><stop offset="0.243" stop-color="#f0f2f1"/><stop offset="0.467" stop-color="#e7eae9"/><stop offset="0.641" stop-color="#cfd0cd"/><stop offset="1" stop-color="#717576"/></radialGradient><radialGradient id="radial-gradient-29" cx="746.094" cy="1545.162" r="402.741" gradientUnits="userSpaceOnUse"><stop offset="0" stop-color="#fff"/><stop offset="0.181" stop-color="#f0f2f1"/><stop offset="0.4" stop-color="#e7eae9"/><stop offset="0.592" stop-color="#cfd0cd"/><stop offset="1" stop-color="#717576"/></radialGradient><radialGradient id="radial-gradient-30" cx="1538.173" cy="1580.863" r="1614.713" gradientUnits="userSpaceOnUse"><stop offset="0" stop-color="#fff"/><stop offset="0.275" stop-color="#f0f2f1"/><stop offset="0.462" stop-color="#e7eae9"/><stop offset="0.641" stop-color="#cfd0cd"/><stop offset="1" stop-color="#717576"/></radialGradient><radialGradient id="radial-gradient-31" cx="1547.461" cy="743.781" r="402.742" xlink:href="#radial-gradient-29"/><radialGradient id="radial-gradient-32" cx="1547.459" cy="1545.163" r="279.124" gradientTransform="translate(-99.654 5418.215) rotate(-135.389) scale(1 2.533)" xlink:href="#radial-gradient-29"/><radialGradient id="radial-gradient-33" cx="1685.013" cy="1144.714" r="356.197" xlink:href="#radial-gradient-29"/><radialGradient id="radial-gradient-34" cx="1083.038" cy="1769.322" r="289.264" xlink:href="#radial-gradient-29"/><radialGradient id="radial-gradient-35" cx="1453.337" cy="1476.424" r="1088.69" xlink:href="#radial-gradient-29"/><radialGradient id="radial-gradient-36" cx="1224.703" cy="928.942" r="612.179" xlink:href="#radial-gradient-29"/><radialGradient id="radial-gradient-37" cx="529.117" cy="1144.712" r="356.196" xlink:href="#radial-gradient-29"/><radialGradient id="radial-gradient-38" cx="1202.581" cy="842.598" r="512.169" gradientUnits="userSpaceOnUse"><stop offset="0" stop-color="#162158"/><stop offset="1" stop-color="#162158"/></radialGradient></defs><title>levant_symbol_gr_grey200</title><rect class="cls-1" width="2000" height="2000"/><path class="cls-2" d="M989.642,1732.754c-76.016-34.6-145.122-84.231-194.977-139.975-37.356,9.771-77.513,14.72-119.511,14.72-92.155,0-173.423-23.186-225.372-42.636l-10.656-3.99-3.991-10.655c-31.963-85.37-46.74-177.081-41.61-258.239a457.206,457.206,0,0,1,13.685-86.655c-55.74-49.854-105.365-118.956-139.964-194.969L262.532,1000l4.714-10.357c34.6-76.013,84.225-145.115,139.964-194.968a457.208,457.208,0,0,1-13.684-86.654c-5.129-81.159,9.649-172.87,41.611-258.238l3.991-10.656,10.655-3.991C501.732,415.685,583,392.5,675.147,392.5c42,0,82.157,4.951,119.516,14.724,49.856-55.746,118.961-105.375,194.982-139.978L1000,262.532l10.357,4.714c76.018,34.6,145.125,84.233,194.978,139.976,37.356-9.771,77.514-14.721,119.516-14.721,92.149,0,173.418,23.186,225.367,42.636l10.655,3.991,3.991,10.655c31.962,85.368,46.739,177.078,41.611,258.239a457.319,457.319,0,0,1-13.686,86.653c55.738,49.855,105.364,118.956,139.964,194.97l4.714,10.356-4.714,10.357c-34.6,76.012-84.225,145.114-139.964,194.967a457.173,457.173,0,0,1,13.684,86.654c5.13,81.16-9.648,172.871-41.611,258.24l-3.991,10.655-10.654,3.99c-51.952,19.451-133.221,42.636-225.365,42.636-42,0-82.157-4.95-119.516-14.724-49.854,55.745-118.96,105.375-194.982,139.978L1000,1737.468Z"/><path class="cls-3" d="M1551.754,454.693,1550,450l-4.689-1.756c-50.866-19.045-130.4-41.747-220.458-41.747-53.1,0-102.731,8.048-147.5,23.92a358.332,358.332,0,0,0-67.35,32V891h100.131a256.581,256.581,0,0,0,47.893-149.561c0-2.313-.031-4.655-.092-6.964l-1.058-39.628,21.326,33.417a330.59,330.59,0,0,1,24.806,46.815A326.75,326.75,0,0,1,1329.477,891h207.469a354.435,354.435,0,0,0,26.865-53.141c16.066-39.719,25.719-83.7,28.692-130.72C1597.511,627.907,1583.04,538.253,1551.754,454.693Z"/><path class="cls-3" d="M721.8,728.264l21.326-33.417-1.057,39.628c-.061,2.309-.092,4.651-.092,6.964A256.581,256.581,0,0,0,789.869,891H890V462.423a358.386,358.386,0,0,0-67.352-32c-44.776-15.874-94.4-23.923-147.5-23.923-90.052,0-169.589,22.7-220.454,41.746L450,450l-1.756,4.689c-31.286,83.56-45.757,173.214-40.75,252.446,2.973,47.022,12.625,91,28.69,130.722A354.534,354.534,0,0,0,463.054,891H670.523a326.76,326.76,0,0,1,26.471-115.921A330.633,330.633,0,0,1,721.8,728.264Z"/><path class="cls-3" d="M1110,1388.629v148.948a358.353,358.353,0,0,0,67.352,32c44.776,15.874,94.4,23.923,147.5,23.923,90.053,0,169.589-22.7,220.455-41.746L1550,1550l1.756-4.688c31.286-83.562,45.758-173.215,40.75-252.448-2.973-47.021-12.625-91-28.691-130.721a354.683,354.683,0,0,0-25.65-51.141"/><path class="cls-3" d="M461.839,1111a354.688,354.688,0,0,0-25.651,51.141c-16.065,39.718-25.718,83.7-28.691,130.72-5.008,79.233,9.463,168.886,40.749,252.447L450,1550l4.689,1.756c50.864,19.044,130.4,41.746,220.458,41.747h0c53.1,0,102.728-8.048,147.5-23.919a358.277,358.277,0,0,0,67.35-32v-148.95"/><path class="cls-4" d="M758.468,1539.592c-19.991,0-87.507-4.532-116.976-62.8-.956-1.89-1.832-3.807-2.619-5.729-1.352,1.578-2.786,3.122-4.289,4.615-20.475,20.353-48.282,31.112-80.415,31.112a162.236,162.236,0,0,1-51.131-8.566l-.947-.32-.313-.949c-7.123-21.561-9.757-44.9-7.415-65.718,2.951-26.243,13.3-48.344,30.746-65.69,1.283-1.276,2.612-2.509,3.973-3.688-1.681-.718-3.347-1.5-4.98-2.339-21.89-11.237-38.452-29.159-49.224-53.27-8.545-19.127-13.116-42.166-12.869-64.871l.012-1,.805-.591c2.334-1.713,4.789-3.413,7.3-5.054l1.078-.7,1.088.691a360.915,360.915,0,0,0,52.211,27.53A322.457,322.457,0,0,0,651.024,1288.1c24.714,0,47.883-3.541,68.865-10.522l3.791-1.262-1.262,3.791c-6.981,20.981-10.522,44.151-10.522,68.865A322.46,322.46,0,0,0,737.75,1475.5a361.566,361.566,0,0,0,28.388,53.578l.7,1.1-.715,1.085c-1.7,2.576-3.473,5.108-5.269,7.525l-.6.8Z"/><path class="cls-4" d="M1239.741,1539.585l-.6-.8c-1.8-2.416-3.568-4.948-5.269-7.526l-.715-1.085.7-1.1a361.428,361.428,0,0,0,28.388-53.578,322.435,322.435,0,0,0,25.855-126.523c0-24.714-3.541-47.884-10.522-68.865l-1.262-3.791,3.791,1.262c20.981,6.981,44.151,10.522,68.865,10.522A322.46,322.46,0,0,0,1475.5,1262.25a360.909,360.909,0,0,0,52.211-27.53l1.088-.691,1.078.7c2.506,1.639,4.961,3.339,7.3,5.054l.805.592.011,1c.247,22.705-4.322,45.743-12.868,64.871-10.772,24.111-27.334,42.033-49.224,53.27-1.633.837-3.3,1.621-4.98,2.339q2.043,1.77,3.973,3.687c17.45,17.347,27.795,39.448,30.746,65.691,2.342,20.818-.292,44.157-7.414,65.718l-.314.949-.947.32a162.246,162.246,0,0,1-51.131,8.566c-32.133,0-59.94-10.759-80.416-31.112-1.5-1.494-2.937-3.038-4.288-4.615-.788,1.924-1.664,3.841-2.62,5.73-29.471,58.27-96.986,62.8-116.976,62.8Z"/><path class="cls-4" d="M1527.71,765.281a360.764,360.764,0,0,0-52.211-27.53A322.432,322.432,0,0,0,1348.976,711.9c-24.714,0-47.884,3.541-68.865,10.522l-3.791,1.262,1.262-3.791c6.981-20.982,10.522-44.151,10.522-68.865A322.44,322.44,0,0,0,1262.249,524.5a361.357,361.357,0,0,0-28.388-53.578l-.7-1.094.717-1.086c1.7-2.581,3.476-5.113,5.268-7.524l.6-.8,1.792-.007c19.99,0,87.5,4.529,116.975,62.8.954,1.888,1.831,3.8,2.618,5.729,1.352-1.576,2.786-3.12,4.289-4.614,20.476-20.353,48.283-31.112,80.416-31.112a162.214,162.214,0,0,1,51.131,8.567l.947.319.314.949c7.122,21.561,9.756,44.9,7.414,65.718-2.951,26.243-13.3,48.344-30.746,65.691-1.282,1.273-2.61,2.506-3.973,3.686,1.681.72,3.347,1.5,4.98,2.341,21.89,11.236,38.452,29.158,49.224,53.269,8.546,19.127,13.115,42.166,12.868,64.872l-.011,1-.805.591c-2.331,1.712-4.786,3.412-7.3,5.054l-1.078.705Z"/><path class="cls-4" d="M470.123,765.266c-2.5-1.637-4.958-3.337-7.3-5.054l-.805-.591-.012-1c-.247-22.706,4.324-45.745,12.869-64.872,10.772-24.111,27.334-42.033,49.224-53.269,1.633-.838,3.3-1.621,4.98-2.341-1.362-1.179-2.691-2.412-3.973-3.686-17.45-17.347-27.8-39.448-30.746-65.691-2.342-20.818.292-44.157,7.415-65.718l.313-.949.947-.319a162.209,162.209,0,0,1,51.131-8.567c32.133,0,59.94,10.759,80.415,31.112,1.5,1.493,2.937,3.037,4.289,4.614.788-1.923,1.664-3.84,2.619-5.729,29.471-58.269,96.984-62.8,116.974-62.8l1.793.007.6.8c1.8,2.416,3.569,4.948,5.27,7.525l.715,1.085-.7,1.1A361.406,361.406,0,0,0,737.751,524.5,322.436,322.436,0,0,0,711.9,651.024c0,24.714,3.541,47.883,10.522,68.865l1.262,3.791-3.791-1.262c-20.982-6.981-44.151-10.522-68.865-10.522A322.457,322.457,0,0,0,524.5,737.75a360.818,360.818,0,0,0-52.211,27.531l-1.088.69Z"/><path class="cls-5" d="M995.441,1720.012c-75.4-34.32-143.763-83.684-192.5-139-28.937-32.843-51.49-68.081-67.032-104.735a324.432,324.432,0,0,1-26.013-127.3c0-24.919,3.633-48.487,10.624-69.5-21.01,6.992-44.577,10.625-69.5,10.625a324.428,324.428,0,0,1-127.3-26.013c-36.655-15.542-71.892-38.1-104.735-67.033-55.314-48.738-104.677-117.1-139-192.5L277.914,1000l2.074-4.558c34.32-75.4,83.683-143.763,139-192.5,32.842-28.937,68.079-51.49,104.734-67.032a324.428,324.428,0,0,1,127.3-26.013c24.188,0,47.1,3.423,67.642,10.018l1.248-1.248c-6.6-20.539-10.018-43.454-10.018-67.642a324.411,324.411,0,0,1,26.014-127.3c15.542-36.655,38.1-71.892,67.032-104.735,48.738-55.314,117.1-104.677,192.5-139l4.557-2.074,4.558,2.074c75.4,34.32,143.763,83.683,192.5,139,28.937,32.842,51.49,68.079,67.032,104.734a324.445,324.445,0,0,1,26.012,127.3c0,24.188-3.423,47.1-10.017,67.642l1.248,1.248c20.538-6.6,43.453-10.018,67.641-10.018A324.416,324.416,0,0,1,1476.28,735.91c36.654,15.542,71.892,38.1,104.735,67.032,55.313,48.738,104.676,117.1,139,192.5l2.074,4.557-2.074,4.558c-34.32,75.4-83.684,143.763-139,192.5-32.843,28.937-68.081,51.49-104.735,67.032a324.433,324.433,0,0,1-127.305,26.013c-24.918,0-48.486-3.633-69.5-10.625,6.992,21.01,10.624,44.578,10.624,69.5a324.448,324.448,0,0,1-26.012,127.3c-15.542,36.654-38.1,71.892-67.033,104.735-48.738,55.313-117.1,104.677-192.5,139l-4.558,2.074Z"/><path class="cls-6" d="M1486.756,1045.507c-19.4-19.4-40.615-34.823-62.436-45.507,21.821-10.684,43.034-26.106,62.436-45.507A347.515,347.515,0,0,0,1536.946,891H1329.477c.207,4.819.332,9.651.332,14.5a328.381,328.381,0,0,1-71.833,205.5h280.185A347.491,347.491,0,0,0,1486.756,1045.507Z"/><path class="cls-6" d="M670.191,905.5c0-4.852.125-9.685.332-14.5H463.054a347.429,347.429,0,0,0,50.19,63.493c19.4,19.4,40.616,34.823,62.436,45.507-21.82,10.684-43.036,26.107-62.436,45.507A347.45,347.45,0,0,0,461.839,1111H742.024a328.4,328.4,0,0,1-71.833-205.5Z"/><path class="cls-6" d="M1110,462.421a347.17,347.17,0,0,0-64.493,50.823c-19.4,19.4-34.824,40.616-45.507,62.436-10.684-21.822-26.106-43.034-45.507-62.436A347.142,347.142,0,0,0,890,462.423V891H789.869A258.176,258.176,0,0,0,972.307,997.974L1000,914.5l27.693,83.474A258.176,258.176,0,0,0,1210.131,891H1110Z"/><path class="cls-6" d="M890,1388.629v148.95a347.251,347.251,0,0,0,64.494-50.823c19.4-19.4,34.823-40.614,45.507-62.436,10.683,21.822,26.105,43.034,45.507,62.436A347.135,347.135,0,0,0,1110,1537.577V1388.629l-110-78.417Z"/><path class="cls-7" d="M1303.005,775.832a330.578,330.578,0,0,0-24.805-46.815L1256.875,695.6l1.057,39.63c.061,2.307.092,4.65.092,6.964,0,142.275-115.749,258.024-258.024,258.024S741.976,884.467,741.976,742.192c0-2.308.031-4.652.092-6.966l1.049-39.616L721.8,729.017a329.9,329.9,0,1,0,608.01,177.24A327.458,327.458,0,0,0,1303.005,775.832Z"/><path class="cls-8" d="M1303.005,775.832a330.578,330.578,0,0,0-24.805-46.815L1256.875,695.6l1.057,39.63c.061,2.307.092,4.65.092,6.964,0,142.275-115.749,258.024-258.024,258.024S741.976,884.467,741.976,742.192c0-2.308.031-4.652.092-6.966l1.049-39.616L721.8,729.017a329.9,329.9,0,1,0,608.01,177.24A327.458,327.458,0,0,0,1303.005,775.832Z"/><path class="cls-9" d="M1000,1222.066A315.966,315.966,0,0,1,709.85,781.375,317.54,317.54,0,0,1,728,745.673c1.871,148.4,123.17,268.544,272,268.544s270.131-120.148,272-268.544a317.428,317.428,0,0,1,18.145,35.7A315.7,315.7,0,0,1,1000,1222.066Z"/><path class="cls-10" d="M1424.32,1000H1316.063a327.9,327.9,0,0,1-58.087,111h280.185a347.491,347.491,0,0,0-51.4-65.493C1467.354,1026.105,1446.141,1010.684,1424.32,1000Z"/><path class="cls-10" d="M670.523,891H463.054a347.429,347.429,0,0,0,50.19,63.493c19.4,19.4,40.616,34.823,62.436,45.507H683.936a328.894,328.894,0,0,1-13.745-94.5C670.191,900.652,670.316,895.819,670.523,891Z"/><path class="cls-10" d="M972.307,997.974,1000,914.5V575.68c-10.684-21.822-26.106-43.034-45.507-62.436A347.142,347.142,0,0,0,890,462.423V891H789.869A258.176,258.176,0,0,0,972.307,997.974Z"/><path class="cls-10" d="M1000,1424.323c10.684,21.82,26.105,43.032,45.506,62.433A347.135,347.135,0,0,0,1110,1537.577V1388.629l-110-78.416Z"/><path class="cls-11" d="M709.9,1348.976c0-24.919,3.633-48.487,10.624-69.5-21.01,6.992-44.577,10.625-69.5,10.625a324.428,324.428,0,0,1-127.3-26.013,361.454,361.454,0,0,1-52.5-27.683q-3.741,2.447-7.209,4.992c-.433,39.789,13.951,92.187,61.006,116.34a75.737,75.737,0,0,0,7.929,3.518,76.1,76.1,0,0,0-6.425,5.707c-37.511,37.288-35.324,91.579-22.842,129.363,37.708,12.707,91.986,15.219,129.5-22.069a75.417,75.417,0,0,0,6.334-7.13,75.5,75.5,0,0,0,3.769,8.761c23.871,47.2,76.181,61.895,115.972,61.7q2.649-3.564,5.2-7.434a362.18,362.18,0,0,1-28.545-53.876A324.432,324.432,0,0,1,709.9,1348.976Z"/><path class="cls-11" d="M1348.975,1290.1c-24.918,0-48.486-3.633-69.5-10.625,6.992,21.01,10.624,44.578,10.624,69.5a324.448,324.448,0,0,1-26.012,127.3,362.18,362.18,0,0,1-28.545,53.876q2.548,3.863,5.2,7.434c39.792.2,92.1-14.5,115.973-61.7a75.487,75.487,0,0,0,3.768-8.761,75.291,75.291,0,0,0,6.335,7.13c37.511,37.288,91.789,34.776,129.5,22.069,12.482-37.784,14.669-92.075-22.842-129.363a76.1,76.1,0,0,0-6.425-5.707,75.83,75.83,0,0,0,7.929-3.518c47.055-24.153,61.439-76.551,61.005-116.34q-3.459-2.539-7.208-4.992a361.454,361.454,0,0,1-52.5,27.683A324.433,324.433,0,0,1,1348.975,1290.1Z"/><path class="cls-11" d="M1290.1,651.024c0,24.919-3.632,48.486-10.624,69.5,21.01-6.992,44.578-10.625,69.5-10.625A324.416,324.416,0,0,1,1476.28,735.91a361.648,361.648,0,0,1,52.5,27.682q3.741-2.445,7.208-4.992c.434-39.79-13.95-92.187-61.005-116.34a75.83,75.83,0,0,0-7.929-3.518,76.1,76.1,0,0,0,6.425-5.707c37.511-37.288,35.324-91.579,22.842-129.363-37.708-12.707-91.986-15.219-129.5,22.069a75.291,75.291,0,0,0-6.335,7.13,75.487,75.487,0,0,0-3.768-8.761c-23.871-47.2-76.181-61.9-115.973-61.7q-2.648,3.564-5.2,7.434a362.13,362.13,0,0,1,28.545,53.876A324.445,324.445,0,0,1,1290.1,651.024Z"/><path class="cls-11" d="M651.024,709.9c24.918,0,48.486,3.633,69.5,10.625-6.991-21.011-10.624-44.579-10.624-69.5a324.411,324.411,0,0,1,26.014-127.3,362.08,362.08,0,0,1,28.544-53.876q-2.548-3.863-5.2-7.434c-39.791-.2-92.1,14.5-115.972,61.7a75.5,75.5,0,0,0-3.769,8.761,75.417,75.417,0,0,0-6.334-7.13c-37.511-37.288-91.789-34.776-129.5-22.069-12.482,37.784-14.669,92.075,22.842,129.363a76.1,76.1,0,0,0,6.425,5.707,75.737,75.737,0,0,0-7.929,3.518c-47.055,24.153-61.439,76.55-61.006,116.34q3.46,2.539,7.208,4.992a361.516,361.516,0,0,1,52.5-27.683A324.428,324.428,0,0,1,651.024,709.9Z"/><path class="cls-12" d="M1730.023,990.887c-34.717-76.27-84.62-145.523-140.616-195.195a451.986,451.986,0,0,0,14.074-87.859c5.1-80.748-9.608-172.018-41.425-257l-3.512-9.377-9.377-3.512c-51.717-19.363-132.614-42.445-224.315-42.445-42.553,0-82.948,5.085-120.537,15.1-49.671-56-118.926-105.9-195.2-140.622L1000,265.828l-9.114,4.149C914.614,304.694,845.358,354.6,795.684,410.6c-37.592-10.016-77.988-15.1-120.537-15.1-91.7,0-172.6,23.082-224.311,42.445l-9.378,3.511-3.511,9.378c-31.818,84.98-46.53,176.25-41.426,257a451.92,451.92,0,0,0,14.072,87.86c-56,49.672-105.9,118.923-140.616,195.194L265.828,1000l4.149,9.113c34.716,76.272,84.619,145.524,140.616,195.2a451.91,451.91,0,0,0-14.073,87.859c-5.1,80.746,9.607,172.016,41.425,257l3.512,9.377,9.377,3.512c51.717,19.363,132.614,42.444,224.32,42.445,42.55,0,82.944-5.085,120.531-15.1,49.673,56,118.928,105.9,195.2,140.621l9.115,4.149,9.113-4.149c76.274-34.717,145.529-84.623,195.2-140.624,37.592,10.015,77.988,15.1,120.537,15.1,91.695,0,172.593-23.081,224.312-42.444l9.377-3.512,3.512-9.377c31.817-84.981,46.529-176.252,41.426-257a451.961,451.961,0,0,0-14.073-87.859c56-49.672,105.9-118.924,140.616-195.194l4.149-9.114Zm-310.54,18.993c20.916,10.24,40.933,24.844,59.5,43.405a337.511,337.511,0,0,1,49.781,63.424,345.161,345.161,0,0,1,24.855,49.557q6.009,14.854,10.777,30.524c-29.252,24.333-60.283,43.553-92.4,57.174a313.49,313.49,0,0,1-123.01,25.14c-23.747,0-45.96-3.385-66.023-10.062L1262.1,1262.1l6.938,20.849c6.677,20.063,10.062,42.276,10.062,66.023a313.49,313.49,0,0,1-25.14,123.01c-13.62,32.122-32.841,63.153-57.176,92.406q-7.977-2.433-15.76-5.183a348.647,348.647,0,0,1-65.29-31.018,337.244,337.244,0,0,1-62.453-49.213c-18.561-18.562-33.165-38.579-43.405-59.5l-9.88-20.178-9.879,20.178c-10.241,20.916-24.845,40.933-43.406,59.5a337.366,337.366,0,0,1-62.454,49.216,348.516,348.516,0,0,1-65.287,31.018q-7.778,2.757-15.761,5.183c-24.335-29.253-43.555-60.286-57.176-92.409a313.491,313.491,0,0,1-25.141-123.01c0-23.747,3.386-45.96,10.062-66.023l6.937-20.848-20.848,6.937c-20.063,6.677-42.277,10.062-66.023,10.062a313.483,313.483,0,0,1-123.01-25.14c-32.121-13.62-63.151-32.84-92.405-57.176q4.773-15.654,10.777-30.523a344.994,344.994,0,0,1,24.855-49.556,337.493,337.493,0,0,1,49.781-63.424c18.561-18.56,38.578-33.164,59.5-43.406L600.694,1000l-20.177-9.879c-20.918-10.243-40.935-24.847-59.495-43.406a337.557,337.557,0,0,1-48.6-61.487,344.807,344.807,0,0,1-26.032-51.494q-6.009-14.855-10.777-30.524c29.252-24.334,60.283-43.553,92.405-57.173A313.484,313.484,0,0,1,651.024,720.9a214.09,214.09,0,0,1,57.718,7.529,342.292,342.292,0,0,0-21.849,42.3,338.036,338.036,0,0,0-27.36,119.8c-.23,5.364-.342,10.262-.342,14.975a339.236,339.236,0,0,0,61.063,194.709H695.906l185.653,137.456-69.252,219.854L1000,1323.721l187.694,133.8-69.254-219.854,185.654-137.456h-24.349A339.223,339.223,0,0,0,1340.809,905.5c0-4.718-.113-9.617-.342-14.975a338,338,0,0,0-27.361-119.8,342.066,342.066,0,0,0-21.849-42.3,214.057,214.057,0,0,1,57.719-7.53,313.484,313.484,0,0,1,123.01,25.141c32.122,13.621,63.153,32.84,92.4,57.175q-4.773,15.653-10.777,30.522a344.775,344.775,0,0,1-26.033,51.5,337.552,337.552,0,0,1-48.6,61.486c-18.563,18.562-38.58,33.165-59.5,43.406L1399.305,1000ZM720.9,651.024a313.484,313.484,0,0,1,25.141-123.01c13.62-32.122,32.84-63.153,57.175-92.406q7.977,2.435,15.76,5.183a348.6,348.6,0,0,1,65.289,31.017,337.307,337.307,0,0,1,62.454,49.214c18.561,18.561,33.165,38.579,43.406,59.5L1000,600.694l9.879-20.177c10.242-20.917,24.846-40.934,43.406-59.495a337.305,337.305,0,0,1,62.454-49.217,348.488,348.488,0,0,1,65.287-31.016q7.777-2.759,15.761-5.183c24.335,29.253,43.556,60.284,57.177,92.408a313.483,313.483,0,0,1,25.14,123.01,218.962,218.962,0,0,1-5.461,49.652l-28.823-45.165,2.116,79.257c.058,2.213.088,4.457.088,6.671a245.031,245.031,0,0,1-45.846,143.17,247.511,247.511,0,0,1-165.889,101.327l-28.05-84.548L1000,879.565l-10.651,32.1-24.638,74.266a247.515,247.515,0,0,1-165.89-101.327,245.039,245.039,0,0,1-45.845-143.17c0-2.214.029-4.458.088-6.67l2.115-79.257-28.823,45.163A219.017,219.017,0,0,1,720.9,651.024Zm10.176,83.158h0c-.064,2.407-.1,4.849-.1,7.257a269.353,269.353,0,0,0,226.71,265.674l-30.887,93.1H747.541A317.344,317.344,0,0,1,681.191,905.5c0-4.4.105-8.986.322-14.033A316.1,316.1,0,0,1,707.1,779.435,319.58,319.58,0,0,1,731.072,734.182Zm342.128,366.03-30.886-93.1a269.353,269.353,0,0,0,226.71-265.674c0-2.408-.032-4.85-.1-7.257a319.471,319.471,0,0,1,23.977,45.253,316.093,316.093,0,0,1,25.581,112.037c.217,5.042.323,9.632.323,14.032a317.327,317.327,0,0,1-66.35,194.709Zm468.251-641.663h0c30.754,82.138,44.986,170.175,40.073,247.9a435.356,435.356,0,0,1-10.834,73.532c-28.628-22.742-58.854-40.938-90.117-54.194a335.353,335.353,0,0,0-131.6-26.887,241.525,241.525,0,0,0-53.68,5.808,241.531,241.531,0,0,0,5.808-53.68,335.37,335.37,0,0,0-26.886-131.6c-13.254-31.26-31.448-61.483-54.187-90.108A451.766,451.766,0,0,1,1324.852,417.5C1413.26,417.5,1491.438,439.823,1541.451,458.549ZM1000,290c70.041,31.881,133.831,76.926,180.93,127.576-2.429.808-4.853,1.625-7.256,2.477a370.549,370.549,0,0,0-69.414,32.984,359.359,359.359,0,0,0-66.532,52.429A257.089,257.089,0,0,0,1000,552.878a257.08,257.08,0,0,0-37.729-47.412,359.3,359.3,0,0,0-66.533-52.427,370.619,370.619,0,0,0-69.415-32.983c-2.4-.852-4.826-1.669-7.255-2.477C866.169,366.927,929.961,321.88,1000,290ZM458.55,458.548h0c50.014-18.726,128.191-41.048,216.6-41.048a451.694,451.694,0,0,1,104.821,11.82c-22.738,28.626-40.932,58.848-54.185,90.1a335.358,335.358,0,0,0-26.887,131.6A241.531,241.531,0,0,0,704.7,704.7a241.472,241.472,0,0,0-53.68-5.808,335.37,335.37,0,0,0-131.6,26.886c-31.263,13.256-61.488,31.452-90.116,54.194a435.267,435.267,0,0,1-10.833-73.533C413.564,628.725,427.8,540.687,458.55,458.548ZM290,1000c31.879-70.038,76.923-133.827,127.572-180.926q3.877,11.664,8.419,22.91a366.844,366.844,0,0,0,27.7,54.789,359.533,359.533,0,0,0,51.776,65.5A257.089,257.089,0,0,0,552.878,1000a257.089,257.089,0,0,0-47.412,37.729,359.437,359.437,0,0,0-53.029,67.562,367.081,367.081,0,0,0-26.446,52.725q-4.545,11.239-8.419,22.91C366.923,1133.827,321.879,1070.037,290,1000Zm385.149,582.5c-88.409,0-166.587-22.323-216.6-41.049h0c-30.754-82.139-44.986-170.178-40.072-247.894a435.267,435.267,0,0,1,10.833-73.533c28.629,22.743,58.855,40.939,90.117,54.2a335.37,335.37,0,0,0,131.6,26.886A241.48,241.48,0,0,0,704.7,1295.3a241.415,241.415,0,0,0-5.805,53.677,335.374,335.374,0,0,0,26.886,131.6c13.255,31.26,31.449,61.483,54.187,90.108A451.745,451.745,0,0,1,675.149,1582.5ZM1000,1710c-70.039-31.879-133.83-76.925-180.93-127.575,2.429-.808,4.853-1.625,7.256-2.477a370.685,370.685,0,0,0,69.413-32.984h0a359.383,359.383,0,0,0,66.532-52.429A257.08,257.08,0,0,0,1000,1447.122a257.038,257.038,0,0,0,37.729,47.412,359.33,359.33,0,0,0,66.533,52.427,370.656,370.656,0,0,0,69.415,32.984c2.4.852,4.826,1.669,7.255,2.477C1133.83,1633.074,1070.039,1678.12,1000,1710Zm541.452-168.549h0c-50.016,18.726-128.195,41.048-216.6,41.048a451.694,451.694,0,0,1-104.821-11.82c22.738-28.626,40.932-58.848,54.186-90.106a335.374,335.374,0,0,0,26.886-131.6,241.474,241.474,0,0,0-5.805-53.677,241.474,241.474,0,0,0,53.677,5.805,335.374,335.374,0,0,0,131.6-26.886c31.263-13.256,61.489-31.452,90.116-54.194a435.237,435.237,0,0,1,10.833,73.533C1586.436,1371.274,1572.2,1459.313,1541.451,1541.451Zm40.977-360.523q-3.876-11.666-8.419-22.912a367.186,367.186,0,0,0-26.446-52.725,359.5,359.5,0,0,0-53.029-67.562A257.038,257.038,0,0,0,1447.122,1000a257.1,257.1,0,0,0,47.412-37.729,359.549,359.549,0,0,0,51.776-65.5,366.88,366.88,0,0,0,27.7-54.788q4.545-11.24,8.419-22.91c50.649,47.1,95.693,110.889,127.572,180.927C1678.121,1070.039,1633.078,1133.828,1582.428,1180.928Z"/><path class="cls-13" d="M1135.5,853.61h0V796.179a90,90,0,0,1,90-90h0V763.61A90,90,0,0,1,1135.5,853.61Z"/><path class="cls-14" d="M1135.5,853.492V796.179a90,90,0,0,1,89.874-90C1220.889,736.628,1203.4,805,1135.5,853.492Z"/><path class="cls-13" d="M1135.5,706.475h0V649.044a90,90,0,0,1,90-90h0v57.431A90,90,0,0,1,1135.5,706.475Z"/><path class="cls-14" d="M1135.5,706.357V649.044a90,90,0,0,1,89.874-90C1220.889,589.493,1203.4,657.868,1135.5,706.357Z"/><path class="cls-13" d="M864.5,853.61h0V796.179a90,90,0,0,0-90-90h0V763.61A90,90,0,0,0,864.5,853.61Z"/><path class="cls-14" d="M864.5,853.492V796.179a90,90,0,0,0-89.874-90C779.111,736.628,796.6,805,864.5,853.492Z"/><path class="cls-13" d="M864.5,706.475h0V649.044a90,90,0,0,0-90-90h0v57.431A90,90,0,0,0,864.5,706.475Z"/><path class="cls-14" d="M864.5,706.357V649.044a90,90,0,0,0-89.874-90C779.111,589.493,796.6,657.868,864.5,706.357Z"/><polygon class="cls-15" points="902.583 1228.138 750.467 1115.514 939.793 1115.513 1000 934.032 1060.206 1115.513 1249.533 1115.514 1097.417 1228.138 1154.378 1408.967 1000 1298.916 845.623 1408.968 902.583 1228.138"/><polygon class="cls-16" points="904.918 1227.217 756.529 1117.351 941.236 1117.35 1000 940.221 1058.763 1117.35 1243.471 1117.351 1095.081 1227.217 1150.676 1403.71 1000 1296.298 849.325 1403.711 904.918 1227.217"/><path class="cls-17" d="M1000,555.752l-1.28-2.091a256.154,256.154,0,0,0-37.509-47.135,357.833,357.833,0,0,0-66.255-52.207,369.176,369.176,0,0,0-69.134-32.85c-2.569-.91-5.1-1.758-7.228-2.467l-2.214-.736,1.589-1.709C865.12,365.85,929.547,320.42,999.38,288.635l.621-.283.622.283c69.832,31.786,134.257,77.215,181.406,127.919l1.588,1.708L1181.4,419c-2.166.721-4.719,1.577-7.228,2.468a369.062,369.062,0,0,0-69.133,32.849,357.9,357.9,0,0,0-66.254,52.21,256.162,256.162,0,0,0-37.51,47.135ZM821.758,416.9c1.595.536,3.319,1.126,5.066,1.744a372.263,372.263,0,0,1,69.7,33.118,360.819,360.819,0,0,1,66.811,52.646A260.5,260.5,0,0,1,1000,550.029a260.5,260.5,0,0,1,36.668-45.624,360.841,360.841,0,0,1,66.81-52.648,372.094,372.094,0,0,1,69.7-33.118c1.715-.608,3.449-1.2,5.066-1.745-46.6-49.583-109.782-93.992-178.239-125.246C931.544,322.9,868.359,367.311,821.758,416.9Z"/><path class="cls-18" d="M675.149,1584c-88.634,0-167-22.375-217.127-41.145l-.639-.239-.24-.639c-30.827-82.334-45.091-170.591-40.165-248.515a438.183,438.183,0,0,1,10.872-73.785l.547-2.293,1.845,1.465c28.532,22.665,58.735,40.829,89.769,53.989A333.9,333.9,0,0,0,651.024,1299.6a240.487,240.487,0,0,0,53.343-5.767l2.327-.531-.531,2.328a240.5,240.5,0,0,0-5.767,53.342,333.881,333.881,0,0,0,26.767,131.013c13.159,31.034,31.321,61.234,53.98,89.761l1.466,1.845-2.292.546A454.313,454.313,0,0,1,675.149,1584Zm-215.436-43.715C509.638,1558.917,587.342,1581,675.149,1581a452.618,452.618,0,0,0,102.181-11.238c-22.147-28.191-39.949-57.991-52.929-88.6a336.868,336.868,0,0,1-27-132.185,244.779,244.779,0,0,1,5.329-51.7,244.8,244.8,0,0,1-51.7,5.329A336.867,336.867,0,0,1,518.84,1275.6c-30.612-12.979-60.413-30.785-88.611-52.936a436.474,436.474,0,0,0-10.257,70.988C415.085,1370.957,429.2,1458.522,459.713,1540.284Z"/><path class="cls-19" d="M428.4,782.616l-.546-2.293a438.213,438.213,0,0,1-10.872-73.785c-4.925-77.925,9.34-166.183,40.166-248.516l.239-.639.64-.24C508.153,438.374,586.514,416,675.147,416a454.262,454.262,0,0,1,105.169,11.861l2.293.546-1.467,1.846c-22.66,28.528-40.821,58.727-53.979,89.757A333.889,333.889,0,0,0,700.4,651.024a240.565,240.565,0,0,0,5.77,53.346l.531,2.327-2.327-.531a240.538,240.538,0,0,0-53.346-5.77,333.9,333.9,0,0,0-131.013,26.766c-31.038,13.162-61.24,31.326-89.768,53.988Zm31.319-322.9C429.2,541.474,415.087,629.04,419.973,706.348a436.5,436.5,0,0,0,10.257,70.989c28.193-22.149,58-39.954,88.61-52.936a336.864,336.864,0,0,1,132.184-27,244.785,244.785,0,0,1,51.7,5.332,244.871,244.871,0,0,1-5.332-51.7A336.847,336.847,0,0,1,724.4,518.84c12.977-30.609,30.78-60.407,52.927-88.6A452.607,452.607,0,0,0,675.147,419C587.341,419,509.638,441.081,459.716,459.713Z"/><path class="cls-20" d="M1571.6,782.617l-1.844-1.465c-28.531-22.664-58.733-40.829-89.77-53.989A333.881,333.881,0,0,0,1348.975,700.4a240.571,240.571,0,0,0-53.346,5.77l-2.327.531.531-2.327a240.505,240.505,0,0,0,5.77-53.346,333.9,333.9,0,0,0-26.766-131.013c-13.159-31.033-31.32-61.232-53.981-89.76l-1.466-1.845,2.293-.547A454.3,454.3,0,0,1,1324.851,416c88.634,0,167,22.374,217.126,41.143l.639.24.24.639c30.826,82.331,45.091,170.589,40.166,248.516a438.24,438.24,0,0,1-10.873,73.786ZM1348.975,697.4A336.852,336.852,0,0,1,1481.16,724.4c30.612,12.98,60.415,30.785,88.61,52.936a436.505,436.505,0,0,0,10.258-70.988c4.887-77.31-9.227-164.876-39.742-246.635C1490.363,441.082,1412.66,419,1324.851,419a452.663,452.663,0,0,0-102.181,11.237c22.147,28.193,39.95,57.992,52.928,88.6A336.867,336.867,0,0,1,1302.6,651.024a244.806,244.806,0,0,1-5.332,51.7A244.885,244.885,0,0,1,1348.975,697.4Z"/><path class="cls-21" d="M1324.852,1584a454.24,454.24,0,0,1-105.168-11.862l-2.293-.546,1.466-1.845c22.66-28.528,40.821-58.728,53.98-89.759a333.909,333.909,0,0,0,26.766-131.013,240.487,240.487,0,0,0-5.767-53.343l-.531-2.327,2.327.531a240.487,240.487,0,0,0,53.343,5.767,333.909,333.909,0,0,0,131.013-26.766c31.039-13.161,61.242-31.326,89.77-53.988l1.844-1.465.547,2.293a438.07,438.07,0,0,1,10.871,73.785c4.925,77.924-9.339,166.182-40.164,248.515l-.24.639-.639.24C1491.845,1561.626,1413.481,1584,1324.852,1584Zm-102.181-14.24A452.6,452.6,0,0,0,1324.852,1581c87.8,0,165.506-22.081,215.433-40.713,30.514-81.762,44.627-169.327,39.741-246.636a436.46,436.46,0,0,0-10.256-70.988c-28.193,22.149-57.995,39.954-88.61,52.935a336.879,336.879,0,0,1-132.185,27.005,244.807,244.807,0,0,1-51.7-5.329,244.807,244.807,0,0,1,5.329,51.7A336.879,336.879,0,0,1,1275.6,1481.16C1262.62,1511.768,1244.818,1541.566,1222.671,1569.76Z"/><path class="cls-22" d="M1581.741,1183.615l-.736-2.214c-2.584-7.775-5.406-15.454-8.387-22.823a365.627,365.627,0,0,0-26.337-52.509,358.026,358.026,0,0,0-52.808-67.28,256.088,256.088,0,0,0-47.134-37.51l-2.091-1.279,2.091-1.28a256.148,256.148,0,0,0,47.134-37.509,358.074,358.074,0,0,0,51.56-65.226,365.359,365.359,0,0,0,27.585-54.564c2.981-7.371,5.8-15.049,8.386-22.82l.736-2.215,1.709,1.589c50.7,47.147,96.129,111.571,127.916,181.4l.283.621-.283.622c-31.784,69.829-77.212,134.253-127.915,181.4ZM1449.971,1000a260.454,260.454,0,0,1,45.623,36.668,360.971,360.971,0,0,1,53.251,67.844,368.635,368.635,0,0,1,26.554,52.941c2.721,6.726,5.311,13.708,7.709,20.786,49.586-46.6,93.989-109.78,125.243-178.238-31.257-68.462-75.66-131.642-125.244-178.239-2.4,7.075-4.986,14.056-7.708,20.784a368.407,368.407,0,0,1-27.812,55.013,361.121,361.121,0,0,1-51.993,65.773A260.536,260.536,0,0,1,1449.971,1000Z"/><path class="cls-23" d="M1000,1711.648l-.621-.283c-69.83-31.784-134.255-77.214-181.407-127.919l-1.589-1.709L818.6,1581c2.13-.708,4.655-1.555,7.229-2.467a369.268,369.268,0,0,0,69.132-32.85,357.93,357.93,0,0,0,66.255-52.211,256.106,256.106,0,0,0,37.509-47.134l1.28-2.091,1.279,2.091a256.088,256.088,0,0,0,37.51,47.134,357.824,357.824,0,0,0,66.255,52.208,369.259,369.259,0,0,0,69.133,32.85c2.485.881,4.943,1.706,7.228,2.468l2.213.736-1.588,1.708c-47.152,50.707-111.578,96.137-181.41,127.922ZM821.76,1583.107c46.6,49.584,109.784,93.992,178.238,125.244,68.456-31.253,131.642-75.662,178.243-125.248-1.624-.547-3.359-1.139-5.065-1.744a372.208,372.208,0,0,1-69.7-33.119,360.846,360.846,0,0,1-66.811-52.646A260.454,260.454,0,0,1,1000,1449.971a260.444,260.444,0,0,1-36.668,45.623,360.854,360.854,0,0,1-66.811,52.648,372.211,372.211,0,0,1-69.695,33.12C825.077,1581.982,823.353,1582.571,821.76,1583.107Z"/><path class="cls-24" d="M802.7,1566.12l-.638-.767c-24.445-29.386-43.759-60.6-57.4-92.781a314.99,314.99,0,0,1-25.26-123.6c0-23.908,3.411-46.28,10.138-66.5l5.992-18.005-18,5.991c-20.216,6.727-42.588,10.138-66.5,10.138a314.973,314.973,0,0,1-123.6-25.259c-32.178-13.644-63.393-32.958-92.778-57.4l-.766-.638.29-.953c3.2-10.5,6.842-20.81,10.821-30.648a346.605,346.605,0,0,1,24.964-49.772,338.978,338.978,0,0,1,50-63.706c18.677-18.676,38.829-33.377,59.9-43.692L597.282,1000l-17.425-8.532c-21.066-10.315-41.218-25.015-59.895-43.693a339.046,339.046,0,0,1-48.821-61.76A346.378,346.378,0,0,1,445,834.3c-3.978-9.836-7.619-20.148-10.821-30.65l-.29-.953.766-.638c29.384-24.444,60.6-43.756,92.778-57.4a314.981,314.981,0,0,1,123.6-25.26,215.8,215.8,0,0,1,58.122,7.585l1.906.533-1.029,1.691a341.314,341.314,0,0,0-21.753,42.112,336.54,336.54,0,0,0-27.239,119.276c-.229,5.342-.34,10.22-.34,14.911a337.718,337.718,0,0,0,60.793,193.85l1.645,2.359H700.452L883.311,1237.1l-68.228,216.6L1000,1321.879l.87.62,184.048,131.2-68.23-216.6.86-.635,182-134.751H1276.87l1.644-2.359a337.706,337.706,0,0,0,60.794-193.85c0-4.685-.111-9.563-.34-14.911a336.522,336.522,0,0,0-27.239-119.275,340.893,340.893,0,0,0-21.754-42.113l-1.029-1.69,1.906-.534a215.8,215.8,0,0,1,58.123-7.585,314.982,314.982,0,0,1,123.6,25.26c32.178,13.644,63.393,32.957,92.777,57.4l.767.638-.291.953c-3.2,10.5-6.842,20.811-10.82,30.648a346.422,346.422,0,0,1-26.147,51.718,339.073,339.073,0,0,1-48.82,61.76c-18.679,18.679-38.831,33.38-59.9,43.693L1402.716,1000l17.427,8.533h0c21.066,10.312,41.217,25.013,59.9,43.691a339.059,339.059,0,0,1,50,63.706,346.825,346.825,0,0,1,24.964,49.773c3.978,9.836,7.619,20.147,10.82,30.649l.291.953-.767.638c-29.383,24.443-60.6,43.756-92.777,57.4a314.988,314.988,0,0,1-123.6,25.259c-23.909,0-46.282-3.411-66.5-10.138l-18.006-5.992,5.992,18.006c6.727,20.214,10.138,42.587,10.138,66.5a314.988,314.988,0,0,1-25.259,123.6c-13.643,32.176-32.957,63.391-57.4,92.778l-.638.767-.953-.291c-5.438-1.658-10.762-3.409-15.823-5.2a350.134,350.134,0,0,1-65.571-31.153,338.709,338.709,0,0,1-62.732-49.432c-18.678-18.679-33.379-38.83-43.691-59.9L1000,1402.716l-8.532,17.426c-10.314,21.066-25.014,41.217-43.692,59.9a338.846,338.846,0,0,1-62.733,49.435,350,350,0,0,1-65.569,31.153c-5.057,1.792-10.38,3.543-15.824,5.2Zm-62.433-306.384-7.883,23.691c-6.625,19.909-9.985,41.963-9.985,65.548A312.022,312.022,0,0,0,747.417,1471.4c13.411,31.629,32.356,62.331,56.312,91.268,5.068-1.561,10.024-3.2,14.743-4.87a347.059,347.059,0,0,0,65.006-30.883,336,336,0,0,0,62.177-49c18.443-18.445,32.95-38.326,43.118-59.093L1000,1395.893l11.227,22.931c10.167,20.767,24.674,40.648,43.118,59.093a335.836,335.836,0,0,0,62.175,49,347.232,347.232,0,0,0,65.009,30.883c4.724,1.674,9.678,3.311,14.742,4.87,23.957-28.938,42.9-59.639,56.312-91.265a312.014,312.014,0,0,0,25.02-122.425c0-23.587-3.359-45.64-9.984-65.548l-7.884-23.692,23.692,7.884c19.908,6.625,41.961,9.984,65.548,9.984a312.014,312.014,0,0,0,122.425-25.02c31.629-13.412,62.33-32.356,91.264-56.31-3.105-10.088-6.615-19.989-10.441-29.445a343.558,343.558,0,0,0-24.747-49.341,336.05,336.05,0,0,0-49.559-63.142c-18.445-18.444-38.326-32.951-59.093-43.118L1395.893,1000l22.931-11.227c20.767-10.167,40.647-24.675,59.093-43.119a336.012,336.012,0,0,0,48.386-61.213,343.232,343.232,0,0,0,25.92-51.269c3.826-9.457,7.336-19.358,10.441-29.444-28.936-23.956-59.637-42.9-91.264-56.31A312,312,0,0,0,1348.975,722.4a214.016,214.016,0,0,0-55.408,6.951,344.083,344.083,0,0,1,20.916,40.783,339.481,339.481,0,0,1,27.483,120.334c.23,5.392.342,10.312.342,15.04a340.685,340.685,0,0,1-59.7,193.209h26.035l-188.448,139.525,70.278,223.106L1000,1325.562,809.53,1461.344l70.277-223.106L691.359,1098.713h26.035a340.729,340.729,0,0,1-59.7-193.209c0-4.734.112-9.654.343-15.04a339.545,339.545,0,0,1,27.481-120.335,344.323,344.323,0,0,1,20.917-40.782,213.984,213.984,0,0,0-55.408-6.951A312.019,312.019,0,0,0,528.6,747.417c-31.628,13.411-62.329,32.354-91.263,56.309,3.1,10.088,6.615,19.989,10.441,29.446A343.229,343.229,0,0,0,473.7,884.441a336,336,0,0,0,48.388,61.213c18.443,18.443,38.325,32.95,59.094,43.119L604.105,1000l-22.928,11.226c-20.77,10.169-40.652,24.677-59.1,43.119a336.033,336.033,0,0,0-49.559,63.142,343.54,343.54,0,0,0-24.746,49.34c-3.827,9.458-7.337,19.359-10.441,29.444,28.935,23.956,59.636,42.9,91.263,56.312a312.01,312.01,0,0,0,122.425,25.02c23.586,0,45.64-3.359,65.549-9.984Z"/><path class="cls-25" d="M1034.26,987.6,1000,884.329,965.739,987.6l-1.242-.178c-66.667-9.6-127.5-46.754-166.9-101.941a246.526,246.526,0,0,1-46.125-144.041c0-2.232.031-4.489.09-6.711l1.97-73.852L725.7,704.486l-.808-3.471a220.92,220.92,0,0,1-5.5-49.991,314.974,314.974,0,0,1,25.26-123.6c13.643-32.177,32.956-63.392,57.4-92.779l.638-.766.953.291c5.442,1.659,10.765,3.41,15.824,5.2a350.111,350.111,0,0,1,65.57,31.151,338.753,338.753,0,0,1,62.732,49.434c18.678,18.677,33.378,38.828,43.693,59.895L1000,597.283l8.532-17.426c10.316-21.067,25.017-41.219,43.693-59.9a338.827,338.827,0,0,1,62.733-49.436,350.064,350.064,0,0,1,65.568-31.151c5.044-1.788,10.368-3.539,15.824-5.2l.953-.291.638.766c24.445,29.386,43.76,60.6,57.4,92.782a314.973,314.973,0,0,1,25.259,123.6,220.853,220.853,0,0,1-5.5,49.992l-.808,3.471-27.832-43.612,1.971,73.853c.059,2.241.089,4.5.089,6.711A246.518,246.518,0,0,1,1202.4,885.48c-39.4,55.186-100.227,92.343-166.895,101.941ZM756.822,650.148l-2.258,84.66c-.059,2.2-.089,4.426-.089,6.631a243.542,243.542,0,0,0,45.567,142.3c38.68,54.181,98.267,90.771,163.641,100.532L1000,874.8l36.316,109.468c65.375-9.762,124.962-46.352,163.641-100.532a243.542,243.542,0,0,0,45.567-142.3c0-2.186-.029-4.418-.089-6.632l-2.258-84.66,29.789,46.678a220.128,220.128,0,0,0,4.637-45.8,312.01,312.01,0,0,0-25.02-122.425c-13.411-31.629-32.356-62.331-56.312-91.267-5.08,1.564-10.036,3.2-14.744,4.87a347.074,347.074,0,0,0-65.006,30.883,335.859,335.859,0,0,0-62.176,49c-18.442,18.443-32.95,38.325-43.12,59.1L1000,604.105l-11.226-22.929c-10.168-20.769-24.676-40.65-43.119-59.093a335.814,335.814,0,0,0-62.176-49A347.158,347.158,0,0,0,818.47,442.2c-4.72-1.673-9.675-3.309-14.742-4.869-23.957,28.936-42.9,59.638-56.31,91.264A312,312,0,0,0,722.4,651.024a220.078,220.078,0,0,0,4.638,45.8Z"/><path class="cls-26" d="M418.26,1183.613l-1.709-1.589c-50.7-47.148-96.132-111.573-127.916-181.4l-.283-.622.283-.621c31.784-69.83,77.212-134.254,127.916-181.4l1.709-1.589L419,818.6c2.583,7.77,5.4,15.448,8.387,22.822a365.359,365.359,0,0,0,27.585,54.564,358.08,358.08,0,0,0,51.559,65.226,256.121,256.121,0,0,0,47.135,37.509l2.091,1.28-2.091,1.279a256.162,256.162,0,0,0-47.135,37.51,357.959,357.959,0,0,0-52.807,67.28,365.523,365.523,0,0,0-26.337,52.509c-2.983,7.375-5.805,15.053-8.387,22.82ZM291.648,1000c31.255,68.46,75.658,131.64,125.244,178.239,2.4-7.071,4.986-14.053,7.708-20.784a368.738,368.738,0,0,1,26.554-52.941,360.918,360.918,0,0,1,53.251-67.844A260.5,260.5,0,0,1,550.029,1000a260.542,260.542,0,0,1-45.624-36.668,361.049,361.049,0,0,1-51.992-65.773A368.508,368.508,0,0,1,424.6,842.546c-2.722-6.731-5.311-13.712-7.708-20.785C367.306,868.36,322.9,931.54,291.648,1000Z"/><path class="cls-27" d="M1135.5,854.61h-1V796.179q0-1.177.029-2.348l.012-.284c.018-.682.043-1.368.077-2.051l.008-.107c.035-.707.082-1.459.139-2.209l.039-.441c.05-.622.1-1.242.165-1.859l.148-1.308c.036-.327.072-.653.113-.977.034-.263.072-.524.109-.786l.1-.74c.034-.248.068-.5.106-.742.045-.3.1-.6.146-.9l.127-.765c.032-.2.064-.392.1-.587.049-.277.1-.554.158-.832l.131-.682c.045-.24.09-.48.139-.719s.1-.49.158-.735l.141-.648c.059-.277.118-.553.182-.828s.128-.534.194-.8l.138-.565c.065-.275.131-.55.2-.823.08-.317.168-.634.256-.952l.16-.593c.056-.208.111-.416.169-.622.085-.3.175-.6.265-.894l.374-1.252c.111-.361.229-.717.347-1.074l.342-1.052c.118-.348.241-.693.365-1.037l.375-1.064c.129-.353.263-.7.4-1.05l.39-1.024c.163-.411.329-.814.5-1.217l.343-.839c.2-.47.406-.937.613-1.4l.273-.623c.179-.395.363-.787.548-1.178l.389-.827c.2-.426.418-.85.631-1.274l.346-.7c.255-.5.517-.988.78-1.477l.246-.468c.265-.489.538-.971.811-1.453l.263-.471c.292-.508.594-1.014.9-1.518l.215-.363c.309-.509.623-1.006.938-1.5l.227-.365c.328-.512.666-1.021,1.006-1.528l.195-.3c.33-.49.668-.973,1.008-1.456l.239-.343c.382-.539.77-1.069,1.162-1.6l.122-.168q.6-.8,1.217-1.591l.121-.154c.4-.516.823-1.035,1.247-1.551l.114-.142q.635-.771,1.289-1.526l.119-.141c.452-.524.912-1.04,1.377-1.553l.069-.079q.7-.772,1.42-1.528c.546-.574,1.034-1.073,1.526-1.566.556-.56,1.057-1.048,1.562-1.531a90.655,90.655,0,0,1,62.755-25.227h.007v1l.045-1,1.017-.018.064,1.017V763.61A91.1,91.1,0,0,1,1135.5,854.61Zm23.276-118.828.741.67c-.453.5-.9,1.008-1.345,1.519l-.121.144c-.421.488-.843.985-1.258,1.488l-.112.14q-.621.756-1.226,1.524l-.116.15c-.4.507-.793,1.025-1.185,1.548l-.118.162c-.386.519-.766,1.037-1.138,1.562l-.235.339c-.332.471-.662.943-.984,1.422l-.188.286c-.336.5-.666,1-.989,1.5l-.22.352c-.309.487-.616.975-.916,1.468l-.211.357c-.3.5-.592.99-.879,1.489l-.256.457c-.269.474-.534.944-.793,1.421l-.24.456c-.26.483-.515.962-.763,1.446l-.34.685c-.208.413-.417.827-.617,1.245l-.38.809c-.181.382-.361.765-.536,1.151l-.267.61c-.2.455-.4.911-.6,1.369l-.338.826c-.162.394-.325.787-.482,1.184l-.385,1.011c-.131.339-.261.678-.387,1.019l-.369,1.048c-.12.335-.239.67-.353,1.007l-.338,1.037c-.114.346-.228.691-.336,1.039l-.369,1.237c-.087.287-.174.575-.256.864-.056.195-.107.391-.159.587l-.166.612c-.084.306-.168.611-.247.919-.069.264-.131.527-.194.79l-.142.583c-.064.256-.127.512-.187.77s-.118.528-.174.792l-.144.665c-.052.234-.105.468-.151.7s-.091.457-.133.685l-.135.7c-.052.265-.1.53-.151.8l-.223,1.337c-.049.287-.1.575-.142.863-.036.238-.068.473-.1.709l-.107.757c-.036.25-.072.5-.1.751-.04.314-.074.63-.11.945l-.146,1.291c-.061.6-.112,1.21-.161,1.818l-.039.435c-.055.729-.1,1.466-.139,2.2s-.062,1.4-.08,2.067l-.011.271c-.019.768-.029,1.533-.029,2.3V852.6a89.1,89.1,0,0,0,88-88.994V707.186a88.593,88.593,0,0,0-60.446,24.609c-.554.53-1.043,1.008-1.527,1.491-.542.547-1.019,1.034-1.488,1.527-.532.562-1,1.059-1.454,1.564Z"/><path class="cls-27" d="M1135.5,707.475h-1V649.044c0-.784.01-1.568.029-2.348l.01-.267c.042-1.489.118-2.962.226-4.384l.039-.44c.05-.622.1-1.242.165-1.86l.148-1.306c.036-.326.072-.653.113-.978.033-.254.069-.508.105-.761l.1-.741c.036-.256.071-.511.11-.766.048-.314.1-.627.154-.94l.109-.66c.036-.217.071-.434.109-.649.05-.279.1-.557.159-.837l.13-.677c.045-.24.09-.48.139-.719s.1-.489.158-.735l.139-.642c.06-.279.12-.557.184-.834s.126-.526.191-.789l.141-.576c.065-.275.131-.551.2-.824.082-.32.17-.642.259-.964l.157-.581c.056-.207.111-.415.169-.621.087-.3.178-.607.269-.909l.37-1.238c.105-.339.216-.673.326-1.008l.362-1.116c.1-.286.2-.569.3-.851l.245-.7c.065-.187.13-.374.2-.559.126-.345.258-.687.39-1.029l.4-1.044c.143-.365.292-.724.44-1.082l.4-.973c.179-.422.365-.841.55-1.261l.335-.762c.185-.408.374-.809.564-1.21l.372-.794c.182-.38.371-.755.559-1.13l.422-.846c.249-.488.508-.972.767-1.457l.258-.488c.255-.472.52-.938.785-1.4l.289-.518c.289-.5.588-1,.887-1.5l.223-.379c.3-.493.6-.975.909-1.457l.256-.41c.326-.51.661-1.014,1-1.517l.2-.31c.329-.489.667-.973,1.007-1.454l.239-.344c.37-.52.744-1.032,1.122-1.541l.163-.222c.4-.536.8-1.062,1.213-1.585l.119-.155c.4-.506.8-1.009,1.215-1.509l.153-.192c.407-.494.823-.984,1.242-1.471l.168-.2c.434-.5.878-1,1.325-1.5l.118-.133q.7-.771,1.417-1.524l.078-.083c.469-.494.958-.992,1.449-1.486.557-.56,1.058-1.049,1.564-1.532.551-.528,1.055-1,1.561-1.46l.093-.085q.807-.733,1.63-1.448.805-.7,1.627-1.378a91.174,91.174,0,0,1,57.843-20.855l1,0,.132,1v57.431A91.1,91.1,0,0,1,1135.5,707.475Zm30.2-124.348-.092.084q-.786.716-1.554,1.449c-.554.531-1.043,1.008-1.526,1.492l-.071.073c-.472.473-.948.96-1.418,1.454-.534.563-1,1.06-1.453,1.562l-.114.129q-.657.728-1.3,1.466l-.166.2c-.406.472-.812.951-1.212,1.436l-.147.183c-.4.493-.8.985-1.192,1.482l-.115.15q-.6.765-1.185,1.546l-.159.218c-.372.5-.738,1-1.1,1.508l-.234.338c-.332.472-.662.944-.984,1.422l-.2.3c-.33.494-.657.987-.977,1.486l-.25.4c-.3.472-.6.945-.887,1.423l-.22.371c-.294.49-.585.979-.869,1.473l-.281.5c-.26.457-.519.913-.769,1.374l-.252.478c-.252.472-.5.946-.75,1.424l-.416.833c-.182.364-.366.729-.542,1.1l-.367.784c-.185.391-.37.782-.549,1.177l-.329.751c-.181.408-.362.817-.537,1.229l-.391.957c-.145.35-.289.7-.429,1.052l-.392,1.029c-.128.332-.256.664-.379,1l-.436,1.236c-.1.273-.194.545-.287.819l-.359,1.1c-.106.325-.213.649-.315.977l-.365,1.221c-.088.292-.176.585-.26.879-.056.195-.107.391-.159.587l-.162.6c-.086.309-.171.619-.251.93-.069.265-.131.528-.194.79l-.145.594c-.063.253-.125.506-.184.759s-.119.532-.176.8l-.142.659c-.052.234-.105.468-.151.7s-.091.457-.133.685l-.134.694c-.052.268-.105.535-.152.8-.038.206-.07.411-.1.616l-.112.676c-.052.3-.1.605-.15.909-.037.244-.07.488-.1.733l-.107.756c-.034.242-.069.483-.1.726-.04.316-.075.632-.11.948l-.146,1.289c-.061.6-.112,1.21-.161,1.817l-.039.435c-.106,1.387-.179,2.828-.22,4.278l-.01.265c-.019.768-.029,1.533-.029,2.3V705.47a89.1,89.1,0,0,0,88-88.995V560.052a89.191,89.191,0,0,0-55.661,20.356c-.574.477-1.106.926-1.631,1.381Q1166.448,582.449,1165.7,583.127Z"/><path class="cls-27" d="M865.5,854.61h-1a91.1,91.1,0,0,1-91-91V705.179h1.126a90.61,90.61,0,0,1,62.7,25.168c.565.541,1.066,1.031,1.561,1.527.523.524,1.025,1.038,1.521,1.559.544.575,1.02,1.083,1.486,1.6l-.672.749.741-.672q.7.769,1.377,1.553l.066.079c.488.567.918,1.075,1.342,1.588l.116.144c.423.516.842,1.034,1.254,1.559l.07.091c.452.579.859,1.109,1.258,1.643l.067.091c.449.606.837,1.137,1.217,1.673l.241.346c.338.482.676.965,1.006,1.453l.2.3q.51.762,1.007,1.531l.226.364q.472.742.934,1.5l.217.366c.3.508.606,1.013.9,1.523l.262.467c.273.484.546.966.809,1.453l.248.469c.291.544.539,1.008.779,1.477l.347.7c.213.424.427.848.633,1.276l.341.729c.2.424.4.848.594,1.274l.232.533c.221.5.44.992.653,1.492l.4.975c.148.359.3.718.439,1.079l.384,1.007c.137.355.273.711.4,1.07l.412,1.166c.111.311.222.623.328.937l.342,1.05c.118.357.236.713.347,1.073.06.191.116.385.174.579l.175.589c.1.326.2.652.29.981l.352,1.3c.08.289.159.578.235.869.062.246.122.493.18.739l.179.732c.06.239.119.478.175.719s.11.5.164.749l.316,1.46c.044.218.085.435.126.651l.158.828c.049.251.1.5.144.753.037.209.071.418.1.628l.108.649c.056.324.11.647.16.973.036.239.068.477.1.716l.1.712c.04.279.081.559.116.839.041.324.078.65.114.977l.147,1.306c.063.618.114,1.238.166,1.859l.038.445q.087,1.12.144,2.256c.038.74.061,1.424.081,2.109l.011.278c.02.786.03,1.569.03,2.354Zm-90-147.424V763.61a89.1,89.1,0,0,0,88,88.994V796.179q0-1.154-.029-2.3l-.011-.275c-.019-.671-.042-1.341-.076-2.009-.041-.8-.088-1.533-.144-2.267l-.038-.432c-.05-.605-.1-1.213-.162-1.818l-.146-1.29c-.035-.315-.069-.631-.109-.945-.034-.269-.072-.536-.111-.8l-.1-.731c-.031-.228-.061-.455-.1-.682-.048-.314-.1-.627-.155-.94l-.11-.667q-.047-.3-.1-.592c-.043-.241-.091-.481-.137-.723l-.594-2.9q-.077-.36-.157-.718c-.053-.229-.11-.458-.166-.686l-.183-.747c-.057-.237-.113-.473-.174-.708-.072-.28-.148-.558-.225-.837l-.348-1.282c-.09-.319-.186-.633-.28-.948l-.181-.605c-.053-.182-.107-.365-.163-.546-.11-.35-.223-.695-.337-1.041l-.338-1.037c-.1-.3-.21-.606-.317-.907l-.407-1.15c-.127-.348-.259-.693-.392-1.038l-.379-.991c-.138-.352-.282-.7-.426-1.05l-.394-.961c-.205-.486-.421-.971-.637-1.456l-.23-.525c-.186-.413-.381-.827-.577-1.24l-.336-.717c-.2-.417-.409-.831-.617-1.244l-.34-.682c-.235-.462-.477-.914-.719-1.367l-.285-.537c-.258-.479-.525-.949-.792-1.42l-.256-.457c-.288-.5-.583-1-.878-1.489l-.213-.36c-.3-.492-.606-.979-.914-1.464l-.223-.358c-.321-.5-.651-1-.983-1.5l-.192-.292c-.323-.478-.653-.95-.985-1.421l-.234-.336c-.374-.528-.752-1.046-1.136-1.562l-.076-.105c-.436-.583-.833-1.1-1.236-1.615l.678-.76-.787.617c-.4-.513-.814-1.021-1.227-1.525l-.077-.1c-.449-.545-.871-1.042-1.3-1.536l-.072-.086c-.487-.564-.937-1.069-1.392-1.571l-.068-.077q-.686-.756-1.39-1.5c-.548-.576-1.038-1.08-1.535-1.578s-.991-.98-1.486-1.454A88.642,88.642,0,0,0,775.5,707.186Z"/><path class="cls-27" d="M865.5,707.475h-1a91.1,91.1,0,0,1-91-91V558.044l1.126,0a91.146,91.146,0,0,1,57.808,20.821c.588.487,1.131.946,1.667,1.412s1.093.959,1.631,1.448,1.071.986,1.6,1.486c.565.541,1.065,1.031,1.561,1.528.523.522,1.024,1.038,1.521,1.559l.073.077c.473.5.946,1.006,1.411,1.52l.071.077c.5.551.938,1.049,1.376,1.553l.167.2c.417.485.833.975,1.241,1.47l.1.125c.463.567.87,1.069,1.269,1.578l.071.093c.454.582.86,1.109,1.257,1.642l.166.227c.376.506.752,1.018,1.119,1.536l.241.346c.338.482.676.965,1.006,1.453l.2.306c.339.509.674,1.013,1,1.523l.254.409c.306.482.611.965.907,1.453l.227.385c.3.5.6,1,.888,1.5l.35.625c.243.43.486.862.722,1.3l.258.487c.259.484.518.968.768,1.457l.421.846c.189.375.377.75.56,1.128l.366.785c.192.4.384.81.568,1.219l.336.764c.185.42.371.839.549,1.261l.413,1.008c.144.347.289.7.426,1.046l.4,1.045c.132.342.263.684.389,1.029l.4,1.144c.113.319.227.638.336.959.064.19.126.383.187.576l.187.572c.107.326.213.651.315.979.06.189.116.384.174.577l.17.572c.1.332.2.664.3,1l.35,1.288c.08.292.16.584.237.878q.093.369.18.74l.181.74q.088.354.173.709c.057.252.111.5.165.755l.315,1.456c.044.218.085.435.126.652l.157.821c.05.253.1.505.145.759l.224,1.349c.051.3.1.6.148.9.038.248.071.494.105.741l.1.7c.039.274.079.548.114.823.041.327.078.654.114.98l.147,1.3c.063.618.114,1.238.166,1.859l.038.445c.107,1.4.183,2.871.226,4.372l.01.27q.03,1.181.03,2.355Zm-90-147.424v56.424a89.1,89.1,0,0,0,88,89V649.044q0-1.152-.029-2.3l-.011-.269c-.041-1.47-.115-2.911-.22-4.281l-.038-.432c-.05-.606-.1-1.213-.162-1.818l-.146-1.288c-.034-.316-.069-.632-.109-.947-.033-.263-.071-.527-.109-.79l-.1-.72c-.032-.236-.064-.473-.1-.708-.044-.288-.093-.576-.142-.865l-.222-1.335c-.044-.24-.091-.483-.138-.725l-.592-2.894c-.052-.242-.1-.484-.158-.724s-.109-.451-.164-.677l-.185-.756c-.057-.236-.113-.473-.174-.708-.072-.282-.15-.564-.227-.846l-.346-1.272c-.092-.325-.189-.645-.285-.965l-.176-.588c-.053-.182-.107-.365-.163-.546-.1-.319-.2-.633-.306-.946l-.192-.591c-.058-.181-.115-.362-.177-.542-.105-.312-.215-.62-.325-.928l-.4-1.131c-.122-.333-.25-.665-.378-1l-.392-1.029c-.135-.342-.275-.679-.413-1.016l-.407-.993c-.175-.412-.356-.821-.538-1.229l-.329-.751c-.179-.4-.366-.794-.552-1.189l-.362-.773c-.176-.367-.36-.732-.543-1.1l-.415-.831c-.246-.479-.5-.953-.752-1.426l-.252-.478c-.23-.425-.468-.845-.706-1.266l-.343-.614c-.283-.491-.575-.981-.868-1.468l-.221-.375c-.29-.478-.589-.95-.887-1.422l-.251-.4c-.318-.5-.647-.99-.976-1.483l-.2-.306c-.32-.472-.65-.945-.982-1.417l-.234-.336c-.361-.509-.727-1.009-1.1-1.507l-.158-.217c-.392-.525-.788-1.04-1.188-1.551l-.062-.082c-.443-.564-.841-1.057-1.242-1.546l-.149-.185c-.4-.486-.808-.965-1.217-1.442l-.165-.2c-.424-.489-.858-.977-1.3-1.462l-.068-.076c-.5-.555-.966-1.052-1.433-1.544l-.071-.076c-.48-.5-.971-1.007-1.468-1.5s-.991-.98-1.486-1.454l-.072-.071c-.5-.473-1.016-.956-1.539-1.433s-1.062-.955-1.6-1.421-1.057-.9-1.593-1.348A89.175,89.175,0,0,0,775.5,560.051Z"/></svg>