<?xml version="1.0" encoding="utf-8"?>
<!-- Generator: Adobe Illustrator 22.0.0, SVG Export Plug-In . SVG Version: 6.00 Build 0)  -->
<svg version="1.1" id="Layer_1" xmlns="http://www.w3.org/2000/svg" xmlns:xlink="http://www.w3.org/1999/xlink" x="0px" y="0px"
	 viewBox="0 0 1091 1091" style="enable-background:new 0 0 1091 1091;" xml:space="preserve">
<style type="text/css">
	.st0{fill:#F6F7F9;}
	.st1{fill:#E3F9FF;}
	.st2{fill:none;stroke:#6A92F1;stroke-width:2;stroke-miterlimit:10;}
	.st3{fill:#FFFFFF;}
	.st4{fill:#262F78;}
	.st5{fill:#F9B843;}
	.st6{fill:#212F70;}
	.st7{opacity:0;}
	.st8{fill:#6A92F1;}
	.st9{fill:#5D8FFF;}
	.st10{fill:#318A65;}
	.st11{fill:#EDEEEF;}
	.st12{fill:#DC1936;}
	.st13{fill:none;}
	.st14{fill:none;stroke:#FFFFFF;stroke-width:4.0865;stroke-miterlimit:10;}
	.st15{fill:#F3A934;}
	.st16{fill:#F8D35D;}
	.st17{fill:#192450;}
	.st18{fill:none;stroke:#6A92F1;stroke-width:0.5;stroke-miterlimit:10;}
	.st19{fill:none;stroke:#6A92F1;stroke-width:0.5;stroke-miterlimit:10;stroke-dasharray:6.0045,6.0045;}
	.st20{fill:none;stroke:#FFFFFF;stroke-width:6.7928;stroke-miterlimit:10;}
	.st21{fill:none;stroke:#6A92F1;stroke-width:0.5;stroke-miterlimit:10;stroke-dasharray:6,6;}
</style>
<rect x="-450" y="-1580" class="st0" width="1950" height="1405"/>
<rect x="2" y="2" class="st0" width="1088" height="1088"/>
<rect x="1228.48" y="-447.041" class="st1" width="271.783" height="271.783"/>
<rect x="-449.778" y="-447.041" class="st1" width="271.783" height="271.783"/>
<rect x="1228.48" y="-1580.041" class="st1" width="271.783" height="271.783"/>
<rect x="-449.778" y="-1580.041" class="st1" width="271.783" height="271.783"/>
<rect x="1912" y="-1323" class="st0" width="1929" height="656"/>
<rect x="1912" y="-1323" class="st2" width="1929" height="659"/>
<rect x="1912.419" y="-1322.685" class="st1" width="164.081" height="164.081"/>
<rect x="3676.5" y="-1322.685" class="st1" width="164.081" height="164.081"/>
<rect x="1912.419" y="-830.734" class="st1" width="164.081" height="164.081"/>
<rect x="3676.5" y="-830.734" class="st1" width="164.081" height="164.081"/>
<rect x="2076.5" y="-1158.604" class="st3" width="327.87" height="327.87"/>
<rect x="252.742" y="-1307.783" class="st3" width="545" height="545"/>
<g>
	<path class="st4" d="M2403.899-995.703c-7.792-17.118-18.999-32.639-31.557-43.704c-0.304-0.268-0.611-0.53-0.917-0.793
		c1.879-6.599,3.061-13.615,3.525-20.957c1.137-17.988-2.148-38.342-9.251-57.313l-0.399-1.064l-1.064-0.399
		c-11.548-4.324-29.606-9.478-50.051-9.478c-10.011,0-19.475,1.264-28.217,3.754c-0.264-0.307-0.527-0.615-0.796-0.92
		c-11.064-12.558-26.585-23.765-43.703-31.557l-1.035-0.471l-1.035,0.471c-17.118,7.792-32.639,18.999-43.704,31.556
		c-0.269,0.305-0.532,0.613-0.796,0.92c-8.744-2.491-18.207-3.755-28.217-3.755c-20.445,0-38.501,5.154-50.05,9.478l-1.064,0.399
		l-0.399,1.065c-7.103,18.971-10.388,39.325-9.251,57.313c0.464,7.342,1.646,14.358,3.525,20.957
		c-0.306,0.263-0.613,0.525-0.917,0.793c-12.558,11.065-23.765,26.586-31.557,43.703l-0.471,1.035l0.471,1.035
		c7.792,17.118,18.999,32.639,31.556,43.704c0.304,0.268,0.611,0.53,0.917,0.793c-1.879,6.599-3.061,13.615-3.525,20.957
		c-1.137,17.988,2.148,38.342,9.251,57.313l0.399,1.064l1.064,0.399c11.548,4.324,29.605,9.478,50.051,9.478c0.001,0,0,0,0.001,0
		c10.01,0,19.474-1.264,28.216-3.754c0.264,0.307,0.527,0.615,0.796,0.92c11.065,12.558,26.585,23.765,43.703,31.556l1.034,0.471
		l1.035-0.471c17.118-7.792,32.639-18.999,43.704-31.556c0.269-0.305,0.532-0.613,0.796-0.92c8.744,2.491,18.207,3.755,28.217,3.755
		c20.445,0,38.502-5.154,50.05-9.478l1.064-0.399l0.398-1.064c7.103-18.971,10.388-39.325,9.251-57.313
		c-0.464-7.342-1.646-14.358-3.525-20.957c0.306-0.263,0.613-0.525,0.917-0.793c12.558-11.065,23.765-26.586,31.557-43.703
		l0.471-1.035L2403.899-995.703z"/>
	<g>
		<g>
			<path class="st5" d="M2365.699-1118.47l-0.399-1.064l-1.064-0.399c-11.548-4.324-29.606-9.478-50.051-9.478
				c-12.056,0-23.323,1.827-33.487,5.431c-5.414,1.919-10.52,4.348-15.29,7.265v97.3h22.733
				c6.842-9.584,10.873-21.307,10.873-33.955c0-0.525-0.007-1.057-0.021-1.581l-0.24-8.997l4.842,7.587
				c2.146,3.362,4.041,6.938,5.632,10.628c3.605,8.361,5.619,17.199,6.01,26.318h47.102c2.351-3.814,4.39-7.84,6.099-12.065
				c3.647-9.017,5.839-19.002,6.514-29.677C2376.088-1079.145,2372.802-1099.499,2365.699-1118.47z"/>
			<path class="st5" d="M2177.275-1056.361l4.842-7.587l-0.24,8.997c-0.014,0.524-0.021,1.056-0.021,1.581
				c0,12.648,4.031,24.37,10.873,33.955h22.733v-97.3c-4.771-2.917-9.877-5.346-15.291-7.265
				c-10.166-3.604-21.432-5.431-33.487-5.431c-20.445,0-38.501,5.154-50.05,9.478l-1.064,0.399l-0.399,1.065
				c-7.103,18.971-10.388,39.325-9.251,57.313c0.675,10.675,2.866,20.66,6.513,29.678c1.709,4.225,3.749,8.251,6.099,12.065h47.102
				c0.391-9.118,2.404-17.957,6.01-26.318C2173.235-1049.423,2175.13-1052.999,2177.275-1056.361z"/>
		</g>
	</g>
	<g>
		<path class="st5" d="M2265.408-906.439v33.816c4.77,2.917,9.877,5.346,15.291,7.265c10.166,3.604,21.432,5.431,33.487,5.431
			c20.445,0,38.502-5.154,50.05-9.478l1.064-0.399l0.398-1.064c7.103-18.971,10.388-39.325,9.251-57.313
			c-0.675-10.675-2.866-20.66-6.513-29.678c-1.641-4.058-3.59-7.931-5.823-11.61"/>
		<path class="st5" d="M2118.256-969.469c-2.234,3.679-4.182,7.552-5.823,11.61c-3.647,9.017-5.839,19.002-6.514,29.677
			c-1.137,17.988,2.148,38.342,9.251,57.313l0.399,1.064l1.064,0.399c11.548,4.324,29.605,9.478,50.051,9.478c0.001,0,0,0,0.001,0
			c12.055,0,23.322-1.827,33.486-5.43c5.414-1.919,10.52-4.348,15.291-7.265v-33.816"/>
	</g>
	<path class="st6" d="M2239.4-831.205c-17.118-7.792-32.639-18.999-43.703-31.556c-6.57-7.456-11.69-15.456-15.218-23.778
		c-3.919-9.242-5.906-18.966-5.906-28.902c0-5.657,0.825-11.008,2.412-15.778c-4.77,1.587-10.12,2.412-15.778,2.412
		c-9.936,0-19.66-1.987-28.902-5.906c-8.322-3.529-16.322-8.649-23.778-15.219c-12.558-11.065-23.765-26.586-31.556-43.704
		l-0.471-1.035l0.471-1.035c7.792-17.118,18.998-32.638,31.557-43.703c7.456-6.57,15.456-11.69,23.778-15.218
		c9.242-3.919,18.966-5.906,28.902-5.906c5.491,0,10.694,0.777,15.357,2.274c0.131-0.131,0.152-0.152,0.283-0.283
		c-1.497-4.663-2.274-9.865-2.274-15.357c0-9.936,1.987-19.66,5.906-28.902c3.529-8.322,8.649-16.322,15.219-23.778
		c11.065-12.558,26.586-23.765,43.704-31.556l1.035-0.471l1.035,0.471c17.118,7.792,32.639,18.998,43.703,31.557
		c6.57,7.456,11.69,15.456,15.218,23.778c3.919,9.242,5.906,18.966,5.906,28.902c0,5.492-0.777,10.694-2.274,15.357
		c0.131,0.131,0.153,0.152,0.283,0.283c4.663-1.497,9.865-2.274,15.357-2.274c9.936,0,19.66,1.987,28.902,5.906
		c8.322,3.528,16.322,8.649,23.778,15.218c12.558,11.065,23.765,26.586,31.557,43.704l0.471,1.035l-0.471,1.035
		c-7.792,17.118-18.999,32.639-31.557,43.703c-7.456,6.57-15.456,11.69-23.778,15.218c-9.242,3.919-18.966,5.906-28.902,5.906
		c-5.657,0-11.008-0.825-15.778-2.412c1.587,4.77,2.412,10.12,2.412,15.778c0,9.936-1.987,19.66-5.906,28.902
		c-3.528,8.321-8.649,16.322-15.219,23.778c-11.065,12.558-26.586,23.765-43.704,31.556l-1.035,0.471L2239.4-831.205z"/>
	<polygon class="st7" points="2240.435,-1014.08 2255.251,-969.42 2301.904,-969.42 2264.408,-941.659 2278.425,-897.16 
		2240.435,-924.242 2202.445,-897.16 2216.462,-941.659 2178.966,-969.42 2225.619,-969.42 	"/>
	<g>
		<g>
			<path class="st8" d="M2309.428-986.977c-2.673,6.32-6.169,12.181-10.425,17.509h63.61c-3.277-5.398-7.176-10.374-11.67-14.869
				c-4.405-4.405-9.221-7.906-14.175-10.331c4.954-2.425,9.77-5.927,14.175-10.331c4.369-4.369,8.175-9.191,11.395-14.415h-47.102
				c0.047,1.094,0.075,2.191,0.075,3.293C2315.311-1006.013,2313.332-996.208,2309.428-986.977z"/>
			<path class="st8" d="M2165.559-1016.122c0-1.102,0.028-2.199,0.075-3.293h-47.102c3.22,5.223,7.026,10.046,11.395,14.415
				c4.404,4.404,9.221,7.906,14.175,10.331c-4.954,2.425-9.77,5.927-14.175,10.331c-4.495,4.495-8.393,9.471-11.671,14.869h63.61
				c-4.256-5.328-7.751-11.189-10.425-17.509C2167.538-996.208,2165.559-1006.013,2165.559-1016.122z"/>
			<path class="st8" d="M2246.722-995.129c17.052-1.828,31.936-11.003,41.419-24.286h-22.733v-97.3
				c-5.311,3.248-10.206,7.102-14.642,11.538c-4.404,4.404-7.906,9.221-10.331,14.175c-2.426-4.954-5.927-9.77-10.332-14.175
				c-4.436-4.436-9.331-8.29-14.642-11.538v97.3h-22.733c9.483,13.283,24.367,22.458,41.419,24.286l6.287-18.951L2246.722-995.129z"
				/>
			<path class="st9" d="M2240.435-1014.08"/>
		</g>
		<path class="st8" d="M2215.462-906.439v33.816c5.311-3.248,10.206-7.102,14.642-11.538c4.405-4.405,7.906-9.221,10.332-14.175
			c2.425,4.954,5.927,9.77,10.331,14.175c4.436,4.436,9.331,8.29,14.642,11.538v-33.816l-24.973-17.803L2215.462-906.439z"/>
	</g>
	<path class="st10" d="M2309.226-1045.562c-1.591-3.691-3.486-7.267-5.631-10.629l-4.842-7.587l0.24,8.997
		c0.014,0.524,0.021,1.056,0.021,1.581c0,32.301-26.278,58.579-58.579,58.579s-58.579-26.279-58.579-58.579
		c0-0.524,0.007-1.056,0.021-1.582l0.238-8.994l-4.84,7.584c-2.146,3.363-4.041,6.938-5.632,10.628
		c-4.038,9.364-6.085,19.326-6.085,29.61c0,10.109,1.979,19.915,5.884,29.145c3.771,8.916,9.17,16.924,16.047,23.801
		c6.877,6.877,14.885,12.276,23.801,16.047c9.23,3.904,19.036,5.883,29.145,5.883c10.109,0,19.915-1.979,29.145-5.883
		c8.916-3.771,16.924-9.17,23.801-16.047c6.877-6.877,12.276-14.885,16.047-23.801c3.904-9.23,5.883-19.036,5.883-29.145
		C2315.311-1026.235,2313.264-1036.198,2309.226-1045.562z"/>
	<polygon class="st5" points="2240.435,-1014.08 2255.251,-969.42 2301.904,-969.42 2264.408,-941.659 2278.425,-897.16 
		2240.435,-924.242 2202.445,-897.16 2216.462,-941.659 2178.966,-969.42 2225.619,-969.42 	"/>
	<g>
		<path class="st11" d="M2336.768-994.669h-24.577c-0.778,2.603-1.696,5.169-2.763,7.691c-2.673,6.32-6.169,12.181-10.425,17.509
			h63.61c-3.277-5.398-7.176-10.374-11.67-14.869C2346.538-988.742,2341.722-992.243,2336.768-994.669z"/>
		<path class="st11" d="M2165.634-1019.415h-47.102c3.22,5.223,7.026,10.046,11.395,14.415c4.404,4.404,9.221,7.906,14.175,10.331
			h24.578c-2.07-6.922-3.121-14.107-3.121-21.453C2165.559-1017.224,2165.587-1018.321,2165.634-1019.415z"/>
		<path class="st11" d="M2234.148-995.129l6.287-18.951l0,0.001v-76.923c0,0,0,0,0,0c-2.426-4.954-5.927-9.77-10.332-14.175
			c-4.436-4.436-9.331-8.29-14.642-11.538v97.3h-22.733C2202.212-1006.132,2217.096-996.957,2234.148-995.129z"/>
		<path class="st11" d="M2240.435-898.335c2.426,4.954,5.927,9.77,10.331,14.174c4.436,4.436,9.331,8.29,14.642,11.538v-33.816
			l-24.973-17.803V-898.335z"/>
	</g>
	<g>
		<path class="st12" d="M2174.573-915.441c0-5.657,0.825-11.008,2.412-15.778c-4.77,1.587-10.12,2.412-15.778,2.412
			c-9.936,0-19.66-1.987-28.902-5.906c-4.059-1.721-8.04-3.823-11.919-6.285c-0.566,0.37-1.113,0.749-1.636,1.133
			c-0.098,9.033,3.167,20.929,13.85,26.413c0.606,0.311,1.207,0.575,1.8,0.799c-0.493,0.39-0.98,0.82-1.459,1.296
			c-8.516,8.465-8.02,20.791-5.186,29.369c8.561,2.885,20.884,3.455,29.4-5.01c0.533-0.53,1.011-1.071,1.438-1.619
			c0.233,0.654,0.516,1.319,0.855,1.989c5.419,10.715,17.295,14.052,26.329,14.008c0.401-0.539,0.796-1.103,1.181-1.688
			c-2.547-3.978-4.714-8.064-6.48-12.231C2176.56-895.781,2174.573-905.505,2174.573-915.441z"/>
		<path class="st12" d="M2319.663-928.807c-5.657,0-11.008-0.825-15.778-2.412c1.587,4.77,2.412,10.12,2.412,15.778
			c0,9.936-1.987,19.66-5.906,28.902c-1.767,4.167-3.933,8.253-6.48,12.231c0.386,0.585,0.781,1.148,1.182,1.688
			c9.034,0.044,20.91-3.292,26.329-14.008c0.339-0.67,0.623-1.335,0.855-1.989c0.427,0.548,0.905,1.089,1.438,1.619
			c8.516,8.465,20.839,7.895,29.4,5.01c2.834-8.578,3.33-20.904-5.186-29.369c-0.478-0.475-0.966-0.906-1.458-1.296
			c0.594-0.223,1.194-0.488,1.8-0.799c10.683-5.483,13.948-17.379,13.85-26.413c-0.524-0.384-1.07-0.763-1.636-1.133
			c-3.88,2.462-7.861,4.564-11.92,6.285C2339.323-930.794,2329.599-928.807,2319.663-928.807z"/>
		<path class="st12" d="M2306.297-1073.897c0,5.657-0.825,11.008-2.412,15.778c4.77-1.587,10.12-2.412,15.778-2.412
			c9.936,0,19.66,1.987,28.902,5.906c4.059,1.721,8.04,3.823,11.919,6.285c0.566-0.37,1.113-0.749,1.637-1.133
			c0.098-9.033-3.167-20.929-13.85-26.413c-0.606-0.311-1.207-0.575-1.8-0.799c0.493-0.39,0.98-0.82,1.458-1.296
			c8.516-8.466,8.02-20.791,5.186-29.369c-8.561-2.885-20.884-3.455-29.4,5.01c-0.533,0.53-1.011,1.071-1.438,1.619
			c-0.233-0.654-0.517-1.318-0.855-1.989c-5.42-10.715-17.295-14.052-26.329-14.008c-0.401,0.539-0.796,1.103-1.182,1.688
			c2.547,3.978,4.714,8.064,6.48,12.231C2304.31-1093.557,2306.297-1083.833,2306.297-1073.897z"/>
		<path class="st12" d="M2161.207-1060.531c5.657,0,11.008,0.825,15.778,2.412c-1.587-4.77-2.412-10.121-2.412-15.778
			c0-9.936,1.987-19.66,5.906-28.902c1.767-4.167,3.933-8.253,6.481-12.231c-0.386-0.585-0.781-1.148-1.182-1.688
			c-9.034-0.044-20.91,3.292-26.329,14.008c-0.339,0.67-0.623,1.335-0.855,1.989c-0.427-0.548-0.905-1.089-1.438-1.619
			c-8.516-8.465-20.839-7.895-29.4-5.01c-2.834,8.578-3.33,20.904,5.186,29.369c0.478,0.475,0.966,0.906,1.459,1.296
			c-0.594,0.224-1.194,0.488-1.8,0.799c-10.683,5.483-13.948,17.379-13.85,26.413c0.524,0.385,1.07,0.763,1.636,1.133
			c3.88-2.462,7.861-4.564,11.919-6.285C2141.547-1058.544,2151.271-1060.531,2161.207-1060.531z"/>
	</g>
	<g>
		<path class="st13" d="M2174.573-915.441c0-5.657,0.825-11.008,2.412-15.778c-4.77,1.587-10.12,2.412-15.778,2.412
			c-9.936,0-19.66-1.987-28.902-5.906c-4.059-1.721-8.04-3.823-11.919-6.285c-0.566,0.37-1.113,0.749-1.636,1.133
			c-0.098,9.033,3.167,20.929,13.85,26.413c0.606,0.311,1.207,0.575,1.8,0.799c-0.493,0.39-0.98,0.82-1.459,1.296
			c-8.516,8.465-8.02,20.791-5.186,29.369c8.561,2.885,20.884,3.455,29.4-5.01c0.533-0.53,1.011-1.071,1.438-1.619
			c0.233,0.654,0.516,1.319,0.855,1.989c5.419,10.715,17.295,14.052,26.329,14.008c0.401-0.539,0.796-1.103,1.181-1.688
			c-2.547-3.978-4.714-8.064-6.48-12.231C2176.56-895.781,2174.573-905.505,2174.573-915.441z"/>
		<path class="st13" d="M2319.663-928.807c-5.657,0-11.008-0.825-15.778-2.412c1.587,4.77,2.412,10.12,2.412,15.778
			c0,9.936-1.987,19.66-5.906,28.902c-1.767,4.167-3.933,8.253-6.48,12.231c0.386,0.585,0.781,1.148,1.182,1.688
			c9.034,0.044,20.91-3.292,26.329-14.008c0.339-0.67,0.623-1.335,0.855-1.989c0.427,0.548,0.905,1.089,1.438,1.619
			c8.516,8.465,20.839,7.895,29.4,5.01c2.834-8.578,3.33-20.904-5.186-29.369c-0.478-0.475-0.966-0.906-1.458-1.296
			c0.594-0.223,1.194-0.488,1.8-0.799c10.683-5.483,13.948-17.379,13.85-26.413c-0.524-0.384-1.07-0.763-1.636-1.133
			c-3.88,2.462-7.861,4.564-11.92,6.285C2339.323-930.794,2329.599-928.807,2319.663-928.807z"/>
		<path class="st13" d="M2306.297-1073.897c0,5.657-0.825,11.008-2.412,15.778c4.77-1.587,10.12-2.412,15.778-2.412
			c9.936,0,19.66,1.987,28.902,5.906c4.059,1.721,8.04,3.823,11.919,6.285c0.566-0.37,1.113-0.749,1.637-1.133
			c0.098-9.033-3.167-20.929-13.85-26.413c-0.606-0.311-1.207-0.575-1.8-0.799c0.493-0.39,0.98-0.82,1.458-1.296
			c8.516-8.466,8.02-20.791,5.186-29.369c-8.561-2.885-20.884-3.455-29.4,5.01c-0.533,0.53-1.011,1.071-1.438,1.619
			c-0.233-0.654-0.517-1.318-0.855-1.989c-5.42-10.715-17.295-14.052-26.329-14.008c-0.401,0.539-0.796,1.103-1.182,1.688
			c2.547,3.978,4.714,8.064,6.48,12.231C2304.31-1093.557,2306.297-1083.833,2306.297-1073.897z"/>
		<path class="st13" d="M2161.207-1060.531c5.657,0,11.008,0.825,15.778,2.412c-1.587-4.77-2.412-10.121-2.412-15.778
			c0-9.936,1.987-19.66,5.906-28.902c1.767-4.167,3.933-8.253,6.481-12.231c-0.386-0.585-0.781-1.148-1.182-1.688
			c-9.034-0.044-20.91,3.292-26.329,14.008c-0.339,0.67-0.623,1.335-0.855,1.989c-0.427-0.548-0.905-1.089-1.438-1.619
			c-8.516-8.465-20.839-7.895-29.4-5.01c-2.834,8.578-3.33,20.904,5.186,29.369c0.478,0.475,0.966,0.906,1.459,1.296
			c-0.594,0.224-1.194,0.488-1.8,0.799c-10.683,5.483-13.948,17.379-13.85,26.413c0.524,0.385,1.07,0.763,1.636,1.133
			c3.88-2.462,7.861-4.564,11.919-6.285C2141.547-1058.544,2151.271-1060.531,2161.207-1060.531z"/>
	</g>
	<g>
		<g>
			<path class="st14" d="M2265.408-906.439"/>
			<path class="st14" d="M2215.462-906.439"/>
		</g>
		<g>
			<path class="st14" d="M2240.435-1014.08"/>
		</g>
		<path class="st14" d="M2239.4-831.205c-17.118-7.792-32.639-18.999-43.703-31.556c-6.57-7.456-11.69-15.456-15.218-23.778
			c-3.919-9.242-5.906-18.966-5.906-28.902c0-5.657,0.825-11.008,2.412-15.778c-4.77,1.587-10.12,2.412-15.778,2.412
			c-9.936,0-19.66-1.987-28.902-5.906c-8.322-3.529-16.322-8.649-23.778-15.219c-12.558-11.065-23.765-26.586-31.556-43.704
			l-0.471-1.035l0.471-1.035c7.792-17.118,18.998-32.638,31.557-43.703c7.456-6.57,15.456-11.69,23.778-15.218
			c9.242-3.919,18.966-5.906,28.902-5.906c5.491,0,10.694,0.777,15.357,2.274c0.131-0.131,0.152-0.152,0.283-0.283
			c-1.497-4.663-2.274-9.865-2.274-15.357c0-9.936,1.987-19.66,5.906-28.902c3.529-8.322,8.649-16.322,15.219-23.778
			c11.065-12.558,26.586-23.765,43.704-31.556l1.035-0.471l1.035,0.471c17.118,7.792,32.639,18.998,43.703,31.557
			c6.57,7.456,11.69,15.456,15.218,23.778c3.919,9.242,5.906,18.966,5.906,28.902c0,5.492-0.777,10.694-2.274,15.357
			c0.131,0.131,0.153,0.152,0.283,0.283c4.663-1.497,9.865-2.274,15.357-2.274c9.936,0,19.66,1.987,28.902,5.906
			c8.322,3.528,16.322,8.649,23.778,15.218c12.558,11.065,23.765,26.586,31.557,43.704l0.471,1.035l-0.471,1.035
			c-7.792,17.118-18.999,32.639-31.557,43.703c-7.456,6.57-15.456,11.69-23.778,15.218c-9.242,3.919-18.966,5.906-28.902,5.906
			c-5.657,0-11.008-0.825-15.778-2.412c1.587,4.77,2.412,10.12,2.412,15.778c0,9.936-1.987,19.66-5.906,28.902
			c-3.528,8.321-8.649,16.322-15.219,23.778c-11.065,12.558-26.586,23.765-43.704,31.556l-1.035,0.471L2239.4-831.205z"/>
		<polygon class="st14" points="2240.435,-1014.08 2255.251,-969.42 2301.904,-969.42 2264.408,-941.659 2278.425,-897.16 
			2240.435,-924.242 2202.445,-897.16 2216.462,-941.659 2178.966,-969.42 2225.619,-969.42 		"/>
		<g>
			<path class="st14" d="M2265.408-1116.715c-5.311,3.248-10.206,7.102-14.642,11.538c-4.404,4.404-7.906,9.221-10.331,14.175
				c-2.426-4.954-5.927-9.77-10.332-14.175c-4.436-4.436-9.331-8.29-14.642-11.538c-4.771-2.917-9.877-5.346-15.291-7.265
				c-10.166-3.604-21.432-5.431-33.487-5.431c-20.445,0-38.501,5.154-50.05,9.478l-1.064,0.399l-0.399,1.065
				c-7.103,18.971-10.388,39.325-9.251,57.313c0.675,10.675,2.866,20.66,6.513,29.678c1.709,4.225,3.749,8.251,6.099,12.065
				c3.22,5.223,7.026,10.046,11.395,14.415c4.404,4.404,9.221,7.906,14.175,10.331c-4.954,2.425-9.77,5.927-14.175,10.331
				c-4.495,4.495-8.393,9.471-11.671,14.869c-2.234,3.679-4.182,7.552-5.823,11.61c-3.647,9.017-5.839,19.002-6.514,29.677
				c-1.137,17.988,2.148,38.342,9.251,57.313l0.399,1.064l1.064,0.399c11.548,4.324,29.605,9.478,50.051,9.478c0.001,0,0,0,0.001,0
				c12.055,0,23.322-1.827,33.486-5.43c5.414-1.919,10.52-4.348,15.291-7.265c5.311-3.248,10.206-7.102,14.642-11.538
				c4.405-4.405,7.906-9.221,10.332-14.175c2.425,4.954,5.927,9.77,10.331,14.175c4.436,4.436,9.331,8.29,14.642,11.538
				c4.77,2.917,9.877,5.346,15.291,7.265c10.166,3.604,21.432,5.431,33.487,5.431c20.445,0,38.502-5.154,50.05-9.478l1.064-0.399
				l0.398-1.064c7.103-18.971,10.388-39.325,9.251-57.313c-0.675-10.675-2.866-20.66-6.513-29.678
				c-1.641-4.058-3.59-7.931-5.823-11.61c-3.277-5.398-7.176-10.374-11.67-14.869c-4.405-4.405-9.221-7.906-14.175-10.331
				c4.954-2.425,9.77-5.927,14.175-10.331c4.369-4.369,8.175-9.191,11.395-14.415c2.351-3.814,4.39-7.84,6.099-12.065
				c3.647-9.017,5.839-19.002,6.514-29.677c1.137-17.988-2.148-38.342-9.251-57.313l-0.399-1.064l-1.064-0.399
				c-11.548-4.324-29.606-9.478-50.051-9.478c-12.056,0-23.323,1.827-33.487,5.431
				C2275.285-1122.061,2270.179-1119.633,2265.408-1116.715z"/>
			<path class="st14" d="M2181.867-969.469c-4.256-5.328-7.751-11.189-10.425-17.509c-3.904-9.23-5.883-19.036-5.883-29.145
				c0-1.102,0.028-2.199,0.075-3.293c0.391-9.118,2.404-17.957,6.01-26.318c1.591-3.691,3.486-7.266,5.632-10.628l4.842-7.587
				l-0.24,8.997c-0.014,0.524-0.021,1.056-0.021,1.581c0,12.648,4.031,24.37,10.873,33.955
				c9.483,13.283,24.367,22.458,41.419,24.286l6.287-18.951l6.287,18.951c17.052-1.828,31.936-11.003,41.419-24.286
				c6.842-9.584,10.873-21.307,10.873-33.955c0-0.525-0.007-1.057-0.021-1.581l-0.24-8.997l4.842,7.587
				c2.146,3.362,4.041,6.938,5.632,10.628c3.605,8.361,5.619,17.199,6.01,26.318c0.047,1.094,0.075,2.191,0.075,3.293
				c0,10.109-1.979,19.914-5.883,29.145c-2.673,6.32-6.169,12.181-10.425,17.509"/>
		</g>
	</g>
	<g>
		<g>
			<g>
				<path class="st15" d="M2271.198-1027.904L2271.198-1027.904v-13.039c0-11.285,9.148-20.433,20.433-20.433l0,0v13.039
					C2291.63-1037.052,2282.482-1027.904,2271.198-1027.904z"/>
				<path class="st16" d="M2271.198-1027.931v-13.012c0-11.275,9.133-20.417,20.404-20.432
					C2290.583-1054.462,2286.613-1038.939,2271.198-1027.931z"/>
			</g>
			<g>
				<path class="st15" d="M2271.198-1061.308L2271.198-1061.308v-13.039c0-11.285,9.148-20.433,20.433-20.433l0,0v13.039
					C2291.63-1070.456,2282.482-1061.308,2271.198-1061.308z"/>
				<path class="st16" d="M2271.198-1061.335v-13.012c0-11.275,9.133-20.417,20.404-20.432
					C2290.583-1087.866,2286.613-1072.343,2271.198-1061.335z"/>
			</g>
		</g>
		<g>
			<g>
				<path class="st15" d="M2209.672-1027.904L2209.672-1027.904v-13.039c0-11.285-9.148-20.433-20.433-20.433l0,0v13.039
					C2189.24-1037.052,2198.388-1027.904,2209.672-1027.904z"/>
				<path class="st16" d="M2209.672-1027.931v-13.012c0-11.275-9.133-20.417-20.404-20.432
					C2190.287-1054.462,2194.257-1038.939,2209.672-1027.931z"/>
			</g>
			<g>
				<path class="st15" d="M2209.672-1061.308L2209.672-1061.308v-13.039c0-11.285-9.148-20.433-20.433-20.433l0,0v13.039
					C2189.24-1070.456,2198.388-1061.308,2209.672-1061.308z"/>
				<path class="st16" d="M2209.672-1061.335v-13.012c0-11.275-9.133-20.417-20.404-20.432
					C2190.287-1087.866,2194.257-1072.343,2209.672-1061.335z"/>
			</g>
		</g>
	</g>
</g>
<path class="st17" d="M2451.323-927.821c27.419,0,46.648-9.219,57.693-27.663c11.039-18.439,16.561-44.891,16.561-79.352
	c0-19.655-2.673-36.883-8.007-51.688c-5.341-14.799-12.865-26.082-22.568-33.851v-1.82h187.094v1.82
	c-9.225,12.375-13.832,29.609-13.832,51.688v147.782c0,22.085,4.606,39.312,13.832,51.688v1.82h-91.363v-1.82
	c9.219-12.375,13.832-29.603,13.832-51.688v-191.098h-68.068v50.959c0,40.04-2.246,74.319-6.734,102.83
	c-4.493,28.517-13.046,51.324-25.662,68.431c-12.62,17.108-30.212,25.662-52.779,25.662V-927.821z"/>
<path class="st17" d="M2869.244-931.097c-4.129,20.145-13.531,36.645-28.209,49.504c-14.685,12.865-32.942,19.292-54.781,19.292
	c-16.26,0-31.122-3.64-44.59-10.92c-13.468-7.28-24.024-17.893-31.667-31.85c-7.644-13.951-11.466-30.513-11.466-49.685
	c0-19.412,4.123-36.639,12.375-51.688c7.764-14.316,18.502-25.901,32.214-34.762c13.707-8.855,29.666-13.286,47.866-13.286
	c17.472,0,32.578,3.52,45.317,10.556c12.74,7.041,18.746,16.505,18.018,28.392c-0.727,10.681-5.403,18.746-14.014,24.206
	c-8.616,5.46-20.565,9.527-35.854,12.193c-27.18,4.857-44.289,9.1-51.323,12.74c3.395-10.92,8.372-20.139,14.924-27.664
	c6.552-7.519,15.771-15.407,27.663-23.659c10.676-8.008,16.016-14.56,16.016-19.656c0-3.64-1.582-6.427-4.732-8.372
	c-3.156-1.939-6.916-2.912-11.284-2.912c-10.192,0-19.291,4.249-27.299,12.74c-8.008,8.496-13.65,19.598-16.926,33.306
	c-3.276,13.712-3.583,27.97-0.909,42.769c1.211,5.585,3.514,11.892,6.916,18.928c5.579,10.681,13.524,19.417,23.841,26.208
	c10.312,6.797,22.261,10.192,35.854,10.192c10.921,0,20.623-2.423,29.121-7.28c8.491-4.851,14.924-11.284,19.291-19.292H2869.244z"
	/>
<path class="st17" d="M2965.069-1049.396c41.496,0,62.243,10.193,62.243,30.576c0,7.525-2.309,13.468-6.916,17.836
	c-4.612,4.368-12.137,9.344-22.568,14.924c15.772,0,30.451,4.857,44.044,14.56c13.587,9.709,20.384,22.813,20.384,39.312
	c0,17.716-7.223,32.942-21.658,45.681c-14.441,12.74-32.703,19.11-54.781,19.11H2875.89v-1.82
	c3.396-5.095,6.006-11.585,7.826-19.473c1.821-7.883,2.731-16.562,2.731-26.026v-87.36c0-9.464-0.91-18.137-2.731-26.025
	c-1.82-7.883-4.43-14.379-7.826-19.474v-1.82H2965.069z M2909.014-898.701c2.912-8.735,7.098-17.591,12.557-26.571
	c5.46-8.975,9.828-15.47,13.104-19.474c3.276-4.004,8.064-9.646,14.378-16.926c10.192-12.132,17.591-22.324,22.204-30.576
	c4.606-8.247,6.791-16.619,6.552-25.116c-0.245-15.772-7.041-23.535-20.384-23.296c-10.436,0-17.597,7.888-21.476,23.66
	C2929.881-990.548,2920.9-951.116,2909.014-898.701z M2939.589-916.901c-1.217,12.621,0.364,22.329,4.732,29.121
	c5.096,7.769,11.887,11.647,20.384,11.647c8.492,0,15.709-3.151,21.658-9.464c5.943-6.308,10.129-13.889,12.558-22.75
	c2.423-8.855,3.64-18.382,3.64-28.574c0-22.568-3.884-37.731-11.648-45.5c-12.375,5.824-22.693,13.468-30.939,22.932
	c-6.313,7.041-11.102,13.713-14.378,20.02C2942.319-933.155,2940.318-925.636,2939.589-916.901z"/>
<path class="st17" d="M3073.821-926.365c0-20.383,6.188-38.402,18.564-54.053c12.376-15.652,28.875-27.482,49.504-35.49
	c-10.437,10.92-15.652,29.245-15.652,54.964c0,17.233,4.123,31.85,12.375,43.862c8.247,12.012,19.656,17.899,34.216,17.655
	c5.579,0,11.284-1.092,17.108-3.276c-26.697-76.923-43.561-119.391-50.596-127.4c-7.041-8.247-16.743-11.403-29.12-9.464
	l-0.364-1.092c15.771-9.219,30.331-13.832,43.679-13.832c11.887,0,23.114,3.458,33.67,10.374
	c10.556,6.916,18.382,17.051,23.478,30.394c4.851,12.62,12.376,32.703,22.568,60.241c10.192,27.544,16.743,45.318,19.656,53.326
	c4.851,13.104,11.038,23.421,18.565,30.939v1.82h-69.161l-10.192-29.12c-10.92,22.812-28.153,34.216-51.688,34.216
	c-20.383,0-36.582-6.006-48.594-18.018C3079.827-892.331,3073.821-907.676,3073.821-926.365z"/>
<path class="st17" d="M3280.373-869.217c3.396-5.095,6.006-11.585,7.826-19.473c1.82-7.883,2.731-16.562,2.731-26.026v-87.36
	c0-9.464-0.91-18.137-2.731-26.025c-1.82-7.883-4.43-14.379-7.826-19.474v-1.82h80.079v1.82c-3.401,5.095-6.006,11.591-7.826,19.474
	c-1.819,7.888-2.729,16.561-2.729,26.025v36.765h55.691v-36.765c0-9.464-0.91-18.137-2.729-26.025
	c-1.82-7.883-4.432-14.379-7.826-19.474v-1.82h80.079v1.82c-3.401,5.095-6.006,11.591-7.826,19.474
	c-1.82,7.888-2.73,16.561-2.73,26.025v87.36c0,9.464,0.91,18.143,2.73,26.026c1.821,7.888,4.425,14.378,7.826,19.473v1.82h-80.079
	v-1.82c3.394-5.095,6.006-11.585,7.826-19.473c1.819-7.883,2.729-16.562,2.729-26.026v-41.86h-55.691v41.86
	c0,9.464,0.91,18.143,2.729,26.026c1.821,7.888,4.425,14.378,7.826,19.473v1.82h-80.079V-869.217z"/>
<path class="st17" d="M3541.092-869.217c3.396-5.095,6.006-11.585,7.826-19.473c1.82-7.883,2.73-16.562,2.73-26.026v-125.943h-4.733
	c-25.969,0.728-45.136,18.689-57.511,53.871h-3.639l6.916-62.607h177.267l6.552,62.607h-3.641
	c-12.375-35.182-31.428-53.143-57.147-53.871h-5.095v125.943c0,9.464,0.91,18.143,2.729,26.026
	c1.82,7.888,4.425,14.378,7.826,19.473v1.82h-80.079V-869.217z"/>
<line class="st2" x1="1876.5" y1="-1158.604" x2="3876.5" y2="-1158.604"/>
<line class="st2" x1="1876.5" y1="-830.734" x2="3876.5" y2="-830.734"/>
<line class="st2" x1="2076.5" y1="-1661.336" x2="2076.5" y2="-328.336"/>
<line class="st2" x1="1912.419" y1="-1661.336" x2="1912.419" y2="-328.336"/>
<line class="st2" x1="2404.37" y1="-1661.336" x2="2404.37" y2="-328.336"/>
<g>
	<g>
		<line class="st18" x1="2451.323" y1="-1661.336" x2="2451.323" y2="-1658.336"/>
		<line class="st19" x1="2451.323" y1="-1652.331" x2="2451.323" y2="-334.338"/>
		<line class="st18" x1="2451.323" y1="-331.336" x2="2451.323" y2="-328.336"/>
	</g>
</g>
<line class="st2" x1="3676.5" y1="-1661.336" x2="3676.5" y2="-328.336"/>
<line class="st2" x1="3840.581" y1="-1661.336" x2="3840.581" y2="-328.336"/>
<g>
	<path class="st17" d="M2229.119-1174.965h3.816v-11.928l-2.52,1.8l-1.056-1.656l4.128-2.928h1.656v14.712h3.696v2.088h-9.72
		V-1174.965z"/>
	<path class="st17" d="M2244.983-1179.045l-3.888-5.904h2.352l2.88,4.488l2.856-4.488h2.28l-3.888,5.904l4.176,6.168h-2.424
		l-3.096-4.704l-3.096,4.704h-2.304L2244.983-1179.045z"/>
</g>
<line class="st2" x1="1877" y1="-1322.685" x2="3877" y2="-1322.685"/>
<g>
	<path class="st4" d="M796.959-1037.002c-12.952-28.454-31.58-54.254-52.455-72.646c-0.506-0.446-1.016-0.881-1.524-1.319
		c3.124-10.969,5.088-22.631,5.86-34.836c1.89-29.9-3.571-63.734-15.378-95.268l-0.663-1.77l-1.769-0.663
		c-19.196-7.187-49.212-15.755-83.196-15.755c-16.64,0-32.371,2.101-46.904,6.24c-0.439-0.51-0.875-1.022-1.323-1.529
		c-18.392-20.875-44.192-39.503-72.645-52.455l-1.72-0.783l-1.72,0.783c-28.454,12.951-54.254,31.58-72.646,52.454
		c-0.447,0.508-0.884,1.019-1.323,1.53c-14.534-4.14-30.265-6.242-46.904-6.242c-33.984,0-63.999,8.567-83.195,15.754l-1.77,0.663
		l-0.663,1.77c-11.807,31.534-17.268,65.367-15.378,95.268c0.771,12.205,2.736,23.867,5.859,34.836
		c-0.509,0.438-1.018,0.873-1.524,1.318c-20.875,18.392-39.503,44.192-52.455,72.646l-0.783,1.72l0.783,1.72
		c12.951,28.454,31.58,54.254,52.455,72.646c0.506,0.446,1.016,0.881,1.524,1.319c-3.124,10.969-5.088,22.631-5.86,34.836
		c-1.89,29.901,3.571,63.734,15.378,95.268l0.663,1.769l1.77,0.663c19.195,7.187,49.211,15.754,83.196,15.755
		c0.001,0,0.001,0,0.002,0c16.639,0,32.37-2.101,46.902-6.24c0.439,0.51,0.875,1.021,1.322,1.529
		c18.392,20.874,44.192,39.503,72.646,52.455l1.72,0.783l1.72-0.783c28.454-12.951,54.254-31.58,72.646-52.455
		c0.447-0.508,0.884-1.019,1.323-1.53c14.534,4.14,30.265,6.242,46.904,6.242c33.984,0,63.999-8.567,83.195-15.754l1.769-0.663
		l0.663-1.769c11.807-31.534,17.268-65.368,15.378-95.268c-0.771-12.205-2.736-23.866-5.859-34.836
		c0.509-0.438,1.018-0.873,1.524-1.319c20.874-18.392,39.503-44.192,52.455-72.645l0.783-1.72L796.959-1037.002z"/>
	<g>
		<g>
			<path class="st5" d="M733.462-1241.07l-0.663-1.77l-1.769-0.663c-19.196-7.187-49.212-15.755-83.196-15.755
				c-20.041,0-38.769,3.037-55.664,9.027c-8.999,3.19-17.487,7.227-25.417,12.076v161.737h37.787
				c11.373-15.932,18.074-35.417,18.074-56.441c0-0.873-0.012-1.757-0.035-2.628l-0.399-14.955l8.048,12.611
				c3.567,5.589,6.716,11.533,9.361,17.667c5.993,13.897,9.34,28.589,9.99,43.746h78.294c3.907-6.339,7.298-13.031,10.139-20.054
				c6.063-14.989,9.706-31.586,10.828-49.331C750.73-1175.703,745.269-1209.536,733.462-1241.07z"/>
			<path class="st5" d="M420.255-1137.83l8.048-12.611l-0.399,14.955c-0.023,0.871-0.035,1.755-0.035,2.628
				c0,21.024,6.7,40.51,18.074,56.441h37.787v-161.736c-7.93-4.849-16.418-8.885-25.417-12.076
				c-16.897-5.991-35.625-9.028-55.664-9.028c-33.984,0-63.999,8.567-83.195,15.754l-1.77,0.663l-0.663,1.77
				c-11.807,31.534-17.268,65.367-15.378,95.268c1.122,17.745,4.764,34.342,10.827,49.332c2.841,7.023,6.231,13.715,10.139,20.054
				h78.294c0.65-15.156,3.997-29.848,9.99-43.746C413.539-1126.298,416.689-1132.242,420.255-1137.83z"/>
		</g>
	</g>
	<g>
		<path class="st5" d="M566.754-888.623v56.21c7.93,4.849,16.418,8.886,25.417,12.076c16.897,5.991,35.625,9.028,55.663,9.028
			c33.984,0,63.999-8.567,83.195-15.754l1.769-0.663l0.663-1.769c11.807-31.534,17.268-65.368,15.378-95.268
			c-1.122-17.745-4.764-34.342-10.827-49.332c-2.728-6.745-5.967-13.184-9.68-19.299"/>
		<path class="st5" d="M322.151-993.394c-3.713,6.116-6.952,12.554-9.68,19.299c-6.063,14.989-9.706,31.587-10.827,49.331
			c-1.89,29.901,3.571,63.734,15.378,95.268l0.663,1.769l1.77,0.663c19.195,7.187,49.211,15.754,83.196,15.755
			c0.001,0,0.001,0,0.002,0c20.039,0,38.768-3.037,55.662-9.027c8.999-3.19,17.487-7.227,25.417-12.077v-56.211"/>
	</g>
	<path class="st6" d="M523.522-763.566c-28.454-12.951-54.253-31.58-72.646-52.455c-10.92-12.394-19.431-25.692-25.296-39.525
		c-6.514-15.362-9.817-31.526-9.817-48.042c0-9.404,1.371-18.298,4.009-26.226c-7.929,2.638-16.823,4.009-26.227,4.009
		c-16.516,0-32.68-3.303-48.042-9.817c-13.833-5.865-27.13-14.377-39.525-25.297c-20.875-18.392-39.503-44.192-52.455-72.646
		l-0.783-1.72l0.783-1.72c12.951-28.454,31.58-54.253,52.455-72.646c12.394-10.92,25.692-19.431,39.524-25.296
		c15.362-6.514,31.526-9.817,48.042-9.817c9.128,0,17.776,1.292,25.527,3.781c0.218-0.218,0.253-0.254,0.471-0.471
		c-2.489-7.751-3.781-16.399-3.781-25.527c0-16.516,3.303-32.68,9.817-48.042c5.865-13.833,14.376-27.13,25.297-39.525
		c18.393-20.874,44.192-39.503,72.646-52.454l1.72-0.783l1.72,0.783c28.454,12.951,54.253,31.58,72.645,52.455
		c10.92,12.394,19.431,25.692,25.297,39.524c6.514,15.362,9.817,31.526,9.817,48.042c0,9.128-1.292,17.776-3.781,25.527
		c0.218,0.218,0.253,0.253,0.471,0.471c7.751-2.489,16.398-3.781,25.527-3.781c16.516,0,32.68,3.303,48.042,9.817
		c13.832,5.865,27.13,14.376,39.525,25.297c20.874,18.392,39.503,44.192,52.455,72.646l0.783,1.72l-0.783,1.72
		c-12.951,28.454-31.58,54.253-52.455,72.645c-12.394,10.92-25.692,19.431-39.525,25.297c-15.362,6.514-31.526,9.817-48.042,9.817
		c-9.404,0-18.298-1.371-26.226-4.009c2.638,7.929,4.009,16.823,4.009,26.226c0,16.516-3.303,32.68-9.817,48.042
		c-5.865,13.832-14.377,27.13-25.297,39.525c-18.392,20.874-44.192,39.503-72.646,52.455l-1.72,0.783L523.522-763.566z"/>
	<polygon class="st7" points="525.242,-1067.549 549.87,-993.314 627.418,-993.314 565.091,-947.167 588.39,-873.199 
		525.242,-918.215 462.094,-873.199 485.394,-947.167 423.066,-993.314 500.614,-993.314 	"/>
	<g>
		<g>
			<path class="st8" d="M639.926-1022.498c-4.444,10.506-10.255,20.247-17.329,29.104h105.736
				c-5.448-8.973-11.928-17.244-19.399-24.716c-7.322-7.322-15.327-13.142-23.562-17.173c8.235-4.032,16.24-9.852,23.562-17.173
				c7.262-7.262,13.589-15.278,18.941-23.961H649.58c0.078,1.818,0.125,3.642,0.125,5.474
				C649.705-1054.14,646.415-1037.841,639.926-1022.498z"/>
			<path class="st8" d="M400.779-1070.943c0-1.831,0.047-3.655,0.125-5.474H322.61c5.352,8.682,11.678,16.699,18.941,23.961
				c7.321,7.321,15.328,13.142,23.562,17.173c-8.234,4.032-16.241,9.852-23.562,17.173c-7.472,7.472-13.951,15.743-19.399,24.716
				h105.736c-7.074-8.857-12.885-18.598-17.329-29.104C404.07-1037.841,400.779-1054.14,400.779-1070.943z"/>
			<path class="st8" d="M535.693-1036.047c28.344-3.038,53.086-18.29,68.848-40.37h-37.787v-161.737
				c-8.828,5.399-16.964,11.805-24.339,19.179c-7.321,7.321-13.142,15.328-17.173,23.562c-4.032-8.235-9.852-16.24-17.173-23.562
				c-7.374-7.374-15.51-13.78-24.339-19.179v161.736h-37.787c15.763,22.08,40.504,37.331,68.848,40.37l10.451-31.501
				L535.693-1036.047z"/>
			<path class="st9" d="M525.242-1067.549"/>
		</g>
		<path class="st8" d="M483.73-888.623v56.211c8.828-5.399,16.964-11.805,24.339-19.18c7.322-7.322,13.142-15.327,17.173-23.562
			c4.032,8.235,9.852,16.24,17.173,23.562c7.374,7.374,15.51,13.78,24.339,19.179v-56.21l-41.512-29.593L483.73-888.623z"/>
	</g>
	<path class="st10" d="M639.59-1119.879c-2.645-6.135-5.794-12.079-9.361-17.667l-8.048-12.611l0.399,14.955
		c0.023,0.871,0.035,1.755,0.035,2.628c0,53.692-43.681,97.373-97.373,97.373c-53.692,0-97.373-43.681-97.373-97.373
		c0-0.871,0.012-1.756,0.035-2.629l0.396-14.95l-8.045,12.607c-3.567,5.589-6.716,11.533-9.361,17.667
		c-6.712,15.565-10.115,32.125-10.115,49.22c0,16.804,3.29,33.103,9.78,48.445c6.269,14.821,15.243,28.132,26.675,39.563
		c11.432,11.432,24.742,20.406,39.563,26.675c15.342,6.489,31.642,9.78,48.446,9.78c16.804,0,33.103-3.29,48.445-9.78
		c14.821-6.268,28.131-15.243,39.563-26.675c11.432-11.432,20.406-24.743,26.674-39.563c6.49-15.342,9.78-31.642,9.78-48.445
		C649.705-1087.754,646.302-1104.314,639.59-1119.879z"/>
	<polygon class="st5" points="525.242,-1067.549 549.87,-993.314 627.418,-993.314 565.091,-947.167 588.39,-873.199 
		525.242,-918.215 462.094,-873.199 485.394,-947.167 423.066,-993.314 500.614,-993.314 	"/>
	<g>
		<path class="st11" d="M685.372-1035.283h-40.854c-1.294,4.326-2.819,8.592-4.592,12.785
			c-4.444,10.506-10.255,20.247-17.329,29.104h105.736c-5.448-8.973-11.928-17.244-19.399-24.716
			C701.612-1025.431,693.607-1031.251,685.372-1035.283z"/>
		<path class="st11" d="M400.905-1076.417H322.61c5.352,8.682,11.678,16.699,18.941,23.961c7.321,7.321,15.328,13.142,23.562,17.173
			h40.854c-3.441-11.506-5.187-23.449-5.187-35.661C400.779-1072.775,400.827-1074.599,400.905-1076.417z"/>
		<path class="st11" d="M514.792-1036.047l10.451-31.501l0,0.001v-127.866c0,0,0,0.001,0,0.001
			c-4.032-8.235-9.852-16.24-17.173-23.562c-7.374-7.374-15.51-13.78-24.339-19.179v161.736h-37.787
			C461.706-1054.337,486.448-1039.086,514.792-1036.047z"/>
		<path class="st11" d="M525.243-875.152c4.032,8.235,9.852,16.24,17.173,23.561c7.374,7.374,15.51,13.78,24.339,19.179v-56.21
			l-41.511-29.592V-875.152z"/>
	</g>
	<g>
		<path class="st12" d="M415.763-903.587c0-9.404,1.371-18.298,4.009-26.226c-7.929,2.638-16.823,4.009-26.227,4.009
			c-16.516,0-32.68-3.303-48.042-9.817c-6.746-2.861-13.364-6.355-19.813-10.447c-0.941,0.615-1.85,1.245-2.72,1.884
			c-0.164,15.016,5.265,34.789,23.022,43.904c1.007,0.517,2.006,0.956,2.992,1.328c-0.819,0.648-1.629,1.364-2.424,2.154
			c-14.156,14.072-13.331,34.56-8.62,48.819c14.23,4.796,34.714,5.744,48.87-8.328c0.886-0.881,1.681-1.78,2.39-2.691
			c0.387,1.088,0.858,2.192,1.422,3.306c9.009,17.812,28.749,23.358,43.766,23.284c0.666-0.896,1.323-1.833,1.964-2.805
			c-4.234-6.612-7.835-13.405-10.772-20.332C419.066-870.907,415.763-887.071,415.763-903.587z"/>
		<path class="st12" d="M656.938-925.804c-9.404,0-18.298-1.371-26.226-4.009c2.638,7.929,4.009,16.823,4.009,26.226
			c0,16.516-3.303,32.68-9.817,48.042c-2.937,6.927-6.538,13.719-10.772,20.331c0.641,0.972,1.298,1.909,1.964,2.805
			c15.016,0.074,34.757-5.473,43.766-23.284c0.564-1.114,1.035-2.218,1.422-3.306c0.71,0.911,1.505,1.81,2.39,2.691
			c14.156,14.072,34.639,13.124,48.87,8.328c4.711-14.259,5.536-34.747-8.62-48.819c-0.795-0.79-1.605-1.505-2.424-2.154
			c0.987-0.371,1.985-0.811,2.992-1.328c17.757-9.115,23.186-28.888,23.022-43.904c-0.871-0.639-1.779-1.268-2.72-1.884
			c-6.449,4.092-13.067,7.586-19.813,10.447C689.618-929.107,673.454-925.804,656.938-925.804z"/>
		<path class="st12" d="M634.721-1166.979c0,9.404-1.371,18.298-4.009,26.227c7.929-2.638,16.822-4.009,26.226-4.009
			c16.516,0,32.68,3.303,48.042,9.817c6.746,2.86,13.364,6.355,19.813,10.447c0.941-0.615,1.85-1.245,2.72-1.884
			c0.164-15.016-5.265-34.789-23.022-43.904c-1.007-0.517-2.006-0.956-2.992-1.328c0.819-0.648,1.629-1.364,2.424-2.154
			c14.156-14.072,13.331-34.56,8.62-48.819c-14.23-4.796-34.714-5.744-48.87,8.328c-0.886,0.88-1.681,1.78-2.39,2.691
			c-0.387-1.088-0.859-2.192-1.422-3.306c-9.008-17.812-28.749-23.358-43.766-23.284c-0.666,0.896-1.323,1.833-1.964,2.805
			c4.234,6.612,7.835,13.405,10.772,20.332C631.418-1199.659,634.721-1183.495,634.721-1166.979z"/>
		<path class="st12" d="M393.546-1144.762c9.404,0,18.298,1.371,26.227,4.009c-2.638-7.929-4.009-16.823-4.009-26.227
			c0-16.516,3.303-32.68,9.817-48.042c2.937-6.927,6.538-13.719,10.772-20.331c-0.641-0.972-1.298-1.909-1.964-2.805
			c-15.016-0.074-34.757,5.473-43.766,23.284c-0.564,1.114-1.035,2.219-1.422,3.306c-0.71-0.911-1.505-1.81-2.39-2.691
			c-14.156-14.072-34.639-13.124-48.87-8.328c-4.71,14.259-5.536,34.747,8.62,48.819c0.795,0.79,1.605,1.505,2.424,2.154
			c-0.987,0.371-1.985,0.811-2.992,1.328c-17.757,9.115-23.186,28.888-23.022,43.904c0.871,0.639,1.779,1.268,2.72,1.884
			c6.449-4.092,13.067-7.586,19.813-10.447C360.866-1141.459,377.03-1144.762,393.546-1144.762z"/>
	</g>
	<g>
		<path class="st13" d="M415.763-903.587c0-9.404,1.371-18.298,4.009-26.226c-7.929,2.638-16.823,4.009-26.227,4.009
			c-16.516,0-32.68-3.303-48.042-9.817c-6.746-2.861-13.364-6.355-19.813-10.447c-0.941,0.615-1.85,1.245-2.72,1.884
			c-0.164,15.016,5.265,34.789,23.022,43.904c1.007,0.517,2.006,0.956,2.992,1.328c-0.819,0.648-1.629,1.364-2.424,2.154
			c-14.156,14.072-13.331,34.56-8.62,48.819c14.23,4.796,34.714,5.744,48.87-8.328c0.886-0.881,1.681-1.78,2.39-2.691
			c0.387,1.088,0.858,2.192,1.422,3.306c9.009,17.812,28.749,23.358,43.766,23.284c0.666-0.896,1.323-1.833,1.964-2.805
			c-4.234-6.612-7.835-13.405-10.772-20.332C419.066-870.907,415.763-887.071,415.763-903.587z"/>
		<path class="st13" d="M656.938-925.804c-9.404,0-18.298-1.371-26.226-4.009c2.638,7.929,4.009,16.823,4.009,26.226
			c0,16.516-3.303,32.68-9.817,48.042c-2.937,6.927-6.538,13.719-10.772,20.331c0.641,0.972,1.298,1.909,1.964,2.805
			c15.016,0.074,34.757-5.473,43.766-23.284c0.564-1.114,1.035-2.218,1.422-3.306c0.71,0.911,1.505,1.81,2.39,2.691
			c14.156,14.072,34.639,13.124,48.87,8.328c4.711-14.259,5.536-34.747-8.62-48.819c-0.795-0.79-1.605-1.505-2.424-2.154
			c0.987-0.371,1.985-0.811,2.992-1.328c17.757-9.115,23.186-28.888,23.022-43.904c-0.871-0.639-1.779-1.268-2.72-1.884
			c-6.449,4.092-13.067,7.586-19.813,10.447C689.618-929.107,673.454-925.804,656.938-925.804z"/>
		<path class="st13" d="M634.721-1166.979c0,9.404-1.371,18.298-4.009,26.227c7.929-2.638,16.822-4.009,26.226-4.009
			c16.516,0,32.68,3.303,48.042,9.817c6.746,2.86,13.364,6.355,19.813,10.447c0.941-0.615,1.85-1.245,2.72-1.884
			c0.164-15.016-5.265-34.789-23.022-43.904c-1.007-0.517-2.006-0.956-2.992-1.328c0.819-0.648,1.629-1.364,2.424-2.154
			c14.156-14.072,13.331-34.56,8.62-48.819c-14.23-4.796-34.714-5.744-48.87,8.328c-0.886,0.88-1.681,1.78-2.39,2.691
			c-0.387-1.088-0.859-2.192-1.422-3.306c-9.008-17.812-28.749-23.358-43.766-23.284c-0.666,0.896-1.323,1.833-1.964,2.805
			c4.234,6.612,7.835,13.405,10.772,20.332C631.418-1199.659,634.721-1183.495,634.721-1166.979z"/>
		<path class="st13" d="M393.546-1144.762c9.404,0,18.298,1.371,26.227,4.009c-2.638-7.929-4.009-16.823-4.009-26.227
			c0-16.516,3.303-32.68,9.817-48.042c2.937-6.927,6.538-13.719,10.772-20.331c-0.641-0.972-1.298-1.909-1.964-2.805
			c-15.016-0.074-34.757,5.473-43.766,23.284c-0.564,1.114-1.035,2.219-1.422,3.306c-0.71-0.911-1.505-1.81-2.39-2.691
			c-14.156-14.072-34.639-13.124-48.87-8.328c-4.71,14.259-5.536,34.747,8.62,48.819c0.795,0.79,1.605,1.505,2.424,2.154
			c-0.987,0.371-1.985,0.811-2.992,1.328c-17.757,9.115-23.186,28.888-23.022,43.904c0.871,0.639,1.779,1.268,2.72,1.884
			c6.449-4.092,13.067-7.586,19.813-10.447C360.866-1141.459,377.03-1144.762,393.546-1144.762z"/>
	</g>
	<g>
		<g>
			<path class="st20" d="M566.754-888.623"/>
			<path class="st20" d="M483.73-888.623"/>
		</g>
		<g>
			<path class="st20" d="M525.242-1067.549"/>
		</g>
		<path class="st20" d="M523.522-763.566c-28.454-12.951-54.253-31.58-72.646-52.455c-10.92-12.394-19.431-25.692-25.296-39.525
			c-6.514-15.362-9.817-31.526-9.817-48.042c0-9.404,1.371-18.298,4.009-26.226c-7.929,2.638-16.823,4.009-26.227,4.009
			c-16.516,0-32.68-3.303-48.042-9.817c-13.833-5.865-27.13-14.377-39.525-25.297c-20.875-18.392-39.503-44.192-52.455-72.646
			l-0.783-1.72l0.783-1.72c12.951-28.454,31.58-54.253,52.455-72.646c12.394-10.92,25.692-19.431,39.524-25.296
			c15.362-6.514,31.526-9.817,48.042-9.817c9.128,0,17.776,1.292,25.527,3.781c0.218-0.218,0.253-0.254,0.471-0.471
			c-2.489-7.751-3.781-16.399-3.781-25.527c0-16.516,3.303-32.68,9.817-48.042c5.865-13.833,14.376-27.13,25.297-39.525
			c18.393-20.874,44.192-39.503,72.646-52.454l1.72-0.783l1.72,0.783c28.454,12.951,54.253,31.58,72.645,52.455
			c10.92,12.394,19.431,25.692,25.297,39.524c6.514,15.362,9.817,31.526,9.817,48.042c0,9.128-1.292,17.776-3.781,25.527
			c0.218,0.218,0.253,0.253,0.471,0.471c7.751-2.489,16.398-3.781,25.527-3.781c16.516,0,32.68,3.303,48.042,9.817
			c13.832,5.865,27.13,14.376,39.525,25.297c20.874,18.392,39.503,44.192,52.455,72.646l0.783,1.72l-0.783,1.72
			c-12.951,28.454-31.58,54.253-52.455,72.645c-12.394,10.92-25.692,19.431-39.525,25.297c-15.362,6.514-31.526,9.817-48.042,9.817
			c-9.404,0-18.298-1.371-26.226-4.009c2.638,7.929,4.009,16.823,4.009,26.226c0,16.516-3.303,32.68-9.817,48.042
			c-5.865,13.832-14.377,27.13-25.297,39.525c-18.392,20.874-44.192,39.503-72.646,52.455l-1.72,0.783L523.522-763.566z"/>
		<polygon class="st20" points="525.242,-1067.549 549.87,-993.314 627.418,-993.314 565.091,-947.167 588.39,-873.199 
			525.242,-918.215 462.094,-873.199 485.394,-947.167 423.066,-993.314 500.614,-993.314 		"/>
		<g>
			<path class="st20" d="M566.754-1238.154c-8.828,5.399-16.964,11.805-24.339,19.179c-7.321,7.321-13.142,15.328-17.173,23.562
				c-4.032-8.235-9.852-16.24-17.173-23.562c-7.374-7.374-15.51-13.78-24.339-19.179c-7.93-4.849-16.418-8.885-25.417-12.076
				c-16.897-5.991-35.625-9.028-55.664-9.028c-33.984,0-63.999,8.567-83.195,15.754l-1.77,0.663l-0.663,1.77
				c-11.807,31.534-17.268,65.367-15.378,95.268c1.122,17.745,4.764,34.342,10.827,49.332c2.841,7.023,6.231,13.715,10.139,20.054
				c5.352,8.682,11.678,16.699,18.941,23.961c7.321,7.321,15.328,13.142,23.562,17.173c-8.234,4.032-16.241,9.852-23.562,17.173
				c-7.472,7.472-13.951,15.743-19.399,24.716c-3.713,6.116-6.952,12.554-9.68,19.299c-6.063,14.989-9.706,31.587-10.827,49.331
				c-1.89,29.901,3.571,63.734,15.378,95.268l0.663,1.769l1.77,0.663c19.195,7.187,49.211,15.754,83.196,15.755
				c0.001,0,0.001,0,0.002,0c20.039,0,38.768-3.037,55.662-9.027c8.999-3.19,17.487-7.227,25.417-12.077
				c8.828-5.399,16.964-11.805,24.339-19.18c7.322-7.322,13.142-15.327,17.173-23.562c4.032,8.235,9.852,16.24,17.173,23.562
				c7.374,7.374,15.51,13.78,24.339,19.179c7.93,4.849,16.418,8.886,25.417,12.076c16.897,5.991,35.625,9.028,55.663,9.028
				c33.984,0,63.999-8.567,83.195-15.754l1.769-0.663l0.663-1.769c11.807-31.534,17.268-65.368,15.378-95.268
				c-1.122-17.745-4.764-34.342-10.827-49.332c-2.728-6.745-5.967-13.184-9.68-19.299c-5.448-8.973-11.928-17.244-19.399-24.716
				c-7.322-7.322-15.327-13.142-23.562-17.173c8.235-4.032,16.24-9.852,23.562-17.173c7.262-7.262,13.589-15.278,18.941-23.961
				c3.907-6.339,7.298-13.031,10.139-20.054c6.063-14.989,9.706-31.586,10.828-49.331c1.89-29.9-3.571-63.734-15.378-95.268
				l-0.663-1.77l-1.769-0.663c-19.196-7.187-49.212-15.755-83.196-15.755c-20.041,0-38.769,3.037-55.664,9.027
				C583.172-1247.04,574.684-1243.003,566.754-1238.154z"/>
			<path class="st20" d="M427.888-993.394c-7.074-8.857-12.885-18.598-17.329-29.104c-6.489-15.343-9.78-31.642-9.78-48.446
				c0-1.831,0.047-3.655,0.125-5.474c0.65-15.156,3.997-29.848,9.99-43.746c2.645-6.135,5.795-12.079,9.361-17.667l8.048-12.611
				l-0.399,14.955c-0.023,0.871-0.035,1.755-0.035,2.628c0,21.024,6.7,40.51,18.074,56.441c15.763,22.08,40.504,37.331,68.848,40.37
				l10.451-31.501l10.451,31.501c28.344-3.038,53.086-18.29,68.848-40.37c11.373-15.932,18.074-35.417,18.074-56.441
				c0-0.873-0.012-1.757-0.035-2.628l-0.399-14.955l8.048,12.611c3.567,5.589,6.716,11.533,9.361,17.667
				c5.993,13.897,9.34,28.589,9.99,43.746c0.078,1.818,0.125,3.642,0.125,5.474c0,16.803-3.29,33.103-9.779,48.446
				c-4.444,10.506-10.255,20.247-17.329,29.104"/>
		</g>
	</g>
	<g>
		<g>
			<g>
				<path class="st15" d="M576.377-1090.527L576.377-1090.527l0-21.673c0-18.758,15.206-33.964,33.964-33.964h0v21.673
					C610.341-1105.734,595.135-1090.527,576.377-1090.527z"/>
				<path class="st16" d="M576.377-1090.572v-21.629c0-18.742,15.181-33.938,33.917-33.964
					C608.601-1134.674,602.001-1108.871,576.377-1090.572z"/>
			</g>
			<g>
				<path class="st15" d="M576.377-1146.053L576.377-1146.053l0-21.673c0-18.758,15.206-33.964,33.964-33.964h0v21.673
					C610.341-1161.259,595.135-1146.053,576.377-1146.053z"/>
				<path class="st16" d="M576.377-1146.097v-21.629c0-18.742,15.181-33.938,33.917-33.964
					C608.601-1190.199,602.001-1164.396,576.377-1146.097z"/>
			</g>
		</g>
		<g>
			<g>
				<path class="st15" d="M474.107-1090.527L474.107-1090.527l0-21.673c0-18.758-15.206-33.964-33.964-33.964h0v21.673
					C440.143-1105.734,455.349-1090.527,474.107-1090.527z"/>
				<path class="st16" d="M474.107-1090.572v-21.629c0-18.742-15.181-33.938-33.917-33.964
					C441.883-1134.674,448.483-1108.871,474.107-1090.572z"/>
			</g>
			<g>
				<path class="st15" d="M474.107-1146.053L474.107-1146.053l0-21.673c0-18.758-15.206-33.964-33.964-33.964h0v21.673
					C440.143-1161.259,455.349-1146.053,474.107-1146.053z"/>
				<path class="st16" d="M474.107-1146.097v-21.629c0-18.742-15.181-33.938-33.917-33.964
					C441.883-1190.199,448.483-1164.396,474.107-1146.097z"/>
			</g>
		</g>
	</g>
</g>
<rect x="273.742" y="273.217" class="st3" width="545" height="545"/>
<g>
	<path class="st4" d="M817.959,543.998c-12.952-28.454-31.58-54.254-52.455-72.646c-0.506-0.446-1.016-0.881-1.524-1.319
		c3.124-10.969,5.088-22.631,5.86-34.836c1.89-29.9-3.571-63.734-15.378-95.268l-0.663-1.77l-1.769-0.663
		c-19.196-7.187-49.212-15.754-83.196-15.754c-16.64,0-32.371,2.101-46.904,6.24c-0.439-0.51-0.875-1.022-1.323-1.529
		c-18.392-20.875-44.192-39.503-72.645-52.455l-1.72-0.783l-1.72,0.783c-28.454,12.951-54.254,31.58-72.646,52.455
		c-0.447,0.508-0.884,1.019-1.323,1.53c-14.534-4.14-30.265-6.242-46.904-6.242c-33.984,0-63.999,8.567-83.195,15.754l-1.77,0.663
		l-0.663,1.77c-11.807,31.534-17.268,65.367-15.378,95.268c0.771,12.205,2.736,23.867,5.859,34.836
		c-0.509,0.438-1.018,0.873-1.524,1.319c-20.875,18.392-39.503,44.192-52.455,72.646l-0.783,1.72l0.783,1.72
		c12.951,28.454,31.58,54.254,52.455,72.646c0.506,0.446,1.016,0.881,1.524,1.319c-3.124,10.969-5.088,22.631-5.86,34.836
		c-1.89,29.901,3.571,63.734,15.378,95.268l0.663,1.769l1.77,0.663c19.195,7.187,49.211,15.754,83.196,15.755
		c0.001,0,0.001,0,0.002,0c16.639,0,32.37-2.101,46.902-6.24c0.439,0.51,0.875,1.021,1.322,1.529
		c18.392,20.874,44.192,39.503,72.646,52.455l1.72,0.783l1.72-0.783c28.454-12.951,54.254-31.58,72.646-52.455
		c0.447-0.508,0.884-1.019,1.323-1.53c14.534,4.14,30.265,6.242,46.904,6.242c33.984,0,63.999-8.567,83.195-15.754l1.769-0.663
		l0.663-1.769c11.807-31.534,17.268-65.368,15.378-95.268c-0.771-12.205-2.736-23.866-5.859-34.836
		c0.509-0.438,1.018-0.873,1.524-1.319c20.874-18.392,39.503-44.192,52.455-72.645l0.783-1.72L817.959,543.998z"/>
	<g>
		<g>
			<path class="st5" d="M754.462,339.93l-0.663-1.77l-1.769-0.663c-19.196-7.187-49.212-15.754-83.196-15.754
				c-20.041,0-38.769,3.037-55.664,9.027c-8.999,3.19-17.487,7.227-25.417,12.076v161.737h37.787
				c11.373-15.932,18.074-35.418,18.074-56.441c0-0.873-0.012-1.757-0.035-2.628l-0.399-14.955l8.048,12.611
				c3.567,5.589,6.716,11.533,9.361,17.667c5.993,13.897,9.34,28.59,9.99,43.746h78.294c3.907-6.339,7.298-13.031,10.139-20.054
				c6.063-14.989,9.706-31.587,10.828-49.331C771.73,405.297,766.269,371.464,754.462,339.93z"/>
			<path class="st5" d="M441.255,443.17l8.048-12.611l-0.399,14.955c-0.023,0.871-0.035,1.755-0.035,2.628
				c0,21.024,6.7,40.51,18.074,56.441h37.787V342.847c-7.93-4.849-16.418-8.886-25.417-12.076
				c-16.897-5.991-35.625-9.028-55.664-9.028c-33.984,0-63.999,8.567-83.195,15.754l-1.77,0.663l-0.663,1.77
				c-11.807,31.534-17.268,65.367-15.378,95.268c1.122,17.745,4.764,34.342,10.827,49.332c2.841,7.023,6.231,13.715,10.139,20.054
				h78.294c0.65-15.156,3.997-29.848,9.99-43.746C434.539,454.702,437.689,448.758,441.255,443.17z"/>
		</g>
	</g>
	<g>
		<path class="st5" d="M587.754,692.377v56.21c7.93,4.849,16.418,8.886,25.417,12.076c16.897,5.991,35.625,9.028,55.663,9.028
			c33.984,0,63.999-8.567,83.195-15.754l1.769-0.663l0.663-1.769c11.807-31.534,17.268-65.368,15.378-95.268
			c-1.122-17.745-4.764-34.342-10.827-49.332c-2.728-6.745-5.967-13.184-9.68-19.299"/>
		<path class="st5" d="M343.151,587.606c-3.713,6.116-6.952,12.554-9.68,19.299c-6.063,14.989-9.706,31.587-10.827,49.331
			c-1.89,29.901,3.571,63.734,15.378,95.268l0.663,1.769l1.77,0.663c19.195,7.187,49.211,15.754,83.196,15.755
			c0.001,0,0.001,0,0.002,0c20.039,0,38.768-3.037,55.662-9.027c8.999-3.19,17.487-7.227,25.417-12.077v-56.211"/>
	</g>
	<path class="st6" d="M544.522,817.434c-28.454-12.951-54.253-31.58-72.646-52.455c-10.92-12.394-19.431-25.692-25.296-39.525
		c-6.514-15.362-9.817-31.526-9.817-48.042c0-9.404,1.371-18.298,4.009-26.226c-7.929,2.638-16.823,4.009-26.227,4.009
		c-16.516,0-32.68-3.303-48.042-9.817c-13.833-5.865-27.13-14.377-39.525-25.297c-20.875-18.392-39.503-44.192-52.455-72.646
		l-0.783-1.72l0.783-1.72c12.951-28.454,31.58-54.253,52.455-72.646c12.394-10.92,25.692-19.431,39.524-25.296
		c15.362-6.514,31.526-9.817,48.042-9.817c9.128,0,17.776,1.292,25.527,3.781c0.218-0.218,0.253-0.253,0.471-0.471
		c-2.489-7.751-3.781-16.399-3.781-25.527c0-16.516,3.303-32.68,9.817-48.042c5.865-13.833,14.376-27.13,25.297-39.525
		c18.393-20.874,44.192-39.503,72.646-52.455l1.72-0.783l1.72,0.783c28.454,12.951,54.253,31.58,72.645,52.455
		c10.92,12.394,19.431,25.692,25.297,39.524c6.514,15.362,9.817,31.526,9.817,48.042c0,9.128-1.292,17.776-3.781,25.527
		c0.218,0.218,0.253,0.253,0.471,0.471c7.751-2.489,16.398-3.781,25.527-3.781c16.516,0,32.68,3.303,48.042,9.817
		c13.832,5.865,27.13,14.376,39.525,25.297c20.874,18.392,39.503,44.192,52.455,72.646l0.783,1.72l-0.783,1.72
		c-12.951,28.454-31.58,54.253-52.455,72.645c-12.394,10.92-25.692,19.431-39.525,25.297c-15.362,6.514-31.526,9.817-48.042,9.817
		c-9.404,0-18.298-1.371-26.226-4.009c2.638,7.929,4.009,16.823,4.009,26.226c0,16.516-3.303,32.68-9.817,48.042
		c-5.865,13.832-14.377,27.13-25.297,39.525c-18.392,20.874-44.192,39.503-72.646,52.455l-1.72,0.783L544.522,817.434z"/>
	<polygon class="st7" points="546.242,513.451 570.87,587.686 648.418,587.686 586.091,633.833 609.39,707.801 546.242,662.785 
		483.094,707.801 506.394,633.833 444.066,587.686 521.614,587.686 	"/>
	<g>
		<g>
			<path class="st8" d="M660.926,558.502c-4.444,10.506-10.255,20.247-17.329,29.104h105.736
				c-5.448-8.973-11.928-17.244-19.399-24.716c-7.322-7.322-15.327-13.142-23.562-17.173c8.235-4.032,16.24-9.852,23.562-17.173
				c7.262-7.262,13.589-15.279,18.941-23.961H670.58c0.078,1.818,0.125,3.642,0.125,5.474
				C670.705,526.86,667.415,543.159,660.926,558.502z"/>
			<path class="st8" d="M421.779,510.056c0-1.831,0.047-3.655,0.125-5.474H343.61c5.352,8.682,11.678,16.699,18.941,23.961
				c7.321,7.321,15.328,13.142,23.562,17.173c-8.234,4.032-16.241,9.852-23.562,17.173c-7.472,7.472-13.951,15.743-19.399,24.716
				h105.736c-7.074-8.857-12.885-18.598-17.329-29.104C425.07,543.159,421.779,526.86,421.779,510.056z"/>
			<path class="st8" d="M556.693,544.953c28.344-3.038,53.086-18.29,68.848-40.37h-37.787V342.846
				c-8.828,5.399-16.964,11.805-24.339,19.18c-7.321,7.321-13.142,15.328-17.173,23.562c-4.032-8.235-9.852-16.24-17.173-23.562
				c-7.374-7.374-15.51-13.78-24.339-19.179v161.736h-37.787c15.763,22.08,40.504,37.331,68.848,40.37l10.451-31.501
				L556.693,544.953z"/>
			<path class="st9" d="M546.242,513.451"/>
		</g>
		<path class="st8" d="M504.73,692.377v56.211c8.828-5.399,16.964-11.805,24.339-19.18c7.322-7.322,13.142-15.327,17.173-23.562
			c4.032,8.235,9.852,16.24,17.173,23.562c7.374,7.374,15.51,13.78,24.339,19.179v-56.21l-41.512-29.593L504.73,692.377z"/>
	</g>
	<path class="st10" d="M660.59,461.121c-2.645-6.135-5.794-12.079-9.361-17.667l-8.048-12.611l0.399,14.955
		c0.023,0.871,0.035,1.755,0.035,2.628c0,53.692-43.681,97.373-97.373,97.373c-53.692,0-97.373-43.681-97.373-97.373
		c0-0.871,0.012-1.755,0.035-2.629l0.396-14.95l-8.045,12.607c-3.567,5.59-6.716,11.533-9.361,17.667
		c-6.712,15.565-10.115,32.125-10.115,49.22c0,16.804,3.29,33.103,9.78,48.445c6.269,14.821,15.243,28.132,26.675,39.563
		c11.432,11.432,24.742,20.406,39.563,26.675c15.342,6.489,31.642,9.78,48.446,9.78c16.804,0,33.103-3.29,48.445-9.78
		c14.821-6.268,28.131-15.243,39.563-26.675c11.432-11.432,20.406-24.743,26.674-39.563c6.49-15.342,9.78-31.642,9.78-48.445
		C670.705,493.246,667.302,476.686,660.59,461.121z"/>
	<polygon class="st5" points="546.242,513.451 570.87,587.686 648.418,587.686 586.091,633.833 609.39,707.801 546.242,662.785 
		483.094,707.801 506.394,633.833 444.066,587.686 521.614,587.686 	"/>
	<g>
		<path class="st11" d="M706.372,545.717h-40.854c-1.294,4.326-2.819,8.592-4.592,12.785c-4.444,10.506-10.255,20.247-17.329,29.104
			h105.736c-5.448-8.973-11.928-17.244-19.399-24.716C722.612,555.569,714.607,549.749,706.372,545.717z"/>
		<path class="st11" d="M421.905,504.583H343.61c5.352,8.682,11.678,16.699,18.941,23.961c7.321,7.321,15.328,13.142,23.562,17.173
			h40.854c-3.441-11.506-5.187-23.449-5.187-35.661C421.779,508.225,421.827,506.401,421.905,504.583z"/>
		<path class="st11" d="M535.792,544.953l10.451-31.501l0,0.001V385.587c0,0,0,0.001,0,0.001
			c-4.032-8.235-9.852-16.24-17.173-23.562c-7.374-7.374-15.51-13.78-24.339-19.179v161.736h-37.787
			C482.706,526.663,507.448,541.914,535.792,544.953z"/>
		<path class="st11" d="M546.243,705.848c4.032,8.235,9.852,16.24,17.173,23.561c7.374,7.374,15.51,13.78,24.339,19.179v-56.21
			l-41.511-29.592V705.848z"/>
	</g>
	<g>
		<path class="st12" d="M436.763,677.413c0-9.404,1.371-18.298,4.009-26.226c-7.929,2.638-16.823,4.009-26.227,4.009
			c-16.516,0-32.68-3.303-48.042-9.817c-6.746-2.861-13.364-6.355-19.813-10.447c-0.941,0.615-1.85,1.245-2.72,1.884
			c-0.164,15.016,5.265,34.789,23.022,43.904c1.007,0.517,2.006,0.956,2.992,1.328c-0.819,0.648-1.629,1.364-2.424,2.154
			c-14.156,14.072-13.331,34.56-8.62,48.819c14.23,4.796,34.714,5.744,48.87-8.328c0.886-0.881,1.681-1.78,2.39-2.691
			c0.387,1.088,0.858,2.192,1.422,3.306c9.009,17.812,28.749,23.358,43.766,23.284c0.666-0.896,1.323-1.833,1.964-2.805
			c-4.234-6.612-7.835-13.405-10.772-20.332C440.066,710.093,436.763,693.929,436.763,677.413z"/>
		<path class="st12" d="M677.938,655.196c-9.404,0-18.298-1.371-26.226-4.009c2.638,7.929,4.009,16.823,4.009,26.226
			c0,16.516-3.303,32.68-9.817,48.042c-2.937,6.927-6.538,13.719-10.772,20.331c0.641,0.972,1.298,1.909,1.964,2.805
			c15.016,0.074,34.757-5.473,43.766-23.284c0.564-1.114,1.035-2.218,1.422-3.306c0.71,0.911,1.505,1.81,2.39,2.691
			c14.156,14.072,34.639,13.124,48.87,8.328c4.711-14.259,5.536-34.747-8.62-48.819c-0.795-0.79-1.605-1.505-2.424-2.154
			c0.987-0.371,1.985-0.811,2.992-1.328c17.757-9.115,23.186-28.888,23.022-43.904c-0.871-0.639-1.779-1.268-2.72-1.884
			c-6.449,4.092-13.067,7.586-19.813,10.447C710.618,651.893,694.454,655.196,677.938,655.196z"/>
		<path class="st12" d="M655.721,414.021c0,9.404-1.371,18.298-4.009,26.227c7.929-2.638,16.822-4.009,26.226-4.009
			c16.516,0,32.68,3.303,48.042,9.817c6.746,2.861,13.364,6.355,19.813,10.447c0.941-0.615,1.85-1.245,2.72-1.884
			c0.164-15.016-5.265-34.789-23.022-43.904c-1.007-0.517-2.006-0.956-2.992-1.328c0.819-0.648,1.629-1.363,2.424-2.154
			c14.156-14.072,13.331-34.56,8.62-48.819c-14.23-4.796-34.714-5.744-48.87,8.328c-0.886,0.88-1.681,1.78-2.39,2.691
			c-0.387-1.088-0.859-2.192-1.422-3.306c-9.008-17.812-28.749-23.358-43.766-23.284c-0.666,0.896-1.323,1.833-1.964,2.805
			c4.234,6.612,7.835,13.405,10.772,20.332C652.418,381.341,655.721,397.505,655.721,414.021z"/>
		<path class="st12" d="M414.546,436.238c9.404,0,18.298,1.371,26.227,4.009c-2.638-7.929-4.009-16.823-4.009-26.227
			c0-16.516,3.303-32.68,9.817-48.042c2.937-6.927,6.538-13.719,10.772-20.331c-0.641-0.972-1.298-1.909-1.964-2.805
			c-15.016-0.074-34.757,5.473-43.766,23.284c-0.564,1.114-1.035,2.218-1.422,3.306c-0.71-0.911-1.505-1.81-2.39-2.691
			c-14.156-14.072-34.639-13.124-48.87-8.328c-4.71,14.259-5.536,34.747,8.62,48.819c0.795,0.79,1.605,1.505,2.424,2.154
			c-0.987,0.371-1.985,0.811-2.992,1.328c-17.757,9.115-23.186,28.888-23.022,43.904c0.871,0.639,1.779,1.268,2.72,1.884
			c6.449-4.092,13.067-7.586,19.813-10.447C381.866,439.541,398.03,436.238,414.546,436.238z"/>
	</g>
	<g>
		<path class="st13" d="M436.763,677.413c0-9.404,1.371-18.298,4.009-26.226c-7.929,2.638-16.823,4.009-26.227,4.009
			c-16.516,0-32.68-3.303-48.042-9.817c-6.746-2.861-13.364-6.355-19.813-10.447c-0.941,0.615-1.85,1.245-2.72,1.884
			c-0.164,15.016,5.265,34.789,23.022,43.904c1.007,0.517,2.006,0.956,2.992,1.328c-0.819,0.648-1.629,1.364-2.424,2.154
			c-14.156,14.072-13.331,34.56-8.62,48.819c14.23,4.796,34.714,5.744,48.87-8.328c0.886-0.881,1.681-1.78,2.39-2.691
			c0.387,1.088,0.858,2.192,1.422,3.306c9.009,17.812,28.749,23.358,43.766,23.284c0.666-0.896,1.323-1.833,1.964-2.805
			c-4.234-6.612-7.835-13.405-10.772-20.332C440.066,710.093,436.763,693.929,436.763,677.413z"/>
		<path class="st13" d="M677.938,655.196c-9.404,0-18.298-1.371-26.226-4.009c2.638,7.929,4.009,16.823,4.009,26.226
			c0,16.516-3.303,32.68-9.817,48.042c-2.937,6.927-6.538,13.719-10.772,20.331c0.641,0.972,1.298,1.909,1.964,2.805
			c15.016,0.074,34.757-5.473,43.766-23.284c0.564-1.114,1.035-2.218,1.422-3.306c0.71,0.911,1.505,1.81,2.39,2.691
			c14.156,14.072,34.639,13.124,48.87,8.328c4.711-14.259,5.536-34.747-8.62-48.819c-0.795-0.79-1.605-1.505-2.424-2.154
			c0.987-0.371,1.985-0.811,2.992-1.328c17.757-9.115,23.186-28.888,23.022-43.904c-0.871-0.639-1.779-1.268-2.72-1.884
			c-6.449,4.092-13.067,7.586-19.813,10.447C710.618,651.893,694.454,655.196,677.938,655.196z"/>
		<path class="st13" d="M655.721,414.021c0,9.404-1.371,18.298-4.009,26.227c7.929-2.638,16.822-4.009,26.226-4.009
			c16.516,0,32.68,3.303,48.042,9.817c6.746,2.861,13.364,6.355,19.813,10.447c0.941-0.615,1.85-1.245,2.72-1.884
			c0.164-15.016-5.265-34.789-23.022-43.904c-1.007-0.517-2.006-0.956-2.992-1.328c0.819-0.648,1.629-1.363,2.424-2.154
			c14.156-14.072,13.331-34.56,8.62-48.819c-14.23-4.796-34.714-5.744-48.87,8.328c-0.886,0.88-1.681,1.78-2.39,2.691
			c-0.387-1.088-0.859-2.192-1.422-3.306c-9.008-17.812-28.749-23.358-43.766-23.284c-0.666,0.896-1.323,1.833-1.964,2.805
			c4.234,6.612,7.835,13.405,10.772,20.332C652.418,381.341,655.721,397.505,655.721,414.021z"/>
		<path class="st13" d="M414.546,436.238c9.404,0,18.298,1.371,26.227,4.009c-2.638-7.929-4.009-16.823-4.009-26.227
			c0-16.516,3.303-32.68,9.817-48.042c2.937-6.927,6.538-13.719,10.772-20.331c-0.641-0.972-1.298-1.909-1.964-2.805
			c-15.016-0.074-34.757,5.473-43.766,23.284c-0.564,1.114-1.035,2.218-1.422,3.306c-0.71-0.911-1.505-1.81-2.39-2.691
			c-14.156-14.072-34.639-13.124-48.87-8.328c-4.71,14.259-5.536,34.747,8.62,48.819c0.795,0.79,1.605,1.505,2.424,2.154
			c-0.987,0.371-1.985,0.811-2.992,1.328c-17.757,9.115-23.186,28.888-23.022,43.904c0.871,0.639,1.779,1.268,2.72,1.884
			c6.449-4.092,13.067-7.586,19.813-10.447C381.866,439.541,398.03,436.238,414.546,436.238z"/>
	</g>
	<g>
		<g>
			<path class="st20" d="M587.754,692.377"/>
			<path class="st20" d="M504.73,692.377"/>
		</g>
		<g>
			<path class="st20" d="M546.242,513.451"/>
		</g>
		<path class="st20" d="M544.522,817.434c-28.454-12.951-54.253-31.58-72.646-52.455c-10.92-12.394-19.431-25.692-25.296-39.525
			c-6.514-15.362-9.817-31.526-9.817-48.042c0-9.404,1.371-18.298,4.009-26.226c-7.929,2.638-16.823,4.009-26.227,4.009
			c-16.516,0-32.68-3.303-48.042-9.817c-13.833-5.865-27.13-14.377-39.525-25.297c-20.875-18.392-39.503-44.192-52.455-72.646
			l-0.783-1.72l0.783-1.72c12.951-28.454,31.58-54.253,52.455-72.646c12.394-10.92,25.692-19.431,39.524-25.296
			c15.362-6.514,31.526-9.817,48.042-9.817c9.128,0,17.776,1.292,25.527,3.781c0.218-0.218,0.253-0.253,0.471-0.471
			c-2.489-7.751-3.781-16.399-3.781-25.527c0-16.516,3.303-32.68,9.817-48.042c5.865-13.833,14.376-27.13,25.297-39.525
			c18.393-20.874,44.192-39.503,72.646-52.455l1.72-0.783l1.72,0.783c28.454,12.951,54.253,31.58,72.645,52.455
			c10.92,12.394,19.431,25.692,25.297,39.524c6.514,15.362,9.817,31.526,9.817,48.042c0,9.128-1.292,17.776-3.781,25.527
			c0.218,0.218,0.253,0.253,0.471,0.471c7.751-2.489,16.398-3.781,25.527-3.781c16.516,0,32.68,3.303,48.042,9.817
			c13.832,5.865,27.13,14.376,39.525,25.297c20.874,18.392,39.503,44.192,52.455,72.646l0.783,1.72l-0.783,1.72
			c-12.951,28.454-31.58,54.253-52.455,72.645c-12.394,10.92-25.692,19.431-39.525,25.297c-15.362,6.514-31.526,9.817-48.042,9.817
			c-9.404,0-18.298-1.371-26.226-4.009c2.638,7.929,4.009,16.823,4.009,26.226c0,16.516-3.303,32.68-9.817,48.042
			c-5.865,13.832-14.377,27.13-25.297,39.525c-18.392,20.874-44.192,39.503-72.646,52.455l-1.72,0.783L544.522,817.434z"/>
		<polygon class="st20" points="546.242,513.451 570.87,587.686 648.418,587.686 586.091,633.833 609.39,707.801 546.242,662.785 
			483.094,707.801 506.394,633.833 444.066,587.686 521.614,587.686 		"/>
		<g>
			<path class="st20" d="M587.754,342.846c-8.828,5.399-16.964,11.805-24.339,19.18c-7.321,7.321-13.142,15.328-17.173,23.562
				c-4.032-8.235-9.852-16.24-17.173-23.562c-7.374-7.374-15.51-13.78-24.339-19.179c-7.93-4.849-16.418-8.886-25.417-12.076
				c-16.897-5.991-35.625-9.028-55.664-9.028c-33.984,0-63.999,8.567-83.195,15.754l-1.77,0.663l-0.663,1.77
				c-11.807,31.534-17.268,65.367-15.378,95.268c1.122,17.745,4.764,34.342,10.827,49.332c2.841,7.023,6.231,13.715,10.139,20.054
				c5.352,8.682,11.678,16.699,18.941,23.961c7.321,7.321,15.328,13.142,23.562,17.173c-8.234,4.032-16.241,9.852-23.562,17.173
				c-7.472,7.472-13.951,15.743-19.399,24.716c-3.713,6.116-6.952,12.554-9.68,19.299c-6.063,14.989-9.706,31.587-10.827,49.331
				c-1.89,29.901,3.571,63.734,15.378,95.268l0.663,1.769l1.77,0.663c19.195,7.187,49.211,15.754,83.196,15.755
				c0.001,0,0.001,0,0.002,0c20.039,0,38.768-3.037,55.662-9.027c8.999-3.19,17.487-7.227,25.417-12.077
				c8.828-5.399,16.964-11.805,24.339-19.18c7.322-7.322,13.142-15.327,17.173-23.562c4.032,8.235,9.852,16.24,17.173,23.562
				c7.374,7.374,15.51,13.78,24.339,19.179c7.93,4.849,16.418,8.886,25.417,12.076c16.897,5.991,35.625,9.028,55.663,9.028
				c33.984,0,63.999-8.567,83.195-15.754l1.769-0.663l0.663-1.769c11.807-31.534,17.268-65.368,15.378-95.268
				c-1.122-17.745-4.764-34.342-10.827-49.332c-2.728-6.745-5.967-13.184-9.68-19.299c-5.448-8.973-11.928-17.244-19.399-24.716
				c-7.322-7.322-15.327-13.142-23.562-17.173c8.235-4.032,16.24-9.852,23.562-17.173c7.262-7.262,13.589-15.279,18.941-23.961
				c3.907-6.339,7.298-13.031,10.139-20.054c6.063-14.989,9.706-31.587,10.828-49.331c1.89-29.9-3.571-63.734-15.378-95.268
				l-0.663-1.77l-1.769-0.663c-19.196-7.187-49.212-15.754-83.196-15.754c-20.041,0-38.769,3.037-55.664,9.027
				C604.172,333.96,595.684,337.997,587.754,342.846z"/>
			<path class="st20" d="M448.888,587.606c-7.074-8.857-12.885-18.598-17.329-29.104c-6.489-15.343-9.78-31.642-9.78-48.446
				c0-1.831,0.047-3.655,0.125-5.474c0.65-15.156,3.997-29.848,9.99-43.746c2.645-6.135,5.795-12.079,9.361-17.667l8.048-12.611
				l-0.399,14.955c-0.023,0.871-0.035,1.755-0.035,2.628c0,21.024,6.7,40.51,18.074,56.441c15.763,22.08,40.504,37.331,68.848,40.37
				l10.451-31.501l10.451,31.501c28.344-3.038,53.086-18.29,68.848-40.37c11.373-15.932,18.074-35.418,18.074-56.441
				c0-0.873-0.012-1.757-0.035-2.628l-0.399-14.955l8.048,12.611c3.567,5.589,6.716,11.533,9.361,17.667
				c5.993,13.897,9.34,28.59,9.99,43.746c0.078,1.818,0.125,3.642,0.125,5.474c0,16.803-3.29,33.103-9.779,48.446
				c-4.444,10.506-10.255,20.247-17.329,29.104"/>
		</g>
	</g>
	<g>
		<g>
			<g>
				<path class="st15" d="M597.377,490.473L597.377,490.473l0-21.673c0-18.758,15.206-33.964,33.964-33.964h0v21.673
					C631.341,475.266,616.135,490.473,597.377,490.473z"/>
				<path class="st16" d="M597.377,490.428v-21.629c0-18.742,15.181-33.938,33.917-33.963
					C629.601,446.326,623.001,472.129,597.377,490.428z"/>
			</g>
			<g>
				<path class="st15" d="M597.377,434.947L597.377,434.947l0-21.673c0-18.758,15.206-33.964,33.964-33.964h0v21.673
					C631.341,419.741,616.135,434.947,597.377,434.947z"/>
				<path class="st16" d="M597.377,434.903v-21.629c0-18.742,15.181-33.938,33.917-33.963
					C629.601,390.801,623.001,416.604,597.377,434.903z"/>
			</g>
		</g>
		<g>
			<g>
				<path class="st15" d="M495.107,490.473L495.107,490.473l0-21.673c0-18.758-15.206-33.964-33.964-33.964h0v21.673
					C461.143,475.266,476.349,490.473,495.107,490.473z"/>
				<path class="st16" d="M495.107,490.428v-21.629c0-18.742-15.181-33.938-33.917-33.963
					C462.883,446.326,469.483,472.129,495.107,490.428z"/>
			</g>
			<g>
				<path class="st15" d="M495.107,434.947L495.107,434.947l0-21.673c0-18.758-15.206-33.964-33.964-33.964h0v21.673
					C461.143,419.741,476.349,434.947,495.107,434.947z"/>
				<path class="st16" d="M495.107,434.903v-21.629c0-18.742-15.181-33.938-33.917-33.963
					C462.883,390.801,469.483,416.604,495.107,434.903z"/>
			</g>
		</g>
	</g>
</g>
<path class="st17" d="M-177.995-520.167c31.477,0,53.551-10.584,66.231-31.757c12.673-21.167,19.012-51.534,19.012-91.094
	c0-22.564-3.068-42.341-9.192-59.336c-6.132-16.989-14.769-29.942-25.907-38.86v-2.09h214.78v2.09
	c-10.591,14.207-15.878,33.99-15.878,59.336v169.651c0,25.353,5.288,45.13,15.878,59.336v2.09H-17.955v-2.09
	c10.584-14.207,15.878-33.983,15.878-59.336v-219.377h-78.14v58.5c0,45.965-2.578,85.316-7.73,118.046
	c-5.158,32.736-14.977,58.918-29.459,78.557c-14.488,19.639-34.683,29.459-60.589,29.459V-520.167z"/>
<path class="st17" d="M301.769-523.927c-4.74,23.126-15.533,42.067-32.384,56.829c-16.858,14.768-37.816,22.147-62.888,22.147
	c-18.666,0-35.728-4.179-51.188-12.536c-15.461-8.357-27.579-20.54-36.353-36.563c-8.775-16.015-13.163-35.028-13.163-57.037
	c0-22.285,4.733-42.06,14.207-59.336c8.913-16.434,21.24-29.734,36.981-39.906c15.735-10.166,34.056-15.252,54.949-15.252
	c20.057,0,37.398,4.041,52.023,12.118c14.626,8.083,21.52,18.947,20.684,32.593c-0.835,12.261-6.202,21.52-16.087,27.788
	c-9.891,6.267-23.609,10.936-41.159,13.998c-31.202,5.576-50.842,10.447-58.918,14.626c3.897-12.536,9.611-23.12,17.132-31.758
	c7.521-8.632,18.105-17.687,31.757-27.16c12.256-9.193,18.386-16.714,18.386-22.565c0-4.179-1.815-7.378-5.432-9.611
	c-3.623-2.227-7.939-3.343-12.954-3.343c-11.7,0-22.146,4.878-31.339,14.626c-9.193,9.754-15.67,22.498-19.431,38.234
	c-3.761,15.741-4.113,32.109-1.044,49.098c1.391,6.412,4.034,13.652,7.939,21.729c6.405,12.261,15.526,22.29,27.369,30.086
	c11.838,7.803,25.555,11.7,41.159,11.7c12.537,0,23.675-2.781,33.43-8.357c9.748-5.569,17.132-12.954,22.146-22.147H301.769z"/>
<path class="st17" d="M411.774-659.732c47.636,0,71.454,11.701,71.454,35.101c0,8.638-2.65,15.461-7.939,20.475
	c-5.295,5.015-13.933,10.727-25.907,17.132c18.106,0,34.957,5.576,50.562,16.714c15.597,11.145,23.4,26.189,23.4,45.13
	c0,20.337-8.292,37.816-24.863,52.441c-16.578,14.626-37.542,21.938-62.888,21.938H309.398v-2.09
	c3.898-5.849,6.895-13.299,8.984-22.355c2.09-9.05,3.135-19.013,3.135-29.877V-605.41c0-10.864-1.045-20.821-3.135-29.876
	c-2.089-9.05-5.086-16.506-8.984-22.356v-2.09H411.774z M347.424-486.738c3.343-10.028,8.148-20.194,14.416-30.503
	c6.268-10.303,11.282-17.759,15.044-22.356c3.761-4.597,9.258-11.073,16.505-19.43c11.7-13.927,20.194-25.627,25.49-35.101
	c5.288-9.467,7.796-19.079,7.521-28.832c-0.281-18.106-8.083-27.018-23.401-26.743c-11.98,0-20.201,9.055-24.654,27.161
	C371.379-592.175,361.069-546.909,347.424-486.738z M382.524-507.631c-1.397,14.489,0.418,25.633,5.432,33.43
	c5.85,8.919,13.646,13.371,23.4,13.371c9.749,0,18.034-3.617,24.864-10.864c6.822-7.241,11.628-15.944,14.416-26.116
	c2.781-10.166,4.179-21.102,4.179-32.802c0-25.907-4.459-43.314-13.372-52.233c-14.207,6.686-26.051,15.461-35.518,26.325
	c-7.248,8.083-12.745,15.742-16.505,22.983C385.658-526.29,383.36-517.659,382.524-507.631z"/>
<path class="st17" d="M536.619-518.495c0-23.4,7.103-44.085,21.311-62.052c14.208-17.968,33.148-31.549,56.829-40.742
	c-11.981,12.536-17.968,33.572-17.968,63.097c0,19.784,4.733,36.563,14.207,50.352c9.468,13.79,22.565,20.547,39.279,20.267
	c6.405,0,12.954-1.254,19.64-3.761c-30.648-88.306-50.006-137.059-58.083-146.252c-8.083-9.467-19.221-13.09-33.429-10.864
	l-0.418-1.254c18.105-10.584,34.819-15.878,50.143-15.878c13.646,0,26.534,3.97,38.652,11.909
	c12.118,7.939,21.102,19.574,26.952,34.892c5.569,14.488,14.208,37.542,25.907,69.155c11.7,31.62,19.221,52.024,22.565,61.217
	c5.569,15.043,12.672,26.887,21.312,35.518v2.09h-79.395l-11.7-33.429c-12.536,26.188-32.319,39.279-59.336,39.279
	c-23.4,0-41.995-6.895-55.785-20.684C543.513-479.425,536.619-497.04,536.619-518.495z"/>
<path class="st17" d="M773.735-452.891c3.898-5.849,6.894-13.299,8.984-22.355c2.09-9.05,3.135-19.013,3.135-29.877V-605.41
	c0-10.864-1.045-20.821-3.135-29.876c-2.09-9.05-5.086-16.506-8.984-22.356v-2.09h91.929v2.09
	c-3.904,5.849-6.894,13.306-8.984,22.356c-2.088,9.055-3.133,19.012-3.133,29.876v42.205h63.932v-42.205
	c0-10.864-1.045-20.821-3.133-29.876c-2.09-9.05-5.088-16.506-8.984-22.356v-2.09h91.929v2.09
	c-3.904,5.849-6.894,13.306-8.984,22.356c-2.09,9.055-3.135,19.012-3.135,29.876v100.287c0,10.864,1.045,20.828,3.135,29.877
	c2.09,9.055,5.08,16.505,8.984,22.355v2.09h-91.929v-2.09c3.896-5.849,6.894-13.299,8.984-22.355
	c2.088-9.05,3.133-19.013,3.133-29.877v-48.054h-63.932v48.054c0,10.864,1.045,20.828,3.133,29.877
	c2.09,9.055,5.08,16.505,8.984,22.355v2.09h-91.929V-452.891z"/>
<path class="st17" d="M1073.035-452.891c3.898-5.849,6.894-13.299,8.984-22.355c2.09-9.05,3.135-19.013,3.135-29.877v-144.58h-5.433
	c-29.812,0.836-51.815,21.454-66.022,61.843h-4.178l7.939-71.872h203.498l7.521,71.872h-4.18
	c-14.207-40.388-36.079-61.007-65.604-61.843h-5.849v144.58c0,10.864,1.045,20.828,3.133,29.877
	c2.09,9.055,5.08,16.505,8.984,22.355v2.09h-91.929V-452.891z"/>
<line class="st2" x1="-474.758" y1="-762.783" x2="1525.242" y2="-762.783"/>
<line class="st21" x1="-474.758" y1="-743.304" x2="1525.242" y2="-743.304"/>
<line class="st2" x1="-474.758" y1="-1307.783" x2="1525.242" y2="-1307.783"/>
<line class="st2" x1="-474.758" y1="-447.041" x2="1525.242" y2="-447.041"/>
<rect x="-450" y="-1578" class="st2" width="1949.952" height="1405"/>
<line class="st2" x1="1228.48" y1="-1580" x2="1228.48" y2="-175"/>
<line class="st2" x1="-177.995" y1="-1580" x2="-177.995" y2="-175"/>
<g>
	<path class="st17" d="M514.119-1334.229h3.816v-11.928l-2.52,1.8l-1.056-1.656l4.128-2.928h1.656v14.712h3.696v2.088h-9.72
		V-1334.229z"/>
	<path class="st17" d="M529.983-1338.309l-3.888-5.904h2.352l2.88,4.488l2.856-4.488h2.28l-3.888,5.904l4.176,6.168h-2.424
		l-3.096-4.704l-3.096,4.704h-2.304L529.983-1338.309z"/>
</g>
<g>
	<g>
		<path class="st17" d="M1972.284-1173.965h3.816v-11.928l-2.52,1.8l-1.056-1.656l4.128-2.928h1.656v14.712h3.696v2.088h-9.72
			V-1173.965z"/>
		<path class="st17" d="M1990.716-1188.677h1.992l-6.912,21.6h-1.992L1990.716-1188.677z"/>
		<path class="st17" d="M1993.619-1173.629l6.192-6.312c0.832-0.848,1.436-1.564,1.812-2.148s0.564-1.244,0.564-1.98
			c0-0.832-0.292-1.512-0.876-2.04c-0.584-0.528-1.364-0.792-2.34-0.792c-1.008,0-1.816,0.292-2.424,0.876s-0.928,1.34-0.96,2.268
			h-2.16c0.016-0.96,0.264-1.836,0.744-2.628s1.136-1.416,1.968-1.872c0.832-0.456,1.776-0.684,2.832-0.684
			c1.072,0,2.02,0.212,2.844,0.636c0.824,0.424,1.46,1.004,1.908,1.74c0.448,0.736,0.672,1.552,0.672,2.448
			c0,0.993-0.26,1.908-0.78,2.748c-0.521,0.84-1.269,1.756-2.244,2.748l-4.584,4.656h7.608v2.088h-10.776V-1173.629z"/>
		<path class="st17" d="M2009.867-1178.045l-3.888-5.904h2.352l2.88,4.488l2.856-4.488h2.28l-3.888,5.904l4.176,6.168h-2.424
			l-3.096-4.704l-3.096,4.704h-2.304L2009.867-1178.045z"/>
	</g>
	<g>
		<path class="st17" d="M3736.284-1173.965h3.816v-11.928l-2.52,1.8l-1.056-1.656l4.128-2.928h1.656v14.712h3.696v2.088h-9.72
			V-1173.965z"/>
		<path class="st17" d="M3754.716-1188.677h1.992l-6.912,21.6h-1.992L3754.716-1188.677z"/>
		<path class="st17" d="M3757.619-1173.629l6.192-6.312c0.832-0.848,1.436-1.564,1.812-2.148s0.564-1.244,0.564-1.98
			c0-0.832-0.292-1.512-0.876-2.04c-0.584-0.528-1.364-0.792-2.34-0.792c-1.008,0-1.816,0.292-2.424,0.876s-0.928,1.34-0.96,2.268
			h-2.16c0.016-0.96,0.264-1.836,0.744-2.628s1.136-1.416,1.968-1.872c0.832-0.456,1.776-0.684,2.832-0.684
			c1.072,0,2.02,0.212,2.844,0.636c0.824,0.424,1.46,1.004,1.908,1.74c0.448,0.736,0.672,1.552,0.672,2.448
			c0,0.993-0.26,1.908-0.78,2.748c-0.521,0.84-1.269,1.756-2.244,2.748l-4.584,4.656h7.608v2.088h-10.776V-1173.629z"/>
		<path class="st17" d="M3773.867-1178.045l-3.888-5.904h2.352l2.88,4.488l2.856-4.488h2.28l-3.888,5.904l4.176,6.168h-2.424
			l-3.096-4.704l-3.096,4.704h-2.304L3773.867-1178.045z"/>
	</g>
</g>
<g>
	<g>
		<path class="st17" d="M1972.284-681.965h3.816v-11.928l-2.52,1.8l-1.056-1.656l4.128-2.928h1.656v14.712h3.696v2.088h-9.72
			V-681.965z"/>
		<path class="st17" d="M1990.716-696.677h1.992l-6.912,21.6h-1.992L1990.716-696.677z"/>
		<path class="st17" d="M1993.619-681.629l6.192-6.312c0.832-0.848,1.436-1.564,1.812-2.148s0.564-1.244,0.564-1.98
			c0-0.832-0.292-1.512-0.876-2.04c-0.584-0.528-1.364-0.792-2.34-0.792c-1.008,0-1.816,0.292-2.424,0.876s-0.928,1.34-0.96,2.268
			h-2.16c0.016-0.96,0.264-1.836,0.744-2.628s1.136-1.416,1.968-1.872c0.832-0.456,1.776-0.684,2.832-0.684
			c1.072,0,2.02,0.212,2.844,0.636c0.824,0.424,1.46,1.004,1.908,1.74c0.448,0.736,0.672,1.552,0.672,2.448
			c0,0.993-0.26,1.908-0.78,2.748c-0.521,0.84-1.269,1.756-2.244,2.748l-4.584,4.656h7.608v2.088h-10.776V-681.629z"/>
		<path class="st17" d="M2009.867-686.045l-3.888-5.904h2.352l2.88,4.488l2.856-4.488h2.28l-3.888,5.904l4.176,6.168h-2.424
			l-3.096-4.704l-3.096,4.704h-2.304L2009.867-686.045z"/>
	</g>
	<g>
		<path class="st17" d="M3736.284-681.965h3.816v-11.928l-2.52,1.8l-1.056-1.656l4.128-2.928h1.656v14.712h3.696v2.088h-9.72
			V-681.965z"/>
		<path class="st17" d="M3754.716-696.677h1.992l-6.912,21.6h-1.992L3754.716-696.677z"/>
		<path class="st17" d="M3757.619-681.629l6.192-6.312c0.832-0.848,1.436-1.564,1.812-2.148s0.564-1.244,0.564-1.98
			c0-0.832-0.292-1.512-0.876-2.04c-0.584-0.528-1.364-0.792-2.34-0.792c-1.008,0-1.816,0.292-2.424,0.876s-0.928,1.34-0.96,2.268
			h-2.16c0.016-0.96,0.264-1.836,0.744-2.628s1.136-1.416,1.968-1.872c0.832-0.456,1.776-0.684,2.832-0.684
			c1.072,0,2.02,0.212,2.844,0.636c0.824,0.424,1.46,1.004,1.908,1.74c0.448,0.736,0.672,1.552,0.672,2.448
			c0,0.993-0.26,1.908-0.78,2.748c-0.521,0.84-1.269,1.756-2.244,2.748l-4.584,4.656h7.608v2.088h-10.776V-681.629z"/>
		<path class="st17" d="M3773.867-686.045l-3.888-5.904h2.352l2.88,4.488l2.856-4.488h2.28l-3.888,5.904l4.176,6.168h-2.424
			l-3.096-4.704l-3.096,4.704h-2.304L3773.867-686.045z"/>
	</g>
</g>
<g>
	<g>
		<path class="st17" d="M-335.716-1333.965h3.816v-11.928l-2.52,1.8l-1.056-1.656l4.128-2.928h1.656v14.712h3.696v2.088h-9.72
			V-1333.965z"/>
		<path class="st17" d="M-317.284-1348.677h1.992l-6.912,21.6h-1.992L-317.284-1348.677z"/>
		<path class="st17" d="M-314.381-1333.629l6.192-6.312c0.832-0.848,1.436-1.564,1.812-2.148s0.564-1.244,0.564-1.98
			c0-0.832-0.292-1.512-0.876-2.04c-0.584-0.528-1.364-0.792-2.34-0.792c-1.008,0-1.816,0.292-2.424,0.876s-0.928,1.34-0.96,2.268
			h-2.16c0.016-0.96,0.264-1.836,0.744-2.628s1.136-1.416,1.968-1.872c0.832-0.456,1.776-0.684,2.832-0.684
			c1.072,0,2.02,0.212,2.844,0.636c0.824,0.424,1.46,1.004,1.908,1.74c0.448,0.736,0.672,1.552,0.672,2.448
			c0,0.993-0.26,1.908-0.78,2.748c-0.521,0.84-1.269,1.756-2.244,2.748l-4.584,4.656h7.608v2.088h-10.776V-1333.629z"/>
		<path class="st17" d="M-298.133-1338.045l-3.888-5.904h2.352l2.88,4.488l2.856-4.488h2.28l-3.888,5.904l4.176,6.168h-2.424
			l-3.096-4.704l-3.096,4.704h-2.304L-298.133-1338.045z"/>
	</g>
	<g>
		<path class="st17" d="M1342.284-1333.965h3.816v-11.928l-2.52,1.8l-1.056-1.656l4.128-2.928h1.656v14.712h3.696v2.088h-9.72
			V-1333.965z"/>
		<path class="st17" d="M1360.716-1348.677h1.992l-6.912,21.6h-1.992L1360.716-1348.677z"/>
		<path class="st17" d="M1363.619-1333.629l6.192-6.312c0.832-0.848,1.436-1.564,1.812-2.148s0.564-1.244,0.564-1.98
			c0-0.832-0.292-1.512-0.876-2.04c-0.584-0.528-1.364-0.792-2.34-0.792c-1.008,0-1.816,0.292-2.424,0.876s-0.928,1.34-0.96,2.268
			h-2.16c0.016-0.96,0.264-1.836,0.744-2.628s1.136-1.416,1.968-1.872c0.832-0.456,1.776-0.684,2.832-0.684
			c1.072,0,2.02,0.212,2.844,0.636c0.824,0.424,1.46,1.004,1.908,1.74c0.448,0.736,0.672,1.552,0.672,2.448
			c0,0.993-0.26,1.908-0.78,2.748c-0.521,0.84-1.269,1.756-2.244,2.748l-4.584,4.656h7.608v2.088h-10.776V-1333.629z"/>
		<path class="st17" d="M1379.867-1338.045l-3.888-5.904h2.352l2.88,4.488l2.856-4.488h2.28l-3.888,5.904l4.176,6.168h-2.424
			l-3.096-4.704l-3.096,4.704h-2.304L1379.867-1338.045z"/>
	</g>
</g>
<g>
	<path class="st17" d="M-335.716-199.965h3.816v-11.928l-2.52,1.8l-1.056-1.656l4.128-2.928h1.656v14.712h3.696v2.088h-9.72
		V-199.965z"/>
	<path class="st17" d="M-317.284-214.677h1.992l-6.912,21.6h-1.992L-317.284-214.677z"/>
	<path class="st17" d="M-314.381-199.629l6.192-6.312c0.832-0.848,1.436-1.564,1.812-2.148s0.564-1.244,0.564-1.98
		c0-0.832-0.292-1.512-0.876-2.04c-0.584-0.528-1.364-0.792-2.34-0.792c-1.008,0-1.816,0.292-2.424,0.876s-0.928,1.34-0.96,2.268
		h-2.16c0.016-0.96,0.264-1.836,0.744-2.628s1.136-1.416,1.968-1.872c0.832-0.456,1.776-0.684,2.832-0.684
		c1.072,0,2.02,0.212,2.844,0.636c0.824,0.424,1.46,1.004,1.908,1.74c0.448,0.736,0.672,1.552,0.672,2.448
		c0,0.993-0.26,1.908-0.78,2.748c-0.521,0.84-1.269,1.756-2.244,2.748l-4.584,4.656h7.608v2.088h-10.776V-199.629z"/>
	<path class="st17" d="M-298.133-204.045l-3.888-5.904h2.352l2.88,4.488l2.856-4.488h2.28l-3.888,5.904l4.176,6.168h-2.424
		l-3.096-4.704l-3.096,4.704h-2.304L-298.133-204.045z"/>
</g>
<g>
	<path class="st17" d="M1342.284-199.965h3.816v-11.928l-2.52,1.8l-1.056-1.656l4.128-2.928h1.656v14.712h3.696v2.088h-9.72
		V-199.965z"/>
	<path class="st17" d="M1360.716-214.677h1.992l-6.912,21.6h-1.992L1360.716-214.677z"/>
	<path class="st17" d="M1363.619-199.629l6.192-6.312c0.832-0.848,1.436-1.564,1.812-2.148s0.564-1.244,0.564-1.98
		c0-0.832-0.292-1.512-0.876-2.04c-0.584-0.528-1.364-0.792-2.34-0.792c-1.008,0-1.816,0.292-2.424,0.876s-0.928,1.34-0.96,2.268
		h-2.16c0.016-0.96,0.264-1.836,0.744-2.628s1.136-1.416,1.968-1.872c0.832-0.456,1.776-0.684,2.832-0.684
		c1.072,0,2.02,0.212,2.844,0.636c0.824,0.424,1.46,1.004,1.908,1.74c0.448,0.736,0.672,1.552,0.672,2.448
		c0,0.993-0.26,1.908-0.78,2.748c-0.521,0.84-1.269,1.756-2.244,2.748l-4.584,4.656h7.608v2.088h-10.776V-199.629z"/>
	<path class="st17" d="M1379.867-204.045l-3.888-5.904h2.352l2.88,4.488l2.856-4.488h2.28l-3.888,5.904l4.176,6.168h-2.424
		l-3.096-4.704l-3.096,4.704h-2.304L1379.867-204.045z"/>
</g>
<rect x="818.48" y="0.959" class="st1" width="271.783" height="271.783"/>
<g>
	<path class="st17" d="M932.284,248.035h3.816v-11.928l-2.52,1.8l-1.056-1.656l4.128-2.928h1.656v14.712h3.696v2.088h-9.72V248.035z
		"/>
	<path class="st17" d="M950.716,233.323h1.992l-6.912,21.6h-1.992L950.716,233.323z"/>
	<path class="st17" d="M953.619,248.371l6.192-6.312c0.832-0.848,1.436-1.564,1.812-2.148s0.564-1.244,0.564-1.98
		c0-0.832-0.292-1.512-0.876-2.04c-0.584-0.528-1.364-0.792-2.34-0.792c-1.008,0-1.816,0.292-2.424,0.876s-0.928,1.34-0.96,2.268
		h-2.16c0.016-0.96,0.264-1.836,0.744-2.628s1.136-1.416,1.968-1.872c0.832-0.456,1.776-0.684,2.832-0.684
		c1.072,0,2.02,0.212,2.844,0.636c0.824,0.424,1.46,1.004,1.908,1.74c0.448,0.736,0.672,1.552,0.672,2.448
		c0,0.993-0.26,1.908-0.78,2.748c-0.521,0.84-1.269,1.756-2.244,2.748l-4.584,4.656h7.608v2.088h-10.776V248.371z"/>
	<path class="st17" d="M969.867,243.955l-3.888-5.904h2.352l2.88,4.488l2.856-4.488h2.28l-3.888,5.904l4.176,6.168h-2.424
		l-3.096-4.704l-3.096,4.704h-2.304L969.867,243.955z"/>
</g>
<rect x="1.48" y="0.959" class="st1" width="271.783" height="271.783"/>
<g>
	<path class="st17" d="M115.284,248.035h3.816v-11.928l-2.52,1.8l-1.056-1.656l4.128-2.928h1.656v14.712h3.696v2.088h-9.72V248.035z
		"/>
	<path class="st17" d="M133.716,233.323h1.992l-6.912,21.6h-1.992L133.716,233.323z"/>
	<path class="st17" d="M136.619,248.371l6.192-6.312c0.832-0.848,1.436-1.564,1.812-2.148s0.564-1.244,0.564-1.98
		c0-0.832-0.292-1.512-0.876-2.04c-0.584-0.528-1.364-0.792-2.34-0.792c-1.008,0-1.816,0.292-2.424,0.876s-0.928,1.34-0.96,2.268
		h-2.16c0.016-0.96,0.264-1.836,0.744-2.628s1.136-1.416,1.968-1.872c0.832-0.456,1.776-0.684,2.832-0.684
		c1.072,0,2.02,0.212,2.844,0.636c0.824,0.424,1.46,1.004,1.908,1.74c0.448,0.736,0.672,1.552,0.672,2.448
		c0,0.993-0.26,1.908-0.78,2.748c-0.521,0.84-1.269,1.756-2.244,2.748l-4.584,4.656h7.608v2.088h-10.776V248.371z"/>
	<path class="st17" d="M152.867,243.955l-3.888-5.904h2.352l2.88,4.488l2.856-4.488h2.28l-3.888,5.904l4.176,6.168h-2.424
		l-3.096-4.704l-3.096,4.704h-2.304L152.867,243.955z"/>
</g>
<rect x="818.48" y="817.959" class="st1" width="271.783" height="271.783"/>
<g>
	<path class="st17" d="M932.284,1065.035h3.816v-11.928l-2.52,1.8l-1.056-1.656l4.128-2.928h1.656v14.712h3.696v2.088h-9.72
		V1065.035z"/>
	<path class="st17" d="M950.716,1050.323h1.992l-6.912,21.6h-1.992L950.716,1050.323z"/>
	<path class="st17" d="M953.619,1065.371l6.192-6.312c0.832-0.848,1.436-1.564,1.812-2.148s0.564-1.244,0.564-1.98
		c0-0.832-0.292-1.512-0.876-2.04c-0.584-0.528-1.364-0.792-2.34-0.792c-1.008,0-1.816,0.292-2.424,0.876s-0.928,1.34-0.96,2.268
		h-2.16c0.016-0.96,0.264-1.836,0.744-2.628s1.136-1.416,1.968-1.872c0.832-0.456,1.776-0.684,2.832-0.684
		c1.072,0,2.02,0.212,2.844,0.636c0.824,0.424,1.46,1.004,1.908,1.74c0.448,0.736,0.672,1.552,0.672,2.448
		c0,0.993-0.26,1.908-0.78,2.748c-0.521,0.84-1.269,1.756-2.244,2.748l-4.584,4.656h7.608v2.088h-10.776V1065.371z"/>
	<path class="st17" d="M969.867,1060.955l-3.888-5.904h2.352l2.88,4.488l2.856-4.488h2.28l-3.888,5.904l4.176,6.168h-2.424
		l-3.096-4.704l-3.096,4.704h-2.304L969.867,1060.955z"/>
</g>
<rect x="1.48" y="817.959" class="st1" width="271.783" height="271.783"/>
<g>
	<path class="st17" d="M115.284,1065.035h3.816v-11.928l-2.52,1.8l-1.056-1.656l4.128-2.928h1.656v14.712h3.696v2.088h-9.72
		V1065.035z"/>
	<path class="st17" d="M133.716,1050.323h1.992l-6.912,21.6h-1.992L133.716,1050.323z"/>
	<path class="st17" d="M136.619,1065.371l6.192-6.312c0.832-0.848,1.436-1.564,1.812-2.148s0.564-1.244,0.564-1.98
		c0-0.832-0.292-1.512-0.876-2.04c-0.584-0.528-1.364-0.792-2.34-0.792c-1.008,0-1.816,0.292-2.424,0.876s-0.928,1.34-0.96,2.268
		h-2.16c0.016-0.96,0.264-1.836,0.744-2.628s1.136-1.416,1.968-1.872c0.832-0.456,1.776-0.684,2.832-0.684
		c1.072,0,2.02,0.212,2.844,0.636c0.824,0.424,1.46,1.004,1.908,1.74c0.448,0.736,0.672,1.552,0.672,2.448
		c0,0.993-0.26,1.908-0.78,2.748c-0.521,0.84-1.269,1.756-2.244,2.748l-4.584,4.656h7.608v2.088h-10.776V1065.371z"/>
	<path class="st17" d="M152.867,1060.955l-3.888-5.904h2.352l2.88,4.488l2.856-4.488h2.28l-3.888,5.904l4.176,6.168h-2.424
		l-3.096-4.704l-3.096,4.704h-2.304L152.867,1060.955z"/>
</g>
<g>
	<path class="st17" d="M534.684,253.771h3.816v-11.928l-2.52,1.8l-1.056-1.656l4.128-2.928h1.656v14.712h3.696v2.088h-9.72V253.771z
		"/>
	<path class="st17" d="M550.548,249.691l-3.888-5.904h2.352l2.88,4.488l2.856-4.488h2.28l-3.888,5.904l4.176,6.168h-2.424
		l-3.096-4.704l-3.096,4.704h-2.304L550.548,249.691z"/>
</g>
<line class="st2" x1="-678" y1="273" x2="1322" y2="273"/>
<line class="st2" x1="-691" y1="818" x2="1309" y2="818"/>
<line class="st2" x1="818" y1="-68" x2="818" y2="1337"/>
<line class="st2" x1="274" y1="-170" x2="274" y2="1235"/>
<rect x="1" y="1" class="st2" width="1089" height="1089"/>
</svg>
